<svg xmlns="http://www.w3.org/2000/svg" viewBox="0 0 30.82 30.82"><defs><style>.cls-1{fill:#fff;}.cls-10,.cls-2,.cls-4,.cls-5,.cls-6,.cls-7,.cls-8{fill:none;}.cls-2,.cls-5{stroke:#1d1d1b;}.cls-2{stroke-width:0.03px;}.cls-3{fill:#1d1d1b;}.cls-10,.cls-4,.cls-6,.cls-7,.cls-8{stroke:#fff;}.cls-4{stroke-width:0.11px;}.cls-5,.cls-7{stroke-width:0.06px;}.cls-6{stroke-width:0.11px;}.cls-8{stroke-width:0.3px;}.cls-9{fill:#ae1022;}.cls-10{stroke-width:0.06px;}</style></defs><g id="Layer_2" data-name="Layer 2"><g id="SITE"><rect width="30.82" height="30.82"/><path class="cls-1" d="M15.65,11.58a0,0,0,0,0,0,0,1.06,1.06,0,0,0,.39.09,1,1,0,0,0,.53-.21l0,0a1.11,1.11,0,0,0,.57.49,1.21,1.21,0,0,0,.57.06,1.55,1.55,0,0,0,.46-.15,1.62,1.62,0,0,0,.63-.64,1.38,1.38,0,0,0-.11-1.59.85.85,0,0,0-1.38.45,1,1,0,0,0,.17,1,.52.52,0,0,0,.61.1.51.51,0,0,1-.58-.21,1,1,0,0,1-.05-.9,1,1,0,0,1,.29-.46c.56-.48,1.33.16,1.09,1.13a1.66,1.66,0,0,1-1,1.2,1.06,1.06,0,0,1-.61,0,1,1,0,0,1-.33-.15,1.35,1.35,0,0,1-.32-.35l.06,0a1.5,1.5,0,0,0,.38-.79,1,1,0,0,0-.05-.56.22.22,0,0,0-.17-.14c-.16,0-.28.1-.34.23a1.29,1.29,0,0,0-.11.67,1.56,1.56,0,0,0,.13.49l0,0a.94.94,0,0,1-.88.27m.93-.32a1.19,1.19,0,0,1-.07-.55,1.63,1.63,0,0,1,.16-.64.64.64,0,0,1,.1-.13.12.12,0,0,1,.15,0,.22.22,0,0,1,.12.16,1.13,1.13,0,0,1-.08.6,1.62,1.62,0,0,1-.32.52l-.06.06"/><path class="cls-1" d="M12.87,11.31l0,0a1.56,1.56,0,0,0,.13-.49,1.28,1.28,0,0,0-.1-.67c-.07-.13-.18-.27-.34-.23a.22.22,0,0,0-.18.14,1,1,0,0,0,0,.56,1.58,1.58,0,0,0,.38.79l.06,0a1.35,1.35,0,0,1-.32.35,1,1,0,0,1-.33.15,1.06,1.06,0,0,1-.61,0,1.68,1.68,0,0,1-1-1.2c-.24-1,.54-1.61,1.09-1.13a1,1,0,0,1,.29.46,1,1,0,0,1,0,.9.51.51,0,0,1-.58.21.52.52,0,0,0,.61-.1,1,1,0,0,0,.17-1,.84.84,0,0,0-1.37-.45,1.38,1.38,0,0,0-.11,1.59,1.55,1.55,0,0,0,.63.64,1.38,1.38,0,0,0,.46.15,1.18,1.18,0,0,0,.56-.06,1.11,1.11,0,0,0,.57-.49l0,0a1,1,0,0,0,.53.21,1.06,1.06,0,0,0,.39-.09s0,0,0,0a.94.94,0,0,1-.88-.27m-.1-.11a1.65,1.65,0,0,1-.33-.52,1.13,1.13,0,0,1-.08-.6.25.25,0,0,1,.12-.16.12.12,0,0,1,.15,0,.41.41,0,0,1,.1.13,1.63,1.63,0,0,1,.16.64,1.19,1.19,0,0,1-.07.55l-.05-.06"/><path class="cls-1" d="M14.71,26.13c.69,0,3.05-2,3.74-2.75a6.9,6.9,0,0,0,1.87-4.53,10.47,10.47,0,0,0-.26-2.21,9.29,9.29,0,0,1-.21-1.86,3.89,3.89,0,0,1,.35-1.44,4.91,4.91,0,0,1-1.28-1.48,1.74,1.74,0,0,1-1.17.45,4.56,4.56,0,0,1-.51,0,6.77,6.77,0,0,0-.69,0c-1.35,0-1.73.77-1.74.8l-.13.28L14.55,13a1.8,1.8,0,0,0-1.74-.8,6.77,6.77,0,0,0-.69,0,4.75,4.75,0,0,1-.51,0,1.74,1.74,0,0,1-1.17-.45,5.06,5.06,0,0,1-1.28,1.48,3.89,3.89,0,0,1,.35,1.44,9.29,9.29,0,0,1-.21,1.86A10.47,10.47,0,0,0,9,18.85a6.9,6.9,0,0,0,1.87,4.53c.69.66,3.11,2.75,3.8,2.75"/><path class="cls-2" d="M14.71,26.13c.69,0,3.05-2,3.74-2.75a6.9,6.9,0,0,0,1.87-4.53,10.47,10.47,0,0,0-.26-2.21,9.29,9.29,0,0,1-.21-1.86,3.89,3.89,0,0,1,.35-1.44,4.91,4.91,0,0,1-1.28-1.48,1.74,1.74,0,0,1-1.17.45,4.56,4.56,0,0,1-.51,0,6.77,6.77,0,0,0-.69,0c-1.35,0-1.73.77-1.74.8l-.13.28L14.55,13a1.8,1.8,0,0,0-1.74-.8,6.77,6.77,0,0,0-.69,0,4.75,4.75,0,0,1-.51,0,1.74,1.74,0,0,1-1.17-.45,5.06,5.06,0,0,1-1.28,1.48,3.89,3.89,0,0,1,.35,1.44,9.29,9.29,0,0,1-.21,1.86A10.47,10.47,0,0,0,9,18.85a6.9,6.9,0,0,0,1.87,4.53C11.6,24,14,26.13,14.71,26.13Z"/><path class="cls-3" d="M14.7,26.41c-.81,0-3.91-2.73-3.91-2.73l0-.05a7.19,7.19,0,0,1-2-4.78A11.37,11.37,0,0,1,9,16.58a7.5,7.5,0,0,0,.21-1.79,3.56,3.56,0,0,0-.37-1.43l-.06-.1.1-.08a4.38,4.38,0,0,0,1.37-1.61l.08-.18.15.13a1.53,1.53,0,0,0,1.12.5l.48,0a7.18,7.18,0,0,1,.72-.05,2.22,2.22,0,0,1,1.87.77,2.22,2.22,0,0,1,1.87-.77,7.18,7.18,0,0,1,.72.05l.48,0a1.53,1.53,0,0,0,1.12-.5l.15-.13.08.18a4.38,4.38,0,0,0,1.37,1.61l.1.08-.06.11a3.42,3.42,0,0,0-.37,1.42,7.5,7.5,0,0,0,.21,1.79,11.45,11.45,0,0,1,.25,2.27,7.16,7.16,0,0,1-2,4.78s-3,2.78-3.91,2.78m0-.28c.69,0,3.4-2.36,3.74-2.75a6.9,6.9,0,0,0,1.87-4.53,10.47,10.47,0,0,0-.26-2.21,9.29,9.29,0,0,1-.21-1.86,3.89,3.89,0,0,1,.35-1.44,4.91,4.91,0,0,1-1.28-1.48,1.74,1.74,0,0,1-1.17.45,4.56,4.56,0,0,1-.51,0,6.77,6.77,0,0,0-.69,0c-1.35,0-1.73.77-1.74.8l-.13.28L14.55,13a1.8,1.8,0,0,0-1.74-.8,6.77,6.77,0,0,0-.69,0,4.75,4.75,0,0,1-.51,0,1.74,1.74,0,0,1-1.17-.45,5.06,5.06,0,0,1-1.28,1.48,3.89,3.89,0,0,1,.35,1.44,9.29,9.29,0,0,1-.21,1.86A10.47,10.47,0,0,0,9,18.85a6.9,6.9,0,0,0,1.87,4.53c.62.57,3.11,2.75,3.8,2.75"/><path class="cls-4" d="M14.7,26.41c-.81,0-3.91-2.73-3.91-2.73l0-.05a7.19,7.19,0,0,1-2-4.78A11.37,11.37,0,0,1,9,16.58a7.5,7.5,0,0,0,.21-1.79,3.56,3.56,0,0,0-.37-1.43l-.06-.1.1-.08a4.38,4.38,0,0,0,1.37-1.61l.08-.18.15.13a1.53,1.53,0,0,0,1.12.5l.48,0a7.18,7.18,0,0,1,.72-.05,2.22,2.22,0,0,1,1.87.77,2.22,2.22,0,0,1,1.87-.77,7.18,7.18,0,0,1,.72.05l.48,0a1.53,1.53,0,0,0,1.12-.5l.15-.13.08.18a4.38,4.38,0,0,0,1.37,1.61l.1.08-.06.11a3.42,3.42,0,0,0-.37,1.42,7.5,7.5,0,0,0,.21,1.79,11.45,11.45,0,0,1,.25,2.27,7.16,7.16,0,0,1-2,4.78S15.6,26.41,14.7,26.41Zm0-.28c.69,0,3.4-2.36,3.74-2.75a6.9,6.9,0,0,0,1.87-4.53,10.47,10.47,0,0,0-.26-2.21,9.29,9.29,0,0,1-.21-1.86,3.89,3.89,0,0,1,.35-1.44,4.91,4.91,0,0,1-1.28-1.48,1.74,1.74,0,0,1-1.17.45,4.56,4.56,0,0,1-.51,0,6.77,6.77,0,0,0-.69,0c-1.35,0-1.73.77-1.74.8l-.13.28L14.55,13a1.8,1.8,0,0,0-1.74-.8,6.77,6.77,0,0,0-.69,0,4.75,4.75,0,0,1-.51,0,1.74,1.74,0,0,1-1.17-.45,5.06,5.06,0,0,1-1.28,1.48,3.89,3.89,0,0,1,.35,1.44,9.29,9.29,0,0,1-.21,1.86A10.47,10.47,0,0,0,9,18.85a6.9,6.9,0,0,0,1.87,4.53C11.53,24,14,26.13,14.71,26.13Z"/><path class="cls-3" d="M14.66,25.9c.59,0,3.1-2.13,3.71-2.76a6.58,6.58,0,0,0,1.75-4.3,10.7,10.7,0,0,0-.25-2.16,8.4,8.4,0,0,1-.22-1.91A3.94,3.94,0,0,1,20,13.4a5.11,5.11,0,0,1-1.07-1.21,1.94,1.94,0,0,1-1.11.34,4.73,4.73,0,0,1-.52,0,6.74,6.74,0,0,0-.68,0c-1.19,0-1.51.64-1.53.67l-.34.73-.33-.73s-.34-.67-1.53-.67a6.74,6.74,0,0,0-.68,0,4.73,4.73,0,0,1-.52,0,1.94,1.94,0,0,1-1.11-.34A5.11,5.11,0,0,1,9.46,13.4a3.77,3.77,0,0,1,.3,1.37,8.26,8.26,0,0,1-.21,1.9,10.2,10.2,0,0,0-.25,2.17A6.61,6.61,0,0,0,11,23.14c.64.65,3,2.76,3.62,2.76"/><path class="cls-5" d="M14.66,25.9c.59,0,3.1-2.13,3.71-2.76a6.58,6.58,0,0,0,1.75-4.3,10.7,10.7,0,0,0-.25-2.16,8.4,8.4,0,0,1-.22-1.91A3.94,3.94,0,0,1,20,13.4a5.11,5.11,0,0,1-1.07-1.21,1.94,1.94,0,0,1-1.11.34,4.73,4.73,0,0,1-.52,0,6.74,6.74,0,0,0-.68,0c-1.19,0-1.51.64-1.53.67l-.34.73-.33-.73s-.34-.67-1.53-.67a6.74,6.74,0,0,0-.68,0,4.73,4.73,0,0,1-.52,0,1.94,1.94,0,0,1-1.11-.34A5.11,5.11,0,0,1,9.46,13.4a3.77,3.77,0,0,1,.3,1.37,8.26,8.26,0,0,1-.21,1.9,10.2,10.2,0,0,0-.25,2.17A6.61,6.61,0,0,0,11,23.14C11.68,23.79,14.07,25.9,14.66,25.9Z"/><path class="cls-1" d="M14.62,19.76a.5.5,0,0,0,0,.27h0a.84.84,0,0,1,.06.24v0s0,0-.05,0a.15.15,0,0,1-.11-.12h0a3,3,0,0,1,0-.31s0,0,0-.06a.38.38,0,0,0-.13-.15s-.07-.05-.1,0,0,.08,0,.08a.26.26,0,0,0-.21,0,.2.2,0,0,0-.13.2c0,.05,0,.07,0,.11s.05.06.09.06a.11.11,0,0,0,.12,0,.07.07,0,0,0,0-.08s0-.06,0-.07-.08,0-.1,0v-.05c0-.05.07-.07.12-.07a.38.38,0,0,1,.1,0s.05,0,.05.07a.24.24,0,0,1,.06.08s0,0,0,0,0,0,0,.06,0,.09,0,.12a.25.25,0,0,0,.13.2.51.51,0,0,0,.3,0c.06,0,.14-.07.14-.16l0-.07s0,0,0-.06,0-.06,0-.1l0-.06,0-.07a.2.2,0,0,1,.15-.08.15.15,0,0,1,.14.07s0,.05,0,.05a.18.18,0,0,0-.1,0,.14.14,0,0,0,0,.09l.05.07a.19.19,0,0,0,.15,0,.2.2,0,0,0,.08-.2s0-.06,0-.09l-.07-.06a.5.5,0,0,0-.17,0s0,0,0,0,0,0,0-.05-.06,0-.09,0a.25.25,0,0,0-.16.1s0,0,0,.06,0,0,0,.05,0,.11,0,.15,0,0,0,0a.58.58,0,0,1,0,.19s0,0,0,0-.07,0-.11,0,0-.07,0-.12,0,0,0-.06,0-.13.05-.19,0-.22-.06-.28,0,0,0-.05a0,0,0,0,0,0,0,.71.71,0,0,0-.08.15"/><path class="cls-1" d="M14.16,20.31a.26.26,0,0,0,0,.21s.05.06.07.09l.07,0,.13.05a.63.63,0,0,0,.3,0,.64.64,0,0,0,.24,0l.09,0c.06,0,.09-.06.12-.09s0-.07.06-.1,0,0,0,0a.2.2,0,0,0-.09-.22s0,0-.06,0,0,0,0,.06a.16.16,0,0,1,0,.15c0,.06,0,.08-.07.12a.68.68,0,0,1-.4.1.67.67,0,0,1-.28-.06s-.08,0-.1-.07,0,0,0,0,0-.06,0-.09.08-.11,0-.18-.1.06-.13.11"/><path class="cls-3" d="M13.56,20.51a.18.18,0,0,0,0,.16.13.13,0,0,0,.12,0c.09,0,.11-.1.19-.14a.22.22,0,0,1,.14,0s0,0,0-.06a.43.43,0,0,0-.2-.07.24.24,0,0,0-.25.12"/><path class="cls-3" d="M15.38,20.52s.08,0,.11,0a.19.19,0,0,1,.1.05s0,.07.09.08a.15.15,0,0,0,.13,0s.06,0,.06-.08a.11.11,0,0,0,0-.11.24.24,0,0,0-.11-.09.46.46,0,0,0-.26,0,.48.48,0,0,0-.11.09"/><path class="cls-3" d="M15.17,20.72s0,0,.06,0,0,0,0,.06,0,.06,0,.08a.22.22,0,0,0,.13.1l.08,0a.14.14,0,0,0,0-.15s-.05-.06-.08-.1,0,0-.07,0-.08,0-.12,0a.26.26,0,0,0-.12,0"/><path class="cls-3" d="M13.87,20.82a.12.12,0,0,0,0,.1h0A.15.15,0,0,0,14,21c.09,0,.11-.08.16-.14s0-.05.06-.08l.09,0s0,0,0,0l-.13,0s-.07,0-.11,0a.22.22,0,0,0-.15.13"/><path class="cls-3" d="M14.26,20.91a.33.33,0,0,0,0,.17.14.14,0,0,0,.12.09c.06,0,.09,0,.12-.08s0-.11,0-.15a.15.15,0,0,1,0-.07s0,0,0,0,0,0-.05,0a.33.33,0,0,0-.25.11"/><path class="cls-3" d="M14.88,20.82h0s0,.05,0,.07,0,.12.05.19.08.09.14.07a.1.1,0,0,0,.09-.07.33.33,0,0,0,0-.1.26.26,0,0,0-.15-.16.29.29,0,0,0-.16,0"/><path class="cls-1" d="M13,21a.16.16,0,0,1,.11-.07s.09,0,.11,0,0,.07,0,.12,0,0,0,.06-.11,0-.15,0a.14.14,0,0,0,0,.11.27.27,0,0,0,.17.1.53.53,0,0,0,.22,0h.07s-.05-.05-.07-.07l-.05-.09c0-.07,0-.15-.09-.21s0,0,0,0a.22.22,0,0,1,.19.07.55.55,0,0,1,.08.15s0,.07.06.09l0,.05s0,0,.05,0,0,0,0-.05a.41.41,0,0,0,0-.08.29.29,0,0,1,0-.11s0-.06,0-.08.15.07.21.11.13,0,.14.1a.08.08,0,0,1,0,0,.15.15,0,0,0-.08.13s.07,0,.1,0a.71.71,0,0,1,.37.2c.05,0,.06.06.08.11s0,.07,0,.1a1.5,1.5,0,0,1,0,.22v0s0,0,0,0,.07,0,.08,0V22c0-.06,0-.12,0-.19v0s0-.06,0-.09,0-.05,0-.08a2.46,2.46,0,0,0-.07-.29.64.64,0,0,1,0-.2.28.28,0,0,1,.06-.18s0,0,0,0,0-.05.07-.05.07.12.12.18a.61.61,0,0,1,0,.19.42.42,0,0,0,0,.1.94.94,0,0,1,0,.16,1.48,1.48,0,0,0,0,.37h0v.2l0,0a.1.1,0,0,0,.09,0v-.2s0-.06,0-.09a.07.07,0,0,1,0-.06,2.31,2.31,0,0,1,.14-.19,1.24,1.24,0,0,1,.2-.1l0,0c.06,0,.14,0,.19-.05s0,0,0,0-.06-.07-.09-.11,0,0,0,0a.06.06,0,0,1,0-.07l.1,0s.06,0,.08-.06.08-.06.12,0,0,0,0,.06a.19.19,0,0,1,0,.08c0,.05,0,.08,0,.12s0,0,0,0,0,0,0,0,.05,0,.06-.07a.26.26,0,0,0,.07-.11s0,0,0-.06,0,0,0,0S16,21,16.07,21s0,0,0,0-.08.26-.19.34a0,0,0,0,0,0,.05l0,0s.05,0,.09,0a.77.77,0,0,0,.15,0,.3.3,0,0,0,.15-.05s0,0,0-.06,0,0,0-.05,0-.08,0-.09,0,0-.06,0a.13.13,0,0,1-.09,0s0-.05,0-.07,0-.09.08-.12a.14.14,0,0,1,.13,0s0,.06.05.08a.09.09,0,0,0,0,.07.34.34,0,0,1,0,.1c0,.06,0,.09-.07.13h0a.53.53,0,0,1-.29.12.28.28,0,0,0-.18,0s0,0,0,0a.67.67,0,0,0,.15.06l.16.1h0s.05,0,.06,0,0,0,0,0a.29.29,0,0,1-.31,0l-.13-.15s-.06-.07-.12-.08,0,0,0,0l0,0a.8.8,0,0,1,.08.16s0,.05,0,.06-.05,0-.08,0a.42.42,0,0,0-.2.05h-.08a.07.07,0,0,1,0-.06s0,0,0,0,0-.09.05-.12.06-.09,0-.15,0,0-.06,0a.65.65,0,0,0-.2,0s-.07,0-.1.05l-.12.11s0,.07,0,.09,0,.05,0,.07,0,.08,0,.12L15,22a0,0,0,0,0,0,0h0l.08,0,0,0a.2.2,0,0,0,.08-.19.36.36,0,0,1,0-.09s0,0,.05,0,0,0,.08.08a.14.14,0,0,0,0,.06.4.4,0,0,1-.06.22h0c0,.09-.15.11-.22.16s0,.05,0,.08a.29.29,0,0,0,.13,0,.28.28,0,0,0,.18-.17.06.06,0,0,1,.07,0l.06,0s0,.05,0,.07a.2.2,0,0,1,0,.08l-.05.05a.19.19,0,0,1-.1.05s-.08,0-.1.05a.2.2,0,0,0,.11,0,.26.26,0,0,0,.15,0,.38.38,0,0,0,.17-.16s0,0,0-.08,0-.12.11-.12.06,0,.08.06a.22.22,0,0,1,0,.14c-.06.06-.09.14-.16.19a.49.49,0,0,1-.31.11.5.5,0,0,1-.13,0l-.06,0a.47.47,0,0,1-.26-.2s0-.05,0-.06a.29.29,0,0,0-.13,0s0,0,0,0a2.44,2.44,0,0,0,0,.27c0,.05.08,0,.12,0a.2.2,0,0,1,.15,0c.05,0,0,.08,0,.12a2.26,2.26,0,0,1,0,.26.06.06,0,0,1,0,0,.14.14,0,0,1-.08-.07.32.32,0,0,0-.1-.1h0a.07.07,0,0,0,0,.06s0,0,0,.07a.34.34,0,0,1,.05.14c0,.05,0,.09-.07.13a.05.05,0,0,1-.05,0,.17.17,0,0,1-.12-.1.22.22,0,0,1,0-.14.14.14,0,0,0,.05-.09s0-.06,0-.09h0a.22.22,0,0,0-.12.11s-.05.07-.1.07a.08.08,0,0,1,0,0,.54.54,0,0,1,0-.18c0-.06,0-.13,0-.17a.19.19,0,0,1,.15,0s.09.08.14,0,0-.05,0-.08,0-.08,0-.11,0-.06,0-.1-.07,0-.1,0a.08.08,0,0,0-.08,0s0,.06-.05.09-.11.12-.18.14l0,0-.16,0h0a.64.64,0,0,1-.2,0l-.1-.06a.61.61,0,0,1-.13-.15s0,0,0-.05a.25.25,0,0,1,0-.15l.05-.06h.07c.05,0,.06.08.08.12s0,.07,0,.09a.3.3,0,0,0,.24.18c.05,0,.12,0,.15,0s-.06,0-.09-.05-.14-.07-.16-.14a.24.24,0,0,0,0-.08A.13.13,0,0,1,14,22s0,0,0,.06a.24.24,0,0,0,.18.17.17.17,0,0,0,.12,0s0,0,0-.06,0,0,0,0a.5.5,0,0,1-.17-.11l0,0a.16.16,0,0,1,0-.07s0-.05,0-.06v-.1c0-.05,0-.11.09-.13a0,0,0,0,1,.06,0s0,.06,0,.09a.19.19,0,0,0,0,.18l.08.07a.21.21,0,0,0,.11,0,0,0,0,0,0,0,0h0a.71.71,0,0,0,0-.21.3.3,0,0,0,0-.08.37.37,0,0,0-.16-.17s-.11,0-.16-.06a.2.2,0,0,0-.15,0,.08.08,0,0,0,0,.05s0,0,0,0,0,0,0,0,.09.16,0,.23-.13,0-.19,0-.12,0-.18,0a.1.1,0,0,1,0-.07s0-.06,0-.09,0,0,0-.07,0,0,0,0-.11,0-.16.08-.13.17-.25.17a.26.26,0,0,1-.21-.08c0-.07.07,0,.1-.06a1.28,1.28,0,0,1,.2-.11s.07,0,.09,0,0,0,0,0h0c-.12,0-.26,0-.37-.1a.19.19,0,0,1-.09-.11.26.26,0,0,1,0-.15A.37.37,0,0,1,13,21"/><path class="cls-1" d="M14.65,23.93l-.27-.26c-.23-.23-.52-.17-.55,0,0,.05,0,0,0,0,0-.21.31-.42.63-.12l.3-.3.29.28c.27-.28.76-.14.74.17,0,0,0,0,0,0,0-.25-.3-.3-.57,0l-.3.3.13.13.3-.3.27.27a8.1,8.1,0,0,1,.65-.56c.46-.34,1-.27,1,.1a.24.24,0,0,1-.27.24c-.2,0-.2-.24-.08-.25s0,0,0,0,0,0,0,.06,0,0,0,0a.08.08,0,0,1,.08-.08h0s0,.06.09,0,.06-.06.05-.12-.37-.28-.74,0a.74.74,0,0,1,.5-.1s0,0,0,0a.69.69,0,0,0-.29.12c0,.11,0,.2-.24.21A.46.46,0,0,0,16,24l-.34.31c.48.44.88.23.83-.07a.24.24,0,0,0-.23-.2.17.17,0,0,0-.18.23c0,.06,0,0,0,0a.21.21,0,0,1,.21-.29.27.27,0,0,1,.29.28c0,.31-.39.58-.94.08l-.3.31-.27-.26-.26.25.27.27-.35.35-.42-.41.31-.31-.13-.13-.31.31-.27-.27c-.49.38-.95.12-.95-.16a.25.25,0,0,1,.48-.14s0,0,0,0a.21.21,0,0,0-.38.13c0,.19.32.45.75,0L13.48,24a.62.62,0,0,0-.4-.13c-.14,0-.23-.1-.2-.21a.69.69,0,0,0-.29-.11s0,0,0,0a.76.76,0,0,1,.49.09c-.34-.28-.65-.22-.72-.06s0,.17,0,.18.08,0,.07,0,0,0,0,0,.16.08.1.13,0,0,0,0,.1-.06.07-.1,0,0,0,0,.13.08.1.16a.29.29,0,0,1-.51-.18c0-.22.34-.5.89-.08.1.07.54.47.7.62l.3-.3.27.27.26-.26m-.56.57.26-.27-.13-.12-.26.26Zm.54.54.26-.27-.12-.12-.26.26Zm.07-1.16.25-.26-.12-.12-.26.26Zm.54.54.26-.26L15.37,24l-.26.26Zm-.58,0,.26-.26-.12-.12-.26.26Z"/><path class="cls-1" d="M18.22,16.68c0,.08,0,.1,0,.1s0,0,0-.13a1.75,1.75,0,0,1,.26-.67,1.47,1.47,0,0,1,.51-.49c.11-.07.14-.08.14-.07s0,0-.09.09a1.84,1.84,0,0,0-.46.52,2.91,2.91,0,0,0-.31.65m1.3,3.24c.07.07.08.09.07.1s0,0-.1-.06a2.58,2.58,0,0,1-.38-.37,1,1,0,0,1-.35.07.85.85,0,0,1-.79-.94,1.72,1.72,0,0,1,.19-.9c0-.05.05-.07.05-.06s0,0,0,.1a1.8,1.8,0,0,0-.16.82c0,.58.34.92.75.92a.6.6,0,0,0,.29-.08,3,3,0,0,1-.68-1.88,2.4,2.4,0,0,1,1-2.12c.06-.06.13-.1.14-.09s0,0-.12.14a2.42,2.42,0,0,0-.81,2,3.1,3.1,0,0,0,.56,1.9.91.91,0,0,0,.33-.76c0-.68-.51-1.09-.51-1.71a1.84,1.84,0,0,1,.51-1.31.19.19,0,0,1,.08,0s0,0,0,.08a1.67,1.67,0,0,0-.37,1.07c0,.59.55,1,.55,1.78a1.12,1.12,0,0,1-.51,1,2.51,2.51,0,0,0,.36.37m.06-2.43c0,.05,0,.09,0,.1s0,0-.07-.07a1.25,1.25,0,0,1-.25-.72,1.1,1.1,0,0,1,.25-.71c0-.06.06-.09.07-.08s0,0,0,.11a2,2,0,0,0-.15.68,1.59,1.59,0,0,0,.16.69m-.59.65a.21.21,0,0,0,.19.08,1.44,1.44,0,0,0,0,.46,1,1,0,0,1,0,.42s0,.07,0,.07,0,0,0-.06a.91.91,0,0,0-.07-.4.6.6,0,0,0-.29-.35.31.31,0,0,0,.13-.19.15.15,0,0,1-.17-.11.18.18,0,0,1,.07-.19.27.27,0,0,0-.16-.13,1,1,0,0,0,0-.38,1,1,0,0,1,.06-.49s0,0,0,0,0,0,0,.05a1.38,1.38,0,0,0,0,.39.7.7,0,0,0,.21.41.24.24,0,0,0-.09.16.15.15,0,0,1,.13.12.15.15,0,0,1-.06.17"/><path class="cls-1" d="M10.88,16a2,2,0,0,0-.47-.52c-.09-.07-.1-.09-.09-.09s0,0,.15.07A1.54,1.54,0,0,1,11,16a1.75,1.75,0,0,1,.26.67c0,.1,0,.13,0,.13s0,0-.05-.1a3.35,3.35,0,0,0-.3-.65m-.64,3.52a1.12,1.12,0,0,1-.51-1c0-.75.56-1.19.56-1.78a1.67,1.67,0,0,0-.38-1.07s0-.07,0-.08l.07,0A1.81,1.81,0,0,1,10.47,17c0,.62-.52,1-.52,1.71a.92.92,0,0,0,.34.76,3.17,3.17,0,0,0,.56-1.9,2.45,2.45,0,0,0-.81-2c-.12-.11-.13-.13-.13-.14s.08,0,.15.09a2.42,2.42,0,0,1,1,2.12,3,3,0,0,1-.68,1.88.61.61,0,0,0,.3.08c.4,0,.74-.34.74-.92a1.8,1.8,0,0,0-.16-.82c0-.07-.05-.1,0-.1s0,0,.06.06a1.84,1.84,0,0,1,.18.9.85.85,0,0,1-.78.94,1,1,0,0,1-.36-.07,2.58,2.58,0,0,1-.38.37c-.07.06-.09.07-.1.06s0,0,.08-.1a3.06,3.06,0,0,0,.35-.37M10,16.8a2,2,0,0,0-.15-.68c0-.08-.05-.1,0-.11s.05,0,.08.08a1.16,1.16,0,0,1,.24.71,1.32,1.32,0,0,1-.24.72s-.07.08-.08.07,0-.05,0-.1A1.59,1.59,0,0,0,10,16.8M10.35,18a.15.15,0,0,1,.14-.12.22.22,0,0,0-.1-.16.7.7,0,0,0,.21-.41,1.38,1.38,0,0,0,0-.39s0,0,0-.05,0,0,0,0a1.12,1.12,0,0,1,0,.49,1.17,1.17,0,0,0,0,.38.3.3,0,0,0-.16.13.17.17,0,0,1,.08.19.16.16,0,0,1-.17.11.29.29,0,0,0,.12.19.64.64,0,0,0-.29.35,1.09,1.09,0,0,0-.07.4c0,.05,0,.06,0,.06s0,0,0-.07a1,1,0,0,1,0-.42,1.44,1.44,0,0,0,0-.46.21.21,0,0,0,.19-.08.15.15,0,0,1-.06-.17"/><path class="cls-3" d="M22.56,24.15H15.3v-.9l.27,0A2.91,2.91,0,0,0,16.73,23a.93.93,0,0,0,.51-.85,2.86,2.86,0,0,0-.27-1l-.18-.43-1.07-2.55H11.83l-.6,1.55-.26.63A4.88,4.88,0,0,0,10.52,22a1.19,1.19,0,0,0,.14.56A1.3,1.3,0,0,0,11,23a1.91,1.91,0,0,0,.89.27l.28,0v.88L7,24.19v-1h.28A1.79,1.79,0,0,0,8.06,23a2.39,2.39,0,0,0,.73-.68,6.7,6.7,0,0,0,.51-1c.2-.43.48-1.08.82-1.95l3.71-9.47H15.2l4.36,10.56a12.81,12.81,0,0,0,.89,1.76,2.07,2.07,0,0,0,.62.63,1.53,1.53,0,0,0,.48.23,4.64,4.64,0,0,0,.91.18h.1v.89ZM12,17.74l3.47-.27L13.73,13.3l-1.64,4.17Z"/><path class="cls-6" d="M22.56,24.15H15.3v-.9l.27,0A2.91,2.91,0,0,0,16.73,23a.93.93,0,0,0,.51-.85,2.86,2.86,0,0,0-.27-1l-.18-.43-1.07-2.55H11.83l-.6,1.55-.26.63A4.88,4.88,0,0,0,10.52,22a1.19,1.19,0,0,0,.14.56A1.3,1.3,0,0,0,11,23a1.91,1.91,0,0,0,.89.27l.28,0v.88L7,24.19v-1h.28A1.79,1.79,0,0,0,8.06,23a2.39,2.39,0,0,0,.73-.68,6.7,6.7,0,0,0,.51-1c.2-.43.48-1.08.82-1.95l3.71-9.47H15.2l4.36,10.56a12.81,12.81,0,0,0,.89,1.76,2.07,2.07,0,0,0,.62.63,1.53,1.53,0,0,0,.48.23,4.64,4.64,0,0,0,.91.18h.1v.89ZM12,17.74l3.47-.27L13.73,13.3l-1.64,4.17Z"/><path class="cls-1" d="M17.15,22.35a1.3,1.3,0,0,1-.31.58,10.33,10.33,0,0,1-1.48.52l-.1.06s-.18.18.46.15a2,2,0,0,0,1.14-.33,7.21,7.21,0,0,0,.43-.95Z"/><path class="cls-1" d="M11,21.41l0,0,0,0c-.06,0-.15-.08-.15-.17a.23.23,0,0,1,.08-.17h0s0,0,0,0,0,0,0,0,0,0,0,0,0-.07.05-.08a0,0,0,0,1,.06,0,.06.06,0,0,1,0,.07l-.08.06s0,0,0,0h0s0,0,0,0a0,0,0,0,1,0,0,.13.13,0,0,0,0,.1.06.06,0,0,0,0,.06s.05,0,.07-.07a.28.28,0,0,0,.05-.11s0-.09.09-.11.12,0,.14,0a0,0,0,0,1,0,0s0,.05,0,.05,0,0,0,0a.21.21,0,0,1,.14,0s0,0,0,0,0,0,0,0h-.08a0,0,0,0,0,0,.05s0,0,0,0a.07.07,0,0,1-.07.06l-.12,0h-.13c-.06,0-.1,0-.1.07s0,0,.05.06l.12,0s0,0,0,0v0l0,0h.13s-.06.1-.11.09-.1,0-.1,0,0,0,0,.05,0,0,0,0,0,0,0,0a.15.15,0,0,1-.11-.11.36.36,0,0,1,0-.17s0,0,0,0,0,0,0,0l-.05.06a0,0,0,0,0,0,0,0,0,0,0,0,0,0,.21.21,0,0,1,0,.18.42.42,0,0,1-.15.24.05.05,0,0,0,0,0,.11.11,0,0,0,0,.05.18.18,0,0,0,.08.09h0a0,0,0,0,0,0,0A.13.13,0,0,1,11,22a.1.1,0,0,1,.1-.09.09.09,0,0,1,.1.1.13.13,0,0,1-.12.15.29.29,0,0,1-.28-.29.69.69,0,0,1,.16-.38,0,0,0,0,0,0,0s0,0,0,0a.13.13,0,0,0-.08,0,.06.06,0,0,0-.06,0,.1.1,0,0,0,.05.08l0,0a.14.14,0,0,1-.07-.11.09.09,0,0,1,.1-.08.16.16,0,0,1,.11,0h0s0,0,0,0Zm0,.14s0,0,0,0l-.08.13-.06.16s0,0,0,0,0,0,0,0a.44.44,0,0,0,.11-.12.25.25,0,0,0,0-.17s0,0,0,0"/><path class="cls-1" d="M11.85,22.53l0,0h0a.14.14,0,0,1,.11,0,.08.08,0,0,1,.09.08.15.15,0,0,1-.06.11l0,0a.07.07,0,0,0,.06-.07.06.06,0,0,0-.06,0,.16.16,0,0,0-.09,0s0,0,0,0v0a.68.68,0,0,1,.16.38.3.3,0,0,1-.27.3.13.13,0,0,1-.13-.15c0-.06,0-.1.1-.1a.1.1,0,0,1,.1.09.07.07,0,0,1,0,.05s0,0,0,0h0a.19.19,0,0,0,.09-.09v-.05l0,0a.46.46,0,0,1-.16-.24.3.3,0,0,1,0-.19s0,0,0,0a0,0,0,0,0,0,0l-.06-.06h0a.06.06,0,0,0,0,0,.56.56,0,0,1,0,.18.19.19,0,0,1-.12.11h0a.08.08,0,0,1,0,0,.13.13,0,0,0,0-.05s0,0-.11,0-.13-.05-.11-.09,0,0,.1,0h0s0,0,0,0,0,0,0,0,0,0,0,0l.12,0s.05,0,.05-.06,0-.06-.09-.07a.22.22,0,0,0-.14,0l-.11,0a.09.09,0,0,1-.08-.06.14.14,0,0,1,0-.06s0,0,0,0h-.08s0,0,0,0,0,0,0,0a.14.14,0,0,1,.13,0s0,0,0,0a0,0,0,0,0,0-.05s0,0,0-.05.05,0,.13,0a.15.15,0,0,1,.09.12.58.58,0,0,0,.05.11c0,.05,0,.07.08.07s0,0,0-.07a.13.13,0,0,0,0-.09,0,0,0,0,1,0,0s0,0,0,0,0,0,0,0,0,0,0,0-.06,0-.07-.06a0,0,0,0,1,0-.07.06.06,0,0,1,.07,0l0,.08,0,0a0,0,0,0,0,0,0s0,0,0,0,0,0,0,0a.23.23,0,0,1,.08.16c0,.1-.09.15-.14.18s0,0,0,0v0Zm0,.13a.22.22,0,0,0,0,.16A.38.38,0,0,0,12,23s0,0,.06,0v0a.76.76,0,0,0-.06-.16.6.6,0,0,0-.08-.13s0,0,0,0l0,0"/><path class="cls-1" d="M13.23,20l0,0h0A.14.14,0,0,1,13.4,20a.09.09,0,0,1,.09.08.16.16,0,0,1-.06.12l0,0s.06,0,.06-.07A.06.06,0,0,0,13.4,20a.16.16,0,0,0-.09,0s0,0,0,0a0,0,0,0,1,0,0,.65.65,0,0,1,.16.38.3.3,0,0,1-.27.3.15.15,0,0,1-.13-.15c0-.06,0-.11.1-.11a.11.11,0,0,1,.11.1.08.08,0,0,1,0,.05,0,0,0,0,0,0,0,0,0,0,0,0,0,0s.07,0,.09-.08a.11.11,0,0,0,0-.05l0,0a.45.45,0,0,1-.16-.25.27.27,0,0,1,0-.18s0,0,0,0a0,0,0,0,0,0,0L13.15,20h0s0,0,0,0a.37.37,0,0,1,0,.18.19.19,0,0,1-.12.11h-.05a.08.08,0,0,1,0,0,.18.18,0,0,0,0,0s0,0-.1,0-.13,0-.12-.08h.13a.08.08,0,0,0,0,0v0h0a.16.16,0,0,0,.12,0s.05,0,.05-.07,0-.05-.09-.06a.28.28,0,0,0-.13,0,.27.27,0,0,1-.12,0,.09.09,0,0,1-.08-.06.07.07,0,0,1,0-.06s0,0,0,0h-.09s0,0,0,0,0,0,0,0a.14.14,0,0,1,.13,0s0,0,0,0a0,0,0,0,0,0,0,.07.07,0,0,1,0-.05s.05,0,.13,0a.14.14,0,0,1,.09.12,1.17,1.17,0,0,0,0,.11s.06.07.08.07,0,0,0-.07a.18.18,0,0,0,0-.1s0,0,0,0h0s0,0,0,0,0,0,0,0-.07,0-.08-.06,0-.05,0-.07a0,0,0,0,1,.07,0l0,.08s0,0,0,0a0,0,0,0,0,0,0s0,0,0,0a0,0,0,0,1,0,0,.23.23,0,0,1,.08.16.21.21,0,0,1-.14.18,0,0,0,0,0,0,0,0,0,0,0,0,0,0Zm0,.13a.29.29,0,0,0,0,.16.52.52,0,0,0,.11.13s.05,0,.06,0,0,0,0,0a.76.76,0,0,0-.06-.16.69.69,0,0,0-.07-.13l0,0s0,0,0,0"/><path class="cls-1" d="M14.8,16.14a.5.5,0,0,1,0,.27v0a.86.86,0,0,0-.06.23v0s0,0,.05,0a.15.15,0,0,0,.11-.12h0c0-.11,0-.2,0-.31s0-.05,0-.07a.61.61,0,0,1,.13-.15s.07,0,.1,0,0,.08,0,.09a.3.3,0,0,1,.21,0,.21.21,0,0,1,.13.21s0,.07,0,.1a.11.11,0,0,1-.09.06.1.1,0,0,1-.12,0,.08.08,0,0,1,0-.09s0-.06,0-.07.08,0,.1,0v-.05c0-.06-.07-.07-.12-.07a.38.38,0,0,0-.1,0s-.05,0-.05.06,0,.06-.06.08a.07.07,0,0,0,0,.05s0,0,0,.06,0,.08,0,.11a.27.27,0,0,1-.12.2.42.42,0,0,1-.31,0c-.06,0-.14-.07-.14-.15l0-.07s0,0,0-.06,0-.06,0-.1a.19.19,0,0,1,0-.07l0-.06a.21.21,0,0,0-.15-.09.14.14,0,0,0-.14.08s0,0,0,0a.17.17,0,0,1,.1,0s0,.06,0,.1,0,0-.05.06a.16.16,0,0,1-.15,0,.21.21,0,0,1-.08-.21s0-.06,0-.09l.07-.05a.25.25,0,0,1,.17,0s0,0,0,0a.08.08,0,0,1,0,0s.06,0,.09,0a.37.37,0,0,1,.16.1s0,.05,0,.06,0,0,0,.06,0,.1,0,.14,0,0,0,.06a.52.52,0,0,0,0,.18s0,0,0,0,.06.06.1.05,0-.08,0-.12,0,0,0-.06,0-.13-.05-.2a.31.31,0,0,1,.06-.28s0,0,0-.05h0s0,.09.08.14"/><path class="cls-1" d="M15.26,16.69a.25.25,0,0,1,0,.21s-.05.06-.07.09l-.07,0-.13.06a.77.77,0,0,1-.3,0,.93.93,0,0,1-.24,0l-.09,0c-.06,0-.09-.07-.12-.1s0-.07-.06-.1,0,0,0,0a.2.2,0,0,1,.09-.22s0,0,.06,0,0,.05,0,.07a.15.15,0,0,0,0,.15c0,.05,0,.08.07.11a.69.69,0,0,0,.4.11A1.27,1.27,0,0,0,15,17s.08,0,.1-.07,0,0,0,0,0-.06,0-.08-.07-.12,0-.19.1.06.13.11"/><path class="cls-1" d="M15.86,16.9a.12.12,0,0,1,0,.15.14.14,0,0,1-.12,0c-.09,0-.11-.11-.19-.14s-.09,0-.14,0,0,0,0,0a.35.35,0,0,1,.2-.07.22.22,0,0,1,.25.12"/><path class="cls-1" d="M14,16.91s-.08,0-.11,0l-.1.05s0,.08-.09.09a.12.12,0,0,1-.13,0,.09.09,0,0,1-.06-.08.09.09,0,0,1,0-.1.24.24,0,0,1,.11-.09.39.39,0,0,1,.26,0,.52.52,0,0,1,.11.1"/><path class="cls-1" d="M14.25,17.1s0,0-.06,0,0,0,0,.07,0,.05,0,.07a.17.17,0,0,1-.13.1.11.11,0,0,1-.08,0,.15.15,0,0,1,0-.16.34.34,0,0,1,.08-.09l.07,0s.08,0,.12,0a.17.17,0,0,1,.12,0"/><path class="cls-1" d="M15.56,17.2a.17.17,0,0,1,0,.1h0a.17.17,0,0,1-.1.07c-.09,0-.11-.08-.16-.14s0-.06-.06-.09a.24.24,0,0,0-.09,0s0,0,0,0l.13,0s.07,0,.11,0a.28.28,0,0,1,.16.12"/><path class="cls-1" d="M15.16,17.3a.24.24,0,0,1,0,.17.14.14,0,0,1-.12.08c-.05,0-.09,0-.12-.08s0-.1,0-.15a.15.15,0,0,0,0-.07s0,0,0,0,0,0,.05,0a.26.26,0,0,1,.25.11"/><path class="cls-1" d="M14.54,17.21h0s0,.05,0,.07,0,.13,0,.19a.16.16,0,0,1-.14.08.11.11,0,0,1-.09-.07.41.41,0,0,1,0-.11.33.33,0,0,1,.15-.16.22.22,0,0,1,.16,0"/><path class="cls-1" d="M16.41,17.36a.21.21,0,0,0-.11-.07s-.09,0-.11,0a.12.12,0,0,0,0,.12s0,0,0,0,.11,0,.15,0a.14.14,0,0,1,0,.11.27.27,0,0,1-.16.1.91.91,0,0,1-.23,0s0,0-.07,0,.05,0,.07-.07l.05-.09c0-.06.05-.15.09-.21s0,0,0,0-.15,0-.19.08a.44.44,0,0,0-.08.15s0,.06-.06.09l0,0s0,0-.05,0,0,0,0-.05,0-.06,0-.08a.45.45,0,0,0,0-.11s0-.07,0-.08-.15.06-.21.1-.13,0-.14.1a.08.08,0,0,0,0,0,.17.17,0,0,1,.08.13s-.07,0-.1,0A.64.64,0,0,0,15,18s-.06.06-.08.1,0,.07,0,.1a1.64,1.64,0,0,0,0,.22v.05l0,0s-.07,0-.08,0v-.07c0-.06,0-.12,0-.18v0s0-.06,0-.09,0-.05,0-.08a2.46,2.46,0,0,1,.07-.29.63.63,0,0,0,0-.19.41.41,0,0,0-.05-.19s0,0,0,0,0-.05-.07-.05-.07.12-.12.18a.66.66,0,0,0,0,.2.42.42,0,0,1,0,.1c0,.05,0,.09,0,.15a1.53,1.53,0,0,1,0,.37v.22l0,0a.11.11,0,0,1-.09,0v-.19s0-.06,0-.09a.07.07,0,0,0,0-.06.94.94,0,0,0-.14-.19.58.58,0,0,0-.19-.1s0,0-.06,0-.14,0-.19-.06,0,0,0,0,.06-.07.09-.1,0,0,0,0a.06.06,0,0,0,0-.07s-.07,0-.1,0-.06,0-.08-.06-.08-.06-.12,0,0,0,0,.06a.19.19,0,0,0,0,.08.61.61,0,0,1,0,.13s0,0,0,0,0,0,0,0-.05,0-.06-.07a.26.26,0,0,1-.07-.11s0,0,0-.05,0,0,0-.06-.11-.07-.17-.07,0,0,0,0,.08.26.19.33a0,0,0,0,1,0,0l0,0s0,0-.08,0h-.16a.25.25,0,0,1-.15-.06s0,0,0-.05,0,0,0-.06,0-.07,0-.08,0,0,.05,0a.12.12,0,0,0,.1,0s0,0,0-.07,0-.09-.08-.11a.14.14,0,0,0-.13,0s0,0,0,.07a.09.09,0,0,1,0,.07s0,.08,0,.1,0,.09.06.13h0a.53.53,0,0,0,.29.12.37.37,0,0,1,.18,0,0,0,0,0,1,0,0,.67.67,0,0,1-.15.06l-.16.1h0s-.06,0-.07,0a.05.05,0,0,0,0,0,.31.31,0,0,0,.31,0l.13-.14s.06-.08.12-.09,0,0,0,0l0,0s-.06.1-.08.16,0,0,0,.07.05,0,.08,0a.43.43,0,0,1,.2.06l.08,0s0,0,0-.06,0,0,0,0,0-.09,0-.12-.06-.08-.05-.14,0,0,.06,0l.2.05s.07,0,.1,0a.68.68,0,0,1,.12.12s0,.06,0,.09,0,0,0,.06,0,.08,0,.13,0,0,0,0,0,0,0,0h0l-.08-.05s0,0,0,0a.19.19,0,0,1-.08-.19.36.36,0,0,0,0-.09s0,0-.05,0,0,0-.07.08l0,.07a.37.37,0,0,0,.06.21v0c.05.08.15.1.22.16s0,.05,0,.07a.2.2,0,0,1-.13,0c-.09,0-.14-.09-.18-.17a.08.08,0,0,0-.07,0l-.06,0s0,.05,0,.08a.25.25,0,0,0,0,.07l.05.05a.33.33,0,0,0,.1.06s.08,0,.1,0a.15.15,0,0,1-.11,0,.27.27,0,0,1-.15,0,.3.3,0,0,1-.17-.16s0,0,0-.07,0-.12-.11-.13-.06,0-.08.07a.2.2,0,0,0,0,.13c.06.06.09.15.16.2a.64.64,0,0,0,.31.11l.13,0s.05,0,.06,0a.51.51,0,0,0,.26-.19s0-.05,0-.07a.28.28,0,0,1,.13,0,.05.05,0,0,1,0,.05,2.26,2.26,0,0,1,0,.26c0,.05-.08,0-.12,0a.25.25,0,0,0-.15,0c-.05,0,0,.08,0,.12a2.26,2.26,0,0,0,0,.26s0,0,0,0a.14.14,0,0,0,.08-.07.27.27,0,0,1,.11-.1h0a.05.05,0,0,1,0,.05s0,.05,0,.07a.39.39,0,0,0-.05.14c0,.06,0,.09.07.14a0,0,0,0,0,.05,0c.06,0,.09-.05.12-.09a.22.22,0,0,0,0-.14.19.19,0,0,1-.05-.1s0-.06,0-.08h0a.22.22,0,0,1,.12.11s.05.07.1.06,0,0,0,0a.61.61,0,0,0,0-.19s0-.12,0-.16a.19.19,0,0,0-.15,0s-.09.08-.14,0,0-.05,0-.07,0-.08,0-.11,0-.07,0-.1.07,0,.1,0,.06,0,.08,0,0,.05.05.09a1.24,1.24,0,0,0,.18.14h0l.16,0s0,0,0,0l.2,0,.1-.06a.38.38,0,0,0,.13-.15.08.08,0,0,0,0-.05.25.25,0,0,0,0-.15l-.05-.05s-.05,0-.07,0-.06.07-.08.12,0,.06,0,.08a.31.31,0,0,1-.24.19c-.05,0-.12,0-.15,0a.16.16,0,0,1,.1-.05c.05,0,.13-.08.15-.15a.31.31,0,0,1,0-.08.1.1,0,0,0-.09-.06s0,0,0,.05a.24.24,0,0,1-.18.17.17.17,0,0,1-.12,0,.21.21,0,0,1,0-.06s0,0,0,0a.48.48,0,0,0,.17-.1l0-.05a.21.21,0,0,0,0-.06s0,0,0-.07v-.09a.23.23,0,0,0-.09-.14,0,0,0,0,0-.06,0s0,.06,0,.1a.18.18,0,0,1,0,.17.27.27,0,0,1-.08.07.16.16,0,0,1-.11.05s0,0,0,0h0a1.23,1.23,0,0,1,0-.2.2.2,0,0,1,0-.08.35.35,0,0,1,.16-.18,1,1,0,0,1,.16-.06.38.38,0,0,1,.15,0s0,0,0,.05,0,0,0,0,0,0,0,0-.09.16,0,.24.13,0,.19,0,.12,0,.18,0,0,0,0-.07,0-.06,0-.08a.18.18,0,0,0,0-.07s0,0,0-.05.1.05.15.08.13.18.25.18a.31.31,0,0,0,.21-.09c0-.07-.07,0-.1-.06l-.2-.1s-.07,0-.09,0,0,0,0,0,0,0,0,0a1.56,1.56,0,0,0,.37-.1.19.19,0,0,0,.09-.11.26.26,0,0,0,0-.15.61.61,0,0,0-.05-.12"/><path class="cls-1" d="M16.68,22.86a.11.11,0,0,0,.08,0s0-.06,0-.06-.08,0-.22,0a.23.23,0,0,0,.15.1m.63-.66a.21.21,0,0,1-.18.08.18.18,0,0,1-.12-.05A.21.21,0,0,1,17,22a.94.94,0,0,1-.48.28.11.11,0,0,1,0,.17c-.08.08-.15,0-.16,0s0,0-.05,0,0,.05,0,.07.23.21.37.2a.24.24,0,0,0,.12,0,.06.06,0,0,0,0-.06s0-.05-.06-.07a.11.11,0,0,1,0-.14.14.14,0,0,1,.13-.06.19.19,0,0,1,.19.18.07.07,0,0,1,0,.06,1.75,1.75,0,0,0,.25-.34m0-.36a.74.74,0,0,0,0-.26,2.9,2.9,0,0,1-.2.33c.05,0,.15,0,.15,0s-.07,0-.09.06a0,0,0,0,0,.06.05c.09,0,.1-.12.1-.2m.09-.1a2.25,2.25,0,0,0,0,.26.41.41,0,0,1,0,.16c.12-.2.17-.29.16-.38a.1.1,0,0,0,0-.06s-.05,0-.07,0a.08.08,0,0,0,0,0m.21-.2a.39.39,0,0,0,.11-.31.12.12,0,0,0-.07-.11.11.11,0,0,0-.12,0,.06.06,0,0,0,0,.09.11.11,0,0,1,.06.15.1.1,0,0,1-.08,0,.14.14,0,0,1-.11-.07l0,0a.26.26,0,0,0,0,.19c0,.11.18.1.25,0m-.13-.46.07,0a.23.23,0,0,1-.05,0s0,0,0,0a0,0,0,0,1,0,0m-.12-2c.14,0,.14.07.21.08a0,0,0,0,0,0-.05s0,0-.06-.05a.22.22,0,0,0-.18,0m.39.42a.15.15,0,0,1,0,.06.2.2,0,0,1-.25.09.16.16,0,0,1-.1-.11.1.1,0,0,1,.07-.12s.07,0,.09,0a.09.09,0,0,0,0-.07.34.34,0,0,0-.09-.08.45.45,0,0,0-.43,0,.08.08,0,0,0,0,.07,0,0,0,0,0,.06,0s.12-.08.16,0a.1.1,0,0,1-.1.13,1.16,1.16,0,0,1,.32.46.18.18,0,0,1,.13-.19.17.17,0,0,1,.12,0,.29.29,0,0,1,.14.15,3.19,3.19,0,0,0-.09-.42m-.09.51s-.07,0-.07,0,.08,0,.05.1-.12,0-.15-.05a2.73,2.73,0,0,1,0,.38.61.61,0,0,0,.13-.22.21.21,0,0,0,0-.23m.06.4a0,0,0,0,0,.06,0,.11.11,0,0,0,0-.05.72.72,0,0,0,0-.41.35.35,0,0,1,0,.16c0,.07-.11.18-.11.24s0,0,0,0m-.14.13a.25.25,0,0,0,0,.19l0,0a.13.13,0,0,1,.12,0,.08.08,0,0,1,.05.07.1.1,0,0,1-.11.11.08.08,0,0,0-.05.07.1.1,0,0,0,.1.08.11.11,0,0,0,.11-.07.36.36,0,0,0,0-.32c0-.11-.15-.18-.23-.1m.24.76a3.33,3.33,0,0,1-1.4,2,.61.61,0,0,1-.56,0,.32.32,0,0,1-.2-.28.27.27,0,0,1,.2-.27.31.31,0,0,1,.19,0c.11,0,.13.07.13.07h0a.29.29,0,0,0-.22,0,.25.25,0,0,0-.06.16.28.28,0,0,0,.22.21.38.38,0,0,0,.29,0,.2.2,0,0,1-.14,0s0,0-.06,0a.12.12,0,0,1,0-.16.09.09,0,0,1,.16,0s0,.11.07.12a.08.08,0,0,0,.09,0,.27.27,0,0,0-.08-.33.61.61,0,0,0-.52-.14,2.09,2.09,0,0,0,.57-.4.85.85,0,0,0,.61-.4,2.59,2.59,0,0,0,.26-.51s.05-.15.07-.24,0-.25,0-.25a2.57,2.57,0,0,0,0-.58.88.88,0,0,0-.38-.61,2.3,2.3,0,0,0-.35-.61.62.62,0,0,0,.53.09.28.28,0,0,0,.21-.26.08.08,0,0,0-.07-.07c-.05,0-.07.05-.11.08a.1.1,0,0,1-.15-.08.13.13,0,0,1,.1-.14h.08a.27.27,0,0,1,.13,0,.42.42,0,0,0-.25-.16.27.27,0,0,0-.28.1.17.17,0,0,0,0,.17.27.27,0,0,0,.18.13h0s0,0-.15,0a.42.42,0,0,1-.17-.1.28.28,0,0,1-.07-.33.32.32,0,0,1,.3-.16.54.54,0,0,1,.5.25A3.34,3.34,0,0,1,17.88,21a1.23,1.23,0,0,1,0,.18l-.05.18"/><path class="cls-1" d="M13,22.71c-.15,0-.16,0-.23,0s0,0,0,.06a.12.12,0,0,0,.08,0,.27.27,0,0,0,.16-.1m-.54-.22a.13.13,0,0,1,0,0,.2.2,0,0,1,.19-.19.2.2,0,0,1,.14.06.11.11,0,0,1,0,.14s-.06,0-.06.07a.05.05,0,0,0,0,.06.2.2,0,0,0,.11,0c.14,0,.35-.1.37-.2a.06.06,0,0,0,0-.07,0,0,0,0,0-.06,0s-.08.12-.16,0a.11.11,0,0,1,0-.17,1,1,0,0,1-.48-.27.19.19,0,0,1,0,.22.15.15,0,0,1-.12.05.23.23,0,0,1-.18-.08,1.75,1.75,0,0,0,.25.34m-.13-.5s.07,0,.06,0-.09,0-.09-.07.11-.05.15,0-.14-.22-.2-.33a.76.76,0,0,0,0,.26c0,.08,0,.17.1.2m-.22-.34a.07.07,0,0,0-.07,0,.1.1,0,0,0,0,.06.79.79,0,0,0,.16.38.62.62,0,0,1,0-.16c0-.07,0-.21,0-.26a.08.08,0,0,0,0,0m.07-.16a.28.28,0,0,0,0-.2s0,0,0,0a.13.13,0,0,1-.11.06.09.09,0,0,1-.07,0,.11.11,0,0,1,0-.15.06.06,0,0,0,0-.09.1.1,0,0,0-.12,0,.16.16,0,0,0-.07.11.37.37,0,0,0,.11.31c.07.09.21.1.25,0M12.06,21v0L12,21l.07,0v0M12,19s0,0-.06.05,0,.06,0,.05.07-.05.22-.08A.25.25,0,0,0,12,19m-.29.86a.24.24,0,0,1,.13-.15.19.19,0,0,1,.13,0,.2.2,0,0,1,.13.19.91.91,0,0,1,.32-.45.11.11,0,0,1-.11-.14c0-.11.15,0,.16,0a0,0,0,0,0,.06,0s0-.05,0-.07a.43.43,0,0,0-.42,0,.39.39,0,0,0-.1.08.09.09,0,0,0,0,.07s.05,0,.08,0a.09.09,0,0,1,.07.12.14.14,0,0,1-.09.11.19.19,0,0,1-.25-.09.08.08,0,0,1,0-.05,2.26,2.26,0,0,0-.08.41m.17.32a1,1,0,0,0,.13.23,2.45,2.45,0,0,1,0-.38s-.12.09-.15,0S12,20,12,20s-.05,0-.07,0a.2.2,0,0,0,0,.23m0,.13c0-.06-.08-.17-.11-.24a.57.57,0,0,1,0-.16.83.83,0,0,0,0,.41.11.11,0,0,0,0,.05.08.08,0,0,0,.07,0,.13.13,0,0,0,0-.05m-.11.27a.4.4,0,0,0,0,.32s.06.08.12.08a.11.11,0,0,0,.09-.09.06.06,0,0,0,0-.07.11.11,0,0,1-.12-.11.1.1,0,0,1,0-.07.15.15,0,0,1,.13,0l0,0A.26.26,0,0,0,12,20.5c-.08-.08-.2,0-.23.1m-.06.48,0-.18a3.34,3.34,0,0,1,.44-2.38.62.62,0,0,1,.5-.25.33.33,0,0,1,.3.16.29.29,0,0,1-.06.33.4.4,0,0,1-.18.1c-.1,0-.14,0-.15,0h0a.24.24,0,0,0,.18-.13.17.17,0,0,0,0-.17.26.26,0,0,0-.28-.1.42.42,0,0,0-.25.16.27.27,0,0,1,.14,0h.07a.14.14,0,0,1,.1.14.09.09,0,0,1-.14.08s-.07-.09-.12-.08a.07.07,0,0,0-.06.07c0,.13.09.22.21.26a.63.63,0,0,0,.53-.09,2,2,0,0,0-.35.61.82.82,0,0,0-.38.61,2.31,2.31,0,0,0,0,.58s0,.15,0,.25.07.24.07.24a2.4,2.4,0,0,0,.27.51.81.81,0,0,0,.6.4,2.09,2.09,0,0,0,.57.4.6.6,0,0,0-.52.15.25.25,0,0,0-.08.32.08.08,0,0,0,.09,0s0-.08.07-.12a.1.1,0,0,1,.17,0,.12.12,0,0,1,0,.16s0,0-.06,0a.2.2,0,0,1-.14,0,.39.39,0,0,0,.3,0,.28.28,0,0,0,.21-.21.15.15,0,0,0-.06-.15.25.25,0,0,0-.22,0s0,0,0,0h0s0-.06.13-.08a.35.35,0,0,1,.2,0,.27.27,0,0,1,.19.27.32.32,0,0,1-.2.28.61.61,0,0,1-.56,0,3.41,3.41,0,0,1-1.4-2l-.05-.18"/><path class="cls-3" d="M7.65,23.52l.43-.1c.28,0,.4-.25.62-.38a2.58,2.58,0,0,0,.56-.71h0a5.73,5.73,0,0,0,.55-1q.29-.64.75-1.95l3.61-9.26.71,0,4.23,10.37c.3.79.54,1.36.71,1.7a2.38,2.38,0,0,0,.52.69c.13.1.29.31.45.37a4,4,0,0,0,.88.23v.69H15.15v-.88l.24,0A2.46,2.46,0,0,0,16.44,23a1,1,0,0,0,.45-.85,3.15,3.15,0,0,0-.24-1l-.16-.43-.92-2.34L12,18.29l-.52,1.4-.23.63a5,5,0,0,0-.4,1.65,1.31,1.31,0,0,0,.12.56,1,1,0,0,0,.34.43,1.55,1.55,0,0,0,.8.27l.25,0v.89H7m4.95-5.79,3.76.26L13.75,13.8l-1.5,3.67Z"/><path class="cls-7" d="M7.65,23.52l.43-.1c.28,0,.4-.25.62-.38a2.58,2.58,0,0,0,.56-.71h0a5.73,5.73,0,0,0,.55-1q.29-.64.75-1.95l3.61-9.26.71,0,4.23,10.37c.3.79.54,1.36.71,1.7a2.38,2.38,0,0,0,.52.69c.13.1.29.31.45.37a4,4,0,0,0,.88.23v.69H15.15v-.88l.24,0A2.46,2.46,0,0,0,16.44,23a1,1,0,0,0,.45-.85,3.15,3.15,0,0,0-.24-1l-.16-.43-.92-2.34L12,18.29l-.52,1.4-.23.63a5,5,0,0,0-.4,1.65,1.31,1.31,0,0,0,.12.56,1,1,0,0,0,.34.43,1.55,1.55,0,0,0,.8.27l.25,0v.89H7m4.95-5.79,3.76.26L13.75,13.8l-1.5,3.67Z"/><path class="cls-1" d="M22,23.8H15.48v-.23a3.18,3.18,0,0,0,1.23-.3,1.2,1.2,0,0,0,.62-1.08,3.08,3.08,0,0,0-.28-1.1l-.17-.42-1-2.59L11.66,18,11,19.69l-.25.62A4.93,4.93,0,0,0,10.32,22a1.46,1.46,0,0,0,.16.69,1.5,1.5,0,0,0,.45.52,2.07,2.07,0,0,0,1,.32v.23H7.45v-.23a2.1,2.1,0,0,0,.93-.26,2.68,2.68,0,0,0,.78-.74,5.82,5.82,0,0,0,.62-1.05c.21-.43.47-1.08.81-1.94l3.65-9.41h.57l4.34,10.49a18.64,18.64,0,0,0,.78,1.7,2.51,2.51,0,0,0,.63.77,1.66,1.66,0,0,0,.55.27,4.92,4.92,0,0,0,.92.17Zm-6.26-5.89-2.1-5.17-2,5.17Z"/><path class="cls-8" d="M22,23.8H15.48v-.23a3.18,3.18,0,0,0,1.23-.3,1.2,1.2,0,0,0,.62-1.08,3.08,3.08,0,0,0-.28-1.1l-.17-.42-1-2.59L11.66,18,11,19.69l-.25.62A4.93,4.93,0,0,0,10.32,22a1.46,1.46,0,0,0,.16.69,1.5,1.5,0,0,0,.45.52,2.07,2.07,0,0,0,1,.32v.23H7.45v-.23a2.1,2.1,0,0,0,.93-.26,2.68,2.68,0,0,0,.78-.74,5.82,5.82,0,0,0,.62-1.05c.21-.43.47-1.08.81-1.94l3.65-9.41h.57l4.34,10.49a18.64,18.64,0,0,0,.78,1.7,2.51,2.51,0,0,0,.63.77,1.66,1.66,0,0,0,.55.27,4.92,4.92,0,0,0,.92.17Zm-6.26-5.89-2.1-5.17-2,5.17Z"/><path class="cls-1" d="M12.15,8.45a1.85,1.85,0,0,0,1.4-.14l1,.82c-.14.11-.3.23-.53.38-.59.39-1,.43-1.25.33s-.48-.58-.11-.69a1.22,1.22,0,0,0,.34-.1A.14.14,0,0,0,13,8.84a4.14,4.14,0,0,1-.5.3c-.42.26,0,.95.89.77a3,3,0,0,0,1.28-.63A3,3,0,0,0,16,9.91c.93.18,1.31-.51.89-.77a4.14,4.14,0,0,1-.5-.3.14.14,0,0,0,.06.21,1.22,1.22,0,0,0,.34.1c.37.11.29.55-.11.69s-.66.06-1.25-.33c-.23-.15-.39-.27-.53-.38l1-.82a1.85,1.85,0,0,0,1.4.14c.53-.21.46-.84-.15-.93a2.1,2.1,0,0,0-1.3.55,7.68,7.68,0,0,1-1.11-.87,7.68,7.68,0,0,1-1.11.87,2.1,2.1,0,0,0-1.3-.55c-.61.09-.68.72-.15.93m3.92-.3a2.11,2.11,0,0,1,1-.5c.58,0,.65.5.25.69A1.51,1.51,0,0,1,16,8.19Zm-1.36-.54c.16.11.33.24.5.34l.44.26L14.71,9h0l-.94-.77c.18-.1.34-.19.44-.26s.34-.23.5-.34m-2.39,0a2.11,2.11,0,0,1,1,.5l.05,0a1.5,1.5,0,0,1-1.32.15c-.41-.19-.34-.72.24-.69"/><path class="cls-1" d="M18.12,13a.53.53,0,0,1,.14,0h0s0,0,0,.05l.08,0s.05,0,.05,0a0,0,0,0,0,0,0h-.08a.07.07,0,0,1-.05,0,.14.14,0,0,1,0-.07.08.08,0,0,1,.06,0,.36.36,0,0,1,.21,0,.22.22,0,0,1,.14,0,.22.22,0,0,1,0,.15.15.15,0,0,1,.05.08.17.17,0,0,0,0,.07s0,.06-.07.07a.28.28,0,0,1,0,.14.17.17,0,0,1-.09,0,.34.34,0,0,1,0,.15.21.21,0,0,1-.09,0,.7.7,0,0,1,0,.13.1.1,0,0,1-.09,0c-.05,0,0,.06,0,.06a.27.27,0,0,1,0,.08.11.11,0,0,1-.11,0l-.08-.06a.25.25,0,0,0,0,.1s-.13,0-.11-.13a.2.2,0,0,1-.18,0s0,0,0,0-.15,0-.16-.11a.49.49,0,0,1,.15,0s0,0,0-.08l.1,0a.21.21,0,0,0,.11,0s0,0,0,0h.17s.06,0,.06,0,0,0,0,0,0,0-.05,0h-.25s-.06,0-.07-.08,0,0,0,0a.31.31,0,0,0,.13,0l0,0s0-.06-.05-.08h-.08s-.06,0-.06,0,0-.11,0-.11"/><path class="cls-1" d="M18.25,13.2s0,0,0,.05-.08,0-.09,0a.27.27,0,0,0-.11,0,.21.21,0,0,1-.19,0s-.12-.06,0-.22c0,0,0,0,.06,0v0c0,.05.06.1.14.1s.19,0,.21,0"/><path class="cls-1" d="M17.93,13.68a.53.53,0,0,0-.05.14s0,0,0,0a.15.15,0,0,1-.12-.1.15.15,0,0,1-.06.1s-.09-.06,0-.21,0,0,0,0-.05,0-.06,0a.13.13,0,0,1,0-.17s0,0,0,0-.13,0-.15-.05a.13.13,0,0,1,.09,0h0s0,0,0,0-.17,0-.18-.07v0a.06.06,0,0,1,0-.06s.09,0,.09,0-.07,0-.05-.09a.08.08,0,0,1,.08-.07.06.06,0,0,1,.06,0,.24.24,0,0,1,0,.07s0,0,0,0,0-.08,0-.08.09,0,.11,0a.16.16,0,0,1,0,.12c0,.07-.05.07,0,.17a1.38,1.38,0,0,0,.28.32"/><path class="cls-1" d="M17.25,13.25s0,0,0,.09h0a.13.13,0,0,1-.08,0s.07-.11.07-.11,0,0,0,0"/><path class="cls-1" d="M17.41,13.05s0,0-.05,0,0,0,0,0a.4.4,0,0,0-.07-.07s.11,0,.15,0,0,0,0,0"/><path class="cls-1" d="M17.61,13s.05,0,.07,0,0,0,0,0a.1.1,0,0,0-.07-.1s0,.07,0,.08,0,0,0,0"/><path class="cls-1" d="M18.47,15.36s0-.07,0-.12,0-.05.05,0,0,0,.07.08.07-.15,0-.2a.13.13,0,0,1,.11,0c.07,0,.12-.11.12-.11a.28.28,0,0,1-.12,0s0,0,0,0,0,0,.11,0,.09-.11.09-.11a.38.38,0,0,1-.12,0s0,0,0,0,.13,0,.13-.11a.2.2,0,0,0-.15,0l-.2,0s0,0,0,0a.44.44,0,0,0,.06-.17.38.38,0,0,0,.46,0c.1-.08.23-.22,0-.52a.16.16,0,0,1,0-.17.09.09,0,0,1,.09,0c.06,0,.06.07,0,.12a.13.13,0,0,0,.14-.14.14.14,0,0,0-.13-.15s-.21-.05-.22.15a.14.14,0,0,1,.12-.19.45.45,0,0,0,.17-.08.22.22,0,0,0,.08-.31.39.39,0,0,1,0,.06.29.29,0,0,1-.12.13l-.14.08s-.06,0,.11-.1a.21.21,0,0,0,0-.34s0,.17-.1.22a.56.56,0,0,0-.16.13s0,0,.1-.13.1-.22,0-.24,0,.07-.08.15a.67.67,0,0,0-.19.19.21.21,0,0,0,.06.26.12.12,0,0,0,0,.05.17.17,0,0,0,0,.14s-.17-.07-.19,0a.09.09,0,0,0,0,.1.11.11,0,0,1,.18,0s-.16,0-.16.06,0,0,0,.09,0-.08.16,0-.16,0-.13.12a.13.13,0,0,0,.06.08.06.06,0,0,1,.06-.06s.05,0,.09,0a.14.14,0,0,1,0,.13l0,.06s-.07.13-.26.06a.17.17,0,0,1-.09-.08,1.15,1.15,0,0,1-.2-.46.19.19,0,0,1-.11-.08.23.23,0,0,0,0,.1s-.14,0-.16-.13a.25.25,0,0,1-.18-.08l0,0a.13.13,0,0,1-.09,0,.8.8,0,0,0-.06.17s-.08.08-.31.13c0,0-.11,0-.11-.07a.07.07,0,0,0-.06-.08c-.06,0-.09.08-.09.08s0,0,0,.07,0,0,0,0-.05,0-.1,0a.09.09,0,0,0,0,.08s0,.07.05.08h0a.1.1,0,0,1,.08,0s0,0-.07,0,0,.07,0,.07,0,.08.09.08a.11.11,0,0,0,.1-.08s0-.05.05-.06a0,0,0,0,1,0,0,.18.18,0,0,1,0,.06s.08,0,.13-.13c0,0,0,0,.08,0a.1.1,0,0,0,.16,0s-.07,0-.07-.06,0,0,0,0,.09.1.18,0L18,14s0,0,0,0,.34,0,.42.23c0,0,0,0,0,.11a.71.71,0,0,0-.15.48s0,.06.07,0l.18-.06s0,0,0,0a.39.39,0,0,1-.12.19s0,0-.14,0-.08,0-.11,0a.15.15,0,0,0,0,.06s0,.05.06.05,0,0,0,0-.11,0-.12.05a0,0,0,0,0,0,.06.31.31,0,0,0,.06.06.05.05,0,0,0,.05,0s.05,0,.06-.06,0,0,0,0-.08,0,0,.09.12.08.16,0"/><path class="cls-1" d="M17.64,14.46c.09,0,.07.09.08.1s0,.07.14.08h.22l0-.1c0-.11-.07-.25,0-.32s.23,0,.23,0a1.78,1.78,0,0,1,.17.15l-.07.11a.09.09,0,0,0-.1,0c-.06,0-.05.09-.05.14a.4.4,0,0,1,0,.22.15.15,0,0,1-.13.11.11.11,0,0,0,0-.08s0,0,0,0a.14.14,0,0,1-.14.09.11.11,0,0,0,0-.09s0,0,0,0-.06.12-.17.09a.08.08,0,0,0,0-.09s0,0,0,0,0,0,0,0,0,.07-.09.07-.08-.08-.08-.08a.05.05,0,0,1,0-.05.08.08,0,0,1,.07,0s0,0,0,0,0,0-.05,0-.07,0-.08,0a.13.13,0,0,1,0-.12s0,0,.06,0,0,0,.07,0,0,0,0,0l-.05,0s0-.07.08-.11"/><path class="cls-1" d="M17.59,14.46s0,0,0,0h0l-.09,0a.11.11,0,0,1,.15,0s0,0,0,0"/><path class="cls-1" d="M17.43,14.65v0s0,0,0,0H17.3s0-.08.12-.1,0,0,0,0"/><path class="cls-1" d="M17.49,14.85s0,0,0,.05,0,0,0,0l-.06.05a.15.15,0,0,1,0-.14h0"/><path class="cls-1" d="M18.17,15.06a.2.2,0,0,0,0,0l0,0s-.07,0-.09,0a.1.1,0,0,1,.1-.11s0,0,0,0"/><path class="cls-1" d="M18.12,15.3a.08.08,0,0,0,0,0s0,0,0,0a.36.36,0,0,0-.07.07.12.12,0,0,1,0-.15s0,0,0,0"/><path class="cls-1" d="M18.3,15.41l.05,0s0,0,0,0l0,.08s-.08,0-.07-.11a0,0,0,0,1,0,0"/><path class="cls-1" d="M17.35,13.82l0,0a0,0,0,0,1,0,0s-.07,0-.09,0a.11.11,0,0,1,.14-.06s0,0,0,0"/><path class="cls-1" d="M17.19,14.07l0,0s0,0,0,0l-.1,0s0-.08.09-.13,0,0,0,0"/><path class="cls-1" d="M17.29,14.26a.08.08,0,0,0,0,0s0,0,0,0l0,.05a.11.11,0,0,1,0-.13h0"/><path class="cls-1" d="M11.11,13h-.17s0,0,0,.05a.13.13,0,0,1-.07,0s-.05,0-.05,0a0,0,0,0,1,0,0h.08s0,0,0,0a.07.07,0,0,0,0-.07s-.05,0-.06,0a.33.33,0,0,0-.2,0,.22.22,0,0,0-.14,0s0,0,0,.14a.15.15,0,0,0,0,.08.21.21,0,0,1-.05.08s0,.05.08.06a.34.34,0,0,0,0,.15.15.15,0,0,0,.08,0,.34.34,0,0,0,0,.14.17.17,0,0,0,.08,0s0,.09,0,.13a.08.08,0,0,0,.09,0c.05,0,0,.05,0,.05l0,.08a.15.15,0,0,0,.12,0l.07-.06a.12.12,0,0,1,0,.09s.14,0,.12-.13a.16.16,0,0,0,.17,0,0,0,0,0,1,0,0s.15,0,.16-.1-.11,0-.15,0a.14.14,0,0,0,0-.09h-.1s-.1,0-.11,0l0,0h-.16a.06.06,0,0,1-.06,0s0,0,0,0,0,0,.06,0h.25a.09.09,0,0,0,.07-.08s0,0,0,0-.1,0-.12,0,0,0,0,0,0-.05.05-.07h.08s.06,0,.06,0,0-.1,0-.11"/><path class="cls-1" d="M11,13.21s0,0,0,0,.08,0,.08,0a.24.24,0,0,1,.11,0,.27.27,0,0,0,.2,0s.11-.07,0-.23c0,0,0,0-.06,0v0c0,.05-.06.1-.14.1s-.2,0-.21,0"/><path class="cls-1" d="M11.3,13.69a.93.93,0,0,1,0,.14s0,0,0,0a.13.13,0,0,0,.11-.1.18.18,0,0,0,.07.09s.09-.06,0-.2,0,0,0,0l0,0a.14.14,0,0,0,0-.17s0,0,0,0,.13,0,.15,0a.16.16,0,0,0-.09-.05h0s0,0,0,0,.17,0,.18-.06v-.05a.08.08,0,0,0,0-.06s-.1,0-.1,0,.08-.05.06-.09a.09.09,0,0,0-.08-.08.06.06,0,0,0-.06,0s0,0,0,.07,0,0,0,0,0-.07,0-.08-.1,0-.11,0a.11.11,0,0,0,0,.11c0,.08,0,.07,0,.17s-.27.33-.27.33"/><path class="cls-1" d="M12,13.25s0,0,0,.09l0,0a.13.13,0,0,0,.08,0s-.07-.12-.07-.12h0"/><path class="cls-1" d="M11.81,13.05a.14.14,0,0,1,0,0s0,0,0,0L12,13s-.12,0-.16,0,0,0,0,0"/><path class="cls-1" d="M11.62,13s-.06,0-.07,0,0,0,0,0a.1.1,0,0,1,.06-.1s0,.07,0,.09,0,0,0,0"/><path class="cls-1" d="M10.76,15.36s0-.07,0-.11,0-.05-.05-.05,0,0-.07.09-.07-.15,0-.2a.13.13,0,0,0-.1,0c-.07,0-.12-.1-.12-.1a.28.28,0,0,0,.12,0s0,0,0,0,0,0-.1,0-.09-.11-.09-.11.09,0,.12,0,0,0,0,0-.13,0-.13-.12a.29.29,0,0,1,.15,0l.2,0a0,0,0,0,0,0,0,.91.91,0,0,1-.06-.16.36.36,0,0,1-.45,0c-.1-.08-.23-.22-.05-.52a.13.13,0,0,0,0-.17.07.07,0,0,0-.08,0c-.06,0-.06.08,0,.13s-.12,0-.13-.14a.15.15,0,0,1,.13-.16.18.18,0,0,1,.22.16.14.14,0,0,0-.12-.19.45.45,0,0,1-.17-.08.22.22,0,0,1-.08-.31l0,.06a.4.4,0,0,0,.11.12c.08,0,.14.07.14.09s.07,0-.1-.1A.21.21,0,0,1,10,13s0,.17.09.23a.5.5,0,0,1,.17.13s0,0-.11-.13S10,13,10.11,13a.15.15,0,0,0,.08.15.84.84,0,0,1,.19.2.22.22,0,0,1-.06.26.08.08,0,0,1,0,.05.21.21,0,0,1,0,.13s.16-.06.19,0a.1.1,0,0,1,0,.11.11.11,0,0,0-.18,0s.16,0,.16.06a.12.12,0,0,1,0,.08s0-.07-.16,0,.15,0,.13.13a.1.1,0,0,1-.06.07.06.06,0,0,0-.06-.06.11.11,0,0,0-.09,0,.13.13,0,0,0,0,.12s0,.07,0,.07.07.12.26,0a.28.28,0,0,0,.09-.07,1.15,1.15,0,0,0,.2-.46.23.23,0,0,0,.11-.08.14.14,0,0,1,0,.09s.14,0,.17-.12a.25.25,0,0,0,.18-.08l0,0a.15.15,0,0,0,.08,0,.67.67,0,0,1,.07.17s.07.09.31.13c0,0,.11,0,.1-.06s0-.07.06-.08.09.07.09.07,0,.06,0,.07,0,0,0,0,.05,0,.09,0a.09.09,0,0,1,.05.08s0,.08-.05.09a.05.05,0,0,1,0,0,.17.17,0,0,0-.08,0s0,0,.07,0,0,.06,0,.07a.1.1,0,0,1-.09.07.09.09,0,0,1-.09-.08s0-.05-.05-.05,0,0,0,0a.23.23,0,0,0,0,.07s-.09,0-.13-.13,0-.05-.08,0-.16,0-.16,0,.06,0,.07-.06,0,0,0,0a.14.14,0,0,1-.18,0l.05-.06s0,0,0,0-.35,0-.42.24c0,0,0,0,0,.11a.81.81,0,0,1,.15.48s0,.05-.07,0l-.18-.06s0,0,0,0a.39.39,0,0,0,.12.19s0,0,.14,0,.08,0,.11,0a.22.22,0,0,1,0,.06s0,.05-.06.05,0,0,0,0,.11,0,.12,0a.06.06,0,0,1,0,.07.18.18,0,0,1-.06.05.06.06,0,0,1-.06,0,.16.16,0,0,1-.05-.06s0,0,0,0,.07.05,0,.09-.12.09-.16,0"/><path class="cls-1" d="M11.59,14.47c-.09,0-.08.09-.08.09s0,.08-.14.09h-.22l0-.11a.6.6,0,0,0,0-.31c-.07-.11-.23,0-.23,0a.51.51,0,0,0-.17.15.54.54,0,0,1,.06.11.09.09,0,0,1,.11,0c.06,0,0,.09,0,.14a.37.37,0,0,0,0,.21c0,.12.13.12.13.12a.12.12,0,0,1,0-.09s0,0,0,0a.14.14,0,0,0,.14.09.11.11,0,0,1,0-.09s0,0,0,0,.06.12.16.09a.07.07,0,0,1,0-.08s0,0,0,0,0,0,.06.06,0,.07.09.07.08-.08.08-.08a.07.07,0,0,0,0-.06s-.06,0-.07,0,0,0,0,0,0,0,0,0,.07,0,.08,0,0-.1,0-.12,0,0-.06,0,0,0-.07,0,0,0,0,0l.06,0s.05-.06-.08-.1"/><path class="cls-1" d="M11.64,14.46l0,0a0,0,0,0,0,0,0l.08,0a.1.1,0,0,0-.14,0s0,0,0,0"/><path class="cls-1" d="M11.8,14.65v.06s0,0,0,0a.23.23,0,0,1,.11,0,.12.12,0,0,0-.12-.1s0,0,0,0"/><path class="cls-1" d="M11.74,14.86a.08.08,0,0,1,0,0s0,0,0,0l.06.05a.14.14,0,0,0,0-.14,0,0,0,0,0,0,0"/><path class="cls-1" d="M11.05,15.06l0,0s0,0,0,0l.1,0a.12.12,0,0,0-.1-.11s0,0,0,0"/><path class="cls-1" d="M11.11,15.31l0,0s0,0,0,0l.07.08a.13.13,0,0,0,0-.16s0,0,0,0"/><path class="cls-1" d="M10.92,15.42s0,0-.05,0,0,0,0,0,0,.07,0,.08a.15.15,0,0,0,.07-.12,0,0,0,0,0,0,0"/><path class="cls-1" d="M11.88,13.83l0,0s0,0,0,0l.09,0a.11.11,0,0,0-.14-.06s0,0,0,0"/><path class="cls-1" d="M12,14.07a.21.21,0,0,1,0,.06s0,0,0,0l.1,0a.12.12,0,0,0-.09-.13s0,0,0,0"/><path class="cls-1" d="M11.94,14.27a.08.08,0,0,1,0,0s0,0,0,0l.05.06a.15.15,0,0,0,0-.14s0,0,0,0"/><path class="cls-9" d="M22,23.8H15.4v-.23a3.3,3.3,0,0,0,1.24-.3,1.22,1.22,0,0,0,.62-1.08,3.31,3.31,0,0,0-.28-1.1l-.17-.42-1-2.54-4.23,0-.6,1.59-.25.62A4.93,4.93,0,0,0,10.24,22a1.46,1.46,0,0,0,.16.69,1.5,1.5,0,0,0,.45.52,2.08,2.08,0,0,0,1,.32v.23H7.38v-.23a2.06,2.06,0,0,0,.92-.26,2.68,2.68,0,0,0,.78-.74,6.45,6.45,0,0,0,.63-1.05c.2-.43.47-1.08.8-1.94l3.65-9.41h.57l4.34,10.49a18.64,18.64,0,0,0,.78,1.7,2.51,2.51,0,0,0,.63.77,1.66,1.66,0,0,0,.55.27,5.24,5.24,0,0,0,.93.17Zm-6.27-5.89-2.1-5.17-2,5.17Z"/><path class="cls-1" d="M6.42,17.32c-.32-.23-.33-.39-.33-.45a.11.11,0,0,1,.12-.12c.15,0,.22.27.33.37a.91.91,0,0,1,.8-.52.62.62,0,0,1,.63.59.57.57,0,0,1-.6.57,1.68,1.68,0,0,1-.83-.34.46.46,0,0,0-.07.16,2.9,2.9,0,0,0,1.23.34.18.18,0,0,1,.14-.08A.15.15,0,0,1,8,18a.16.16,0,0,1-.16.17.17.17,0,0,1-.14-.09,2.9,2.9,0,0,0-1.23.34,1,1,0,0,0,.07.18,1.6,1.6,0,0,1,.83-.35.56.56,0,0,1,.6.58.63.63,0,0,1-.63.59.91.91,0,0,1-.8-.52c-.11.09-.18.37-.33.37a.13.13,0,0,1-.12-.13c0-.07,0-.23.34-.46a1.32,1.32,0,0,1-.08-.19c-.11,0-.47.31-.55.31a.16.16,0,0,1-.15-.16c0-.11.07-.24.66-.36a.5.5,0,0,1,0-.16c-.11,0-.71.09-.82.09s-.31,0-.31-.21.2-.22.31-.22.71.09.82.09a.49.49,0,0,1,0-.15c-.59-.13-.66-.26-.66-.35a.16.16,0,0,1,.15-.17c.08,0,.44.28.55.32s.05-.15.07-.21m.77,1.35a.37.37,0,0,1,.11-.26h0a1.26,1.26,0,0,0-.66.38,1,1,0,0,0,.4.41A.67.67,0,0,1,7.17,19c0,.18.13.21.21.21a.42.42,0,0,0,.44-.43.33.33,0,0,0-.3-.36c-.12,0-.16.12-.16.19a.08.08,0,0,1,.07,0,.14.14,0,0,1,.12.12.16.16,0,0,1-.17.17c-.15,0-.19-.14-.19-.24m.36-1.39c0,.07-.08.11-.12.11H7.34a.19.19,0,0,0,.18.19.34.34,0,0,0,.3-.37.41.41,0,0,0-.44-.42c-.08,0-.16,0-.21.2A1,1,0,0,1,7,16.83a1,1,0,0,0-.41.41,1.27,1.27,0,0,0,.67.37.45.45,0,0,1-.11-.26c0-.1.05-.25.2-.25a.17.17,0,0,1,.17.18M7,18.09H7v0c-.14,0-.47,0-.56,0s0,.09,0,.14L7,18.07Zm0-.17a3,3,0,0,1-.55-.15c0,.06,0,.09,0,.13s.42,0,.56,0Z"/><path class="cls-1" d="M8.41,16.85a.45.45,0,0,0,.07.28v0a.41.41,0,0,0-.07.25v.38c.11,0,.17.13.17.19h0s0,0,0,0,0,0,0,0v.11s0,0,0,0a.07.07,0,0,1,0-.05h0a.19.19,0,0,1-.17.17v.38a.45.45,0,0,0,.07.25v0a.54.54,0,0,0-.07.26v.21s0,0,0,0H8.5c0-.08,0-.46.05-.58s-.05-.05-.05-.09a.23.23,0,0,1,.1-.17s0-.09.05-.09,0,0,0,.05-.08.5-.08.74v.21a.11.11,0,0,1,0,.09s0,.06,0,.06-.06,0-.06-.12,0-.05,0-.05H8.41v1.31s.16,0,.16.08-.16.09-.16.09V21c0,.57.05.68.12.79v0a.43.43,0,0,0-.15.29h0a.41.41,0,0,0-.16-.29v0c.09-.11.11-.22.11-.79v-.11s-.15,0-.15-.09.17-.08.17-.08V19.41H8.25s0,0,0,.05-.05.12-.06.12,0,0,0-.06a.41.41,0,0,1,0-.09v-.21a7.37,7.37,0,0,0-.09-.74s0-.05,0-.05,0,.08.05.09.1.1.1.17-.05.07-.05.09,0,.5,0,.58h.07a0,0,0,0,0,0,0v-.21a.61.61,0,0,0-.08-.26v0a.61.61,0,0,0,.08-.25v-.38A.19.19,0,0,1,8.16,18H8.11a0,0,0,0,1,0,.05s0,0,0,0v-.11s0,0,0,0,.06,0,.06,0h0c0-.06.06-.19.17-.19V17.4a.57.57,0,0,0-.08-.25v0a.7.7,0,0,0,.08-.26v-.21a0,0,0,0,0,0,0H8.22c0,.08,0,.46,0,.59s.05,0,.05.08a.29.29,0,0,1-.1.17.44.44,0,0,0-.05.09s0,0,0,0a7.37,7.37,0,0,0,.09-.74v-.2s0-.06,0-.09,0-.07,0-.07.06,0,.06.12,0,0,0,0h.08v-1.3s-.17,0-.17-.09.15-.09.15-.09V15c0-.57,0-.68-.12-.79v0a.39.39,0,0,0,.15-.28h0a.5.5,0,0,0,.16.28v0c-.08.11-.11.22-.11.79v.11s.16,0,.16.09-.16.09-.16.09v1.3h.07s0,0,0,0,0-.12.06-.12,0,0,0,.07a.15.15,0,0,1,0,.09v.2c0,.24.08.7.08.74s0,0,0,0-.05-.07-.05-.09a.22.22,0,0,1-.1-.17s.05-.07.05-.08-.05-.51-.05-.59H8.44s0,0,0,0ZM8.19,18a.13.13,0,0,0,.14.14V18Zm.22,0v.14l.08,0a.15.15,0,0,0,0-.11ZM8.33,18v-.14a.15.15,0,0,0-.1,0,.16.16,0,0,0,0,.1Zm.2,0a.16.16,0,0,0-.12-.14V18Z"/><path class="cls-1" d="M21.1,15.12l0,0a1.38,1.38,0,0,0,.44.24,1.21,1.21,0,0,0,.68.06c.14,0,.3-.11.3-.27a.23.23,0,0,0-.1-.21,1,1,0,0,0-.52-.18,1.51,1.51,0,0,0-.86.18L21,15a1.4,1.4,0,0,1-.26-.39.89.89,0,0,1-.07-.36,1.06,1.06,0,0,1,.19-.59,1.67,1.67,0,0,1,1.4-.68c1,0,1.43.92.83,1.34a1,1,0,0,1-.51.17,1,1,0,0,1-.87-.27.51.51,0,0,1-.06-.61.51.51,0,0,0-.05.62,1,1,0,0,0,.91.4.85.85,0,0,0,.77-1.23,1.38,1.38,0,0,0-1.51-.49,1.52,1.52,0,0,0-.78.46,1.25,1.25,0,0,0-.26.41,1.2,1.2,0,0,0-.08.56A1.16,1.16,0,0,0,21,15L21,15a1,1,0,0,0-.33.46.9.9,0,0,0,0,.4s0,0,0,0a.94.94,0,0,1,.48-.78m.13-.08a1.64,1.64,0,0,1,.58-.18,1.06,1.06,0,0,1,.61.07.2.2,0,0,1,.12.15.12.12,0,0,1-.06.13.27.27,0,0,1-.14.07,1.68,1.68,0,0,1-.67,0,1.19,1.19,0,0,1-.51-.21l.07,0"/><path class="cls-1" d="M14.49,11.74a.13.13,0,0,0-.17-.07.14.14,0,0,0-.07.17.12.12,0,0,0,.17.07.12.12,0,0,0,.07-.17"/><path class="cls-1" d="M14.93,12.22a.44.44,0,0,1-.36-.14c-.05-.05-.05-.08,0-.07a.27.27,0,0,0,.15,0,.19.19,0,0,0,.1-.23.11.11,0,0,0-.16-.07c-.07,0-.06.13,0,.16s0,.05,0,.06a.24.24,0,0,1-.17,0s0,0,0,0a.23.23,0,0,1-.12.12s-.06,0,0,0-.07-.12-.13-.1a.12.12,0,0,0-.07.17.18.18,0,0,0,.23.09.18.18,0,0,0,.12-.1s0,0,0,.07a.41.41,0,0,1-.17.35s-.08.07,0,.13a.12.12,0,0,0,.19,0,.61.61,0,0,0,.06-.42s0,0,0,0v0a.73.73,0,0,0,.34.26.11.11,0,0,0,.17-.1c0-.08,0-.09-.1-.08"/><path class="cls-1" d="M14.68,13c.07,0,.17,0,.19.07s0,.07,0,.11a.14.14,0,0,0,0,.09.12.12,0,0,0,.15.07.14.14,0,0,0,.07-.16.14.14,0,0,0-.07-.06s-.06,0-.08-.07,0-.13.09-.18,0-.15-.11-.11c.11,0,.08-.14,0-.15s-.16,0-.18-.07a.11.11,0,0,1,0-.11.14.14,0,0,0,0-.09.12.12,0,0,0-.15-.07.12.12,0,0,0-.06.16l.06.06s.07,0,.08.07,0,.13-.08.18,0,.15.1.11c-.1,0-.07.14,0,.15"/><path class="cls-1" d="M15.15,13.12a.68.68,0,0,0-.06.42s0,0,0,0l0,0a.64.64,0,0,0-.33-.26.12.12,0,0,0-.18.1c0,.08,0,.09.1.08a.42.42,0,0,1,.36.14c.06.05.05.08,0,.07a.31.31,0,0,0-.16,0,.2.2,0,0,0-.1.23.13.13,0,0,0,.17.08c.06,0,.05-.13,0-.16s0-.05,0-.07a.27.27,0,0,1,.18,0s0,0,0,0a.24.24,0,0,1,.13-.12s0,0,0,0,.06.13.13.1a.12.12,0,0,0,.06-.17.17.17,0,0,0-.22-.09.18.18,0,0,0-.12.1s0,0,0-.07a.45.45,0,0,1,.16-.35s.09-.07,0-.12a.11.11,0,0,0-.19,0"/><path class="cls-1" d="M15.33,13.85a.12.12,0,0,0-.17-.07.13.13,0,0,0-.07.17.13.13,0,0,0,.24-.1"/><path class="cls-1" d="M15.77,14.33a.42.42,0,0,1-.36-.14c-.05,0-.05-.08,0-.07a.22.22,0,0,0,.15,0,.17.17,0,0,0,.1-.22.12.12,0,0,0-.16-.08.11.11,0,0,0,0,.16s0,0,0,.07a.24.24,0,0,1-.17,0s0,0,0,0a.27.27,0,0,1-.12.12c-.05,0-.06,0-.06,0S15,14,15,14a.12.12,0,0,0-.07.17.19.19,0,0,0,.23.09.21.21,0,0,0,.12-.1s0,0,0,.07a.46.46,0,0,1-.17.35s-.09.07,0,.12a.12.12,0,0,0,.2,0,.63.63,0,0,0,.06-.43v0h0a.69.69,0,0,0,.34.27.12.12,0,0,0,.17-.1c0-.08,0-.09-.1-.08"/><path class="cls-1" d="M15.52,15.15c.07,0,.17,0,.19.07a.21.21,0,0,1,0,.11.13.13,0,0,0,0,.09.11.11,0,0,0,.15.06.12.12,0,0,0,.07-.15.11.11,0,0,0-.07-.06.14.14,0,0,1-.08-.07s0-.13.09-.18,0-.15-.11-.11c.11,0,.08-.14,0-.15s-.17,0-.18-.07a.11.11,0,0,1,0-.11.14.14,0,0,0,0-.09.12.12,0,0,0-.15-.07.11.11,0,0,0-.06.15.14.14,0,0,0,.06.07s.07,0,.08.07,0,.13-.08.18,0,.15.1.11c-.1,0-.07.14,0,.15"/><path class="cls-1" d="M16,15.23a.77.77,0,0,0-.07.42s0,0,0,0l0,0a.64.64,0,0,0-.33-.26c-.1,0-.16,0-.18.1s0,.09.1.08a.42.42,0,0,1,.36.14c.05,0,.05.08,0,.07a.31.31,0,0,0-.16,0,.19.19,0,0,0-.1.23.11.11,0,0,0,.16.07c.07,0,.06-.13,0-.16s0,0,0-.06a.24.24,0,0,1,.17,0s0,0,0,0a.24.24,0,0,1,.13-.12s.05,0,.05,0,.06.12.13.1a.13.13,0,0,0,.06-.17.17.17,0,0,0-.22-.09.21.21,0,0,0-.12.09s0,0,0-.06a.42.42,0,0,1,.16-.35c.05,0,.09-.08,0-.13a.12.12,0,0,0-.19.05"/><path class="cls-1" d="M16.17,16a.12.12,0,0,0-.17-.07.13.13,0,0,0-.07.17.13.13,0,0,0,.17.07.12.12,0,0,0,.07-.17"/><path class="cls-1" d="M16.61,16.44a.42.42,0,0,1-.36-.14c-.05-.05-.05-.08,0-.08a.18.18,0,0,0,.16,0,.17.17,0,0,0,.1-.22.12.12,0,0,0-.16-.08.11.11,0,0,0,0,.16s0,.05,0,.07a.24.24,0,0,1-.17,0s0,0,0,0a.2.2,0,0,1-.12.11c-.05,0-.06,0-.06,0a.1.1,0,0,0-.13-.1.11.11,0,0,0-.06.16.19.19,0,0,0,.23.1.21.21,0,0,0,.12-.1s0,0,0,.07a.42.42,0,0,1-.17.34s-.09.08,0,.13.15,0,.2,0a.66.66,0,0,0,.06-.42s0,0,0,0h0a.75.75,0,0,0,.34.27.12.12,0,0,0,.17-.1c0-.09,0-.09-.1-.08"/><path class="cls-1" d="M16.36,17.26c.07,0,.17,0,.19.07a.15.15,0,0,1,0,.11.14.14,0,0,0,0,.09.11.11,0,0,0,.15.06.12.12,0,0,0,.07-.15.11.11,0,0,0-.07-.06.14.14,0,0,1-.08-.07s0-.13.08-.18,0-.15-.1-.11c.11,0,.07-.15,0-.15s-.17,0-.18-.07a.11.11,0,0,1,0-.11.14.14,0,0,0,0-.09.12.12,0,0,0-.22.08.46.46,0,0,0,.07.07.09.09,0,0,1,.08.07s0,.13-.08.18,0,.15.1.11c-.1,0-.07.14,0,.15"/><path class="cls-1" d="M16.82,17.34a.76.76,0,0,0-.06.42s0,0,0,0,0,0,0,0a.63.63,0,0,0-.34-.26.12.12,0,0,0-.17.1c0,.08,0,.09.1.08a.41.41,0,0,1,.36.13c0,.05,0,.08,0,.08a.31.31,0,0,0-.16,0,.19.19,0,0,0-.1.23.12.12,0,0,0,.16.07c.07,0,.06-.13,0-.16s0-.05,0-.06a.24.24,0,0,1,.17,0h0a.21.21,0,0,1,.13-.12s.05,0,.05,0,.06.12.13.1a.13.13,0,0,0,.06-.17.18.18,0,0,0-.23-.09c-.09,0-.09.07-.12.09s0,0,0-.06a.45.45,0,0,1,.17-.35c.05,0,.09-.08,0-.13a.12.12,0,0,0-.2.05"/><path class="cls-1" d="M17,18.07a.14.14,0,0,0-.17-.08.13.13,0,0,0-.07.17.14.14,0,0,0,.17.08.13.13,0,0,0,.07-.17"/><path class="cls-1" d="M17.45,18.55a.42.42,0,0,1-.36-.14c-.05-.05-.05-.08,0-.08a.18.18,0,0,0,.16,0,.18.18,0,0,0,.1-.22.12.12,0,0,0-.16-.08.11.11,0,0,0,0,.16s0,.05,0,.06a.17.17,0,0,1-.17,0h0a.21.21,0,0,1-.13.12s-.05,0-.05,0-.06-.12-.13-.09a.11.11,0,0,0-.06.16.19.19,0,0,0,.23.1.25.25,0,0,0,.12-.1s0,0,0,.06a.45.45,0,0,1-.17.35c-.05,0-.09.08,0,.13s.15,0,.2-.05a.67.67,0,0,0,.06-.42s0,0,0,0h0a.73.73,0,0,0,.34.26.11.11,0,0,0,.17-.09c0-.09,0-.09-.1-.08"/><path class="cls-1" d="M17.2,19.36c.07,0,.17,0,.18.08a.09.09,0,0,1,0,.1.17.17,0,0,0,0,.1.11.11,0,0,0,.15.06.12.12,0,0,0,.07-.15.13.13,0,0,0-.07-.06s-.07,0-.08-.08,0-.12.08-.17,0-.16-.1-.11c.1-.05.07-.15,0-.15s-.17,0-.19-.08a.16.16,0,0,1,0-.1.15.15,0,0,0,0-.09.11.11,0,0,0-.15-.07.12.12,0,0,0-.07.15.11.11,0,0,0,.07.06.13.13,0,0,1,.08.08s0,.12-.08.17,0,.16.1.11c-.11.05-.07.15,0,.15"/><path class="cls-1" d="M17.66,19.45a.75.75,0,0,0-.06.42s0,0,0,0h0a.59.59,0,0,0-.34-.26c-.09,0-.15,0-.17.09s0,.09.1.09a.41.41,0,0,1,.36.13c0,.05,0,.08,0,.08a.2.2,0,0,0-.26.23.12.12,0,0,0,.16.08.11.11,0,0,0,0-.16s0-.05,0-.06a.2.2,0,0,1,.17,0h0a.21.21,0,0,1,.13-.12s.05,0,.05,0a.1.1,0,0,0,.13.09.11.11,0,0,0,.06-.16.19.19,0,0,0-.23-.1.21.21,0,0,0-.12.1s0,0,0-.06a.42.42,0,0,1,.17-.35c.05,0,.09-.08,0-.13a.12.12,0,0,0-.2.05"/><path class="cls-1" d="M17.85,20.18a.14.14,0,0,0-.17-.08.13.13,0,0,0-.07.17.13.13,0,0,0,.17.08.14.14,0,0,0,.07-.17"/><path class="cls-1" d="M18.29,20.65a.41.41,0,0,1-.36-.13c-.05-.05-.05-.08,0-.08a.18.18,0,0,0,.16,0,.19.19,0,0,0,.1-.23.12.12,0,0,0-.17-.07c-.06,0-.05.13,0,.16s0,.05,0,.06a.24.24,0,0,1-.17,0h0a.24.24,0,0,1-.13.12s-.05,0-.05,0-.06-.12-.13-.1a.13.13,0,0,0-.06.17.18.18,0,0,0,.22.1.25.25,0,0,0,.12-.1s.05,0,0,.06a.42.42,0,0,1-.16.35c-.05,0-.09.08,0,.13a.12.12,0,0,0,.19-.05.67.67,0,0,0,.07-.42s0,0,0,0,0,0,0,0a.75.75,0,0,0,.33.26.12.12,0,0,0,.18-.09c0-.09-.05-.1-.1-.09"/><path class="cls-1" d="M18,21.47c.06,0,.17,0,.18.07a.11.11,0,0,1,0,.11.14.14,0,0,0,0,.09.12.12,0,1,0,.22-.08.46.46,0,0,0-.07-.07s-.07,0-.08-.07,0-.13.08-.18,0-.15-.1-.1c.1,0,.07-.15,0-.16s-.17,0-.19-.07a.21.21,0,0,1,0-.11.13.13,0,0,0,0-.09.11.11,0,0,0-.15-.06.12.12,0,0,0-.07.15.11.11,0,0,0,.07.06A.14.14,0,0,1,18,21s0,.13-.09.18,0,.15.11.11c-.11,0-.08.15,0,.15"/><path class="cls-1" d="M18.5,21.56a.73.73,0,0,0-.06.42v0h0a.65.65,0,0,0-.34-.27.12.12,0,0,0-.17.1c0,.09,0,.09.1.08a.42.42,0,0,1,.36.14c.05.05.05.08,0,.08a.16.16,0,0,0-.15,0,.17.17,0,0,0-.1.22.12.12,0,0,0,.16.08.11.11,0,0,0,0-.16s0-.05,0-.06a.17.17,0,0,1,.17,0l0,0a.2.2,0,0,1,.12-.11c.05,0,.06,0,.06,0s.06.12.12.09a.11.11,0,0,0,.07-.16.19.19,0,0,0-.23-.1.21.21,0,0,0-.12.1s0,0,0-.07a.42.42,0,0,1,.17-.34c.05,0,.09-.08,0-.13a.12.12,0,0,0-.2,0"/><path class="cls-1" d="M18.69,22.28a.13.13,0,0,0-.17-.07.12.12,0,0,0-.07.17.12.12,0,0,0,.17.07.13.13,0,0,0,.07-.17"/><path class="cls-1" d="M19.13,22.76a.42.42,0,0,1-.36-.14c-.06,0-.05-.08,0-.07a.27.27,0,0,0,.15,0,.18.18,0,0,0,.1-.23.11.11,0,0,0-.16-.07c-.06,0-.05.13,0,.16s0,.05,0,.06a.27.27,0,0,1-.18,0h0a.24.24,0,0,1-.13.12s-.05,0-.05,0-.06-.12-.13-.1a.12.12,0,0,0-.06.17.17.17,0,0,0,.22.09.21.21,0,0,0,.12-.09s.05,0,0,.06a.42.42,0,0,1-.16.35c-.05,0-.09.08,0,.13a.12.12,0,0,0,.19-.05.61.61,0,0,0,.06-.42s0,0,0,0,0,0,0,0a.7.7,0,0,0,.33.26.12.12,0,0,0,.18-.1c0-.08-.05-.09-.1-.08"/><path class="cls-1" d="M19.1,23.19c-.07,0-.17,0-.19-.07s0-.07,0-.11a.13.13,0,0,0,0-.09.11.11,0,0,0-.15-.06.12.12,0,0,0-.07.15.11.11,0,0,0,.07.06s.06,0,.08.07,0,.13-.09.18,0,.15.11.11l.21-.09c.11,0,.08-.14,0-.15"/><path class="cls-1" d="M20.94,16.94c-5.76.44-10.27.77-12,1.13,1.86.38,6.37.71,12,1.14-.13.27-.45.57-.72.37-.07,0-.21-.07-.16.08.21.58,1.16.36,1.34-1.3a.8.8,0,0,1,.23,0,4.65,4.65,0,0,0,1.86,0c.17,0,.32-.08.39,0a.86.86,0,0,0,.73.36.84.84,0,0,0,.78-.44c0-.09.1-.13.15-.12a.12.12,0,0,0,.14-.1.13.13,0,0,0-.14-.09c-.05,0-.11,0-.15-.12a.92.92,0,0,0-1.51-.08c-.07.1-.22.06-.39,0a4.66,4.66,0,0,0-1.86,0,.58.58,0,0,1-.23,0c-.18-1.66-1.13-1.89-1.34-1.3,0,.14.09.13.16.08.27-.2.59.1.72.37"/><path class="cls-3" d="M25,18.06h0s-.05,0-.07,0,0,0,0,0-.08,0-.11,0-.06,0-.05,0,0,0,0,0l0,0s0,0,0,0,0,0,0,0,0,0,0,0h.05s0,0,.06.05v.06l-.1.07s0,0-.06,0a.38.38,0,0,1-.1,0s0,0,0,0,0,0-.05,0l0,0s0-.08,0-.12,0,0,0,0a.14.14,0,0,1,0,.06s0,0,0,.05,0,0-.07,0l0,0a.1.1,0,0,1-.05,0h0l0,0v0l.1,0a.57.57,0,0,1,.13-.08.17.17,0,0,0-.12,0h-.07s0,0,0,0h0a.23.23,0,0,1-.07-.07.09.09,0,0,1,0-.06l.06,0s0,0,0-.05h0l.08.06s0,0,.05,0l0,0s0,0,0,0l-.07,0s0,0,0,0l0,0h0l0-.05s0,0,0,0h0s0,0,0,0v0h0s0,0,0,0h0s0,.05,0,.07a.12.12,0,0,1,0,.08s0,0,0-.06l0,0v0a.34.34,0,0,1,.06-.06s0,0,0,0,0,0,0,0l0,0s0,0,.06,0h0s0,0,0,0l0,0v0s-.05,0-.07,0,0,0,0,0h0a0,0,0,0,0,0,0h0l0,0H25l0,0h0s0,0,0,0"/><path class="cls-3" d="M24.94,18.31l0,0h0a.05.05,0,0,0,0,0s0,0,0-.05h0s0,0,.05,0v0L25,18.13a.25.25,0,0,1-.12,0l0,0a0,0,0,0,1,0,0s0,0,0,0,0,0-.06,0a.24.24,0,0,0,.09,0,.6.6,0,0,1,.08.08v0"/><path class="cls-3" d="M24.79,17.67l0,0h.08s0,0,0,0H25v0s0,0,0,0h0l.06,0s0,0,0,0,0,0,0,0h0a.81.81,0,0,0-.1-.09l-.17-.09h0s0,0,0,0a.27.27,0,0,1-.13,0,1,1,0,0,0-.3,0,.29.29,0,0,1-.14.05.61.61,0,0,1-.14.1.58.58,0,0,1-.1.12A.35.35,0,0,0,24,18s0,0,0,0,0,.07,0,.1,0,0,0,.06h0c0,.08.07.15.09.23l.07.07,0,0s0,0,0,0l.05,0h.09s0,0,0,0h0c-.07,0-.1-.11-.16-.15s0,0,0-.07l0,0s0,0,0,0,0,0,0,0,0,0,0,0,0,0,0-.08,0,0,0,0,0-.09,0-.13,0,0,0,0a2.48,2.48,0,0,0,.26-.19h0a.41.41,0,0,0,.11-.07s.06,0,.07,0,0,0,.05,0v0s.06,0,.09,0,0,0,0,0h0s.05,0,.07,0"/><path class="cls-3" d="M24.9,18.62h0s0,0,0,0h-.11a.15.15,0,0,1-.09,0h0s0,0,0,0a.3.3,0,0,0-.16,0l0,0-.12,0,0,0a0,0,0,0,1,0,0s.05,0,.06,0h.06s.06,0,.08,0h.07s0,0,0,0,.09,0,.13,0a.32.32,0,0,1,.14,0s0,0,0,0h0l.06-.05h0s.05,0,.07,0h0s.05,0,.07,0,0,0,0,0,0,0,0,0v0s0,0,.05,0v0s0,0,0,0h0s0,0,0,0,0-.07,0-.1,0,0,.05,0a.35.35,0,0,1,0,.14h0s0,0,0,0,0,0,0,0a0,0,0,0,1,0,0h0l0,0c0,.06-.08.08-.1.13l-.17.11Z"/><path class="cls-1" d="M23.83,18.17s0,0,0,0,0,0,0,0a0,0,0,0,0,0,0l0,0,0,0s0,0,0,0a.14.14,0,0,0,0-.06s0,0,0,0l0,0a0,0,0,0,0,0,0s0,0,0,0h0s0,0,0,0l0,0s0,.05,0,.07l0,0"/><path class="cls-3" d="M23.71,18.23l0,0,0,0,0,0h0s0,0,0,0l0,0h-.14l0,0s0,0-.06,0,0,0,0,0h0s0,0,0,0,0,0,0,0h0l0,0s0,0,0,0v.07s0,0,0,0l0,0s0,0,0,0,0,0,0,0,0-.05,0-.07,0,.07,0,.1,0,0,.06,0,0,0,.05,0l.1-.06h.05s0,0,0,0h.06v0h0l.07,0h0l-.05,0h0s0,0,0,.05l0,0,0,0h0a.1.1,0,0,1,.07,0"/><path class="cls-1" d="M23.6,18.08s0,0,.06.05h0s0,0,0,0l0,0s0,0,0,0h0v0s0,0,0,0v0s0,0,0,0,0,0,0,0h0s0,0,0,0,0,0,.05,0"/><path class="cls-3" d="M23,18.27s0,0,0,0h0l0,0h0s0,0,.05,0,0,0,.05,0,0,0,0,0h0s0-.08,0-.11h0c-.05,0,0,0,0,0h0s0,0,0,0h0s0,0,0,0-.05,0-.07,0,0,0,0,0,0,0,0,0,0,0,0,0h0v0l0,0s0,0,0,.07,0,0,0,0,0,0-.06,0l-.08.06h0s0,0,0,0,0,0,.06,0a.09.09,0,0,0,.07,0l0,0H23"/><path class="cls-3" d="M22.63,18.37s0,0,0,0a0,0,0,0,0,0,0s0,0,.08,0,.06,0,.09,0l0,0s0,0-.05,0-.05,0-.08,0l-.14-.07h0s0,0,0,.08h0s0,0,.07,0"/><path class="cls-3" d="M22.66,18s-.06,0-.07,0h0s0,0,0,0a0,0,0,0,0,0,0v0s0,0,.05,0,0,0,0,0,0,0,0,0,0,0,0,0l0,0s0,0,0,0l0,0s0,0,0,0,0,0,0,0"/><path class="cls-3" d="M22.28,18.22l0,0h.05s0,0,0,0h0l0,0s0,0,0,0,0,0-.07,0v0h0s0,0,0,0h-.06s0,0,0,0,0,0,0,0,0,0,0,0h0s0,0,0,0,0,0,.05,0h0l0,0,.1-.05"/><path class="cls-1" d="M21.17,18.06h0l0,0v0s0,0,0,0l0,0h0l0,0s0,0,0,0Z"/><path class="cls-1" d="M21.27,18.13s0,0,0,0,0,0,.05,0v0l0,0v0s-.08,0-.11,0,0,0,0,0,0,0,0,0"/><path class="cls-1" d="M21.28,18h0s.07,0,.11,0h0s0,0,0-.05l-.07,0"/><path class="cls-1" d="M21.27,17.89s0,0,0,0h0s0,0,0,0,0,0,0,0"/><path class="cls-3" d="M21.14,19.19s0,0,0-.06a.4.4,0,0,0,.11-.14s0-.12,0-.12,0-.09.06-.1,0-.05,0-.08v0l0,0v0s0-.1,0-.12a.34.34,0,0,0,0-.09.43.43,0,0,0,0-.05s0,0,0-.06,0,0,0,0h0l0,0s0,0,0,0l0,0,.07,0s-.06,0-.07,0h0s0,0,0,0h0s0,0,0,0,0,0-.06,0,0,0,0,0,0,0,0,0,0,0,0,0l0,0s0,0,0,0v0s0,0-.06,0l0,0s0,0,0,0h0s0,0,0,0,.05,0,.06,0h0s0,0,0,.05,0,0,0,0l0,0h0s0,0,0,0,0,0,0,0-.05,0-.06,0,0,0,0,0h0s0,0,0,0h0v0a.05.05,0,0,0,0-.05s0,0,0,0h0s0,0,0,0,0,0,0,0v0l0,0s0,0,0,0,0,0,0,0,0,.12,0,.18a0,0,0,0,0,0,0s0,0,0,0h0l0,0a.26.26,0,0,0,0,.17l0,0a.4.4,0,0,1,0,.15s0,0,0,.06v0c-.05.09-.12.17-.16.26h0l-.06.11h0a.06.06,0,0,1,0,.05l0,0s0,0,0,0h0a0,0,0,0,0,0,0s0,0,0,0,0,0,0,0h0s0,0,0,0,0,0,0,0,0,0,0,0a0,0,0,0,0,0,0s0,0,0,0l-.05-.05-.06.05h0s-.05,0-.06,0v0h0s0,0,0,.05,0,0,0,0,0,0,0,0l-.07.08s0,0,0,0,0,0,0,0,0,0,0,0,0,0,0,0l-.09,0,0,0c0,.05,0,.09,0,.09s0,0,0,0,0,0,.05,0,.11,0,.12,0,.1,0,.1,0a.26.26,0,0,1,.06-.08.27.27,0,0,1,.1,0s.06,0,.08,0,0,0,0,0,0,0,0,0,.06,0,.06-.06,0-.07,0-.09.05,0,.06,0,.07,0,.07,0,0,0,0,0,0-.06,0-.1a.25.25,0,0,0,.05-.11.56.56,0,0,1,0-.1"/><path class="cls-10" d="M21.14,19.19s0,0,0-.06a.4.4,0,0,0,.11-.14s0-.12,0-.12,0-.09.06-.1,0-.05,0-.08v0l0,0v0s0-.1,0-.12a.34.34,0,0,0,0-.09.43.43,0,0,0,0-.05s0,0,0-.06,0,0,0,0h0l0,0s0,0,0,0l0,0,.07,0s-.06,0-.07,0h0s0,0,0,0h0s0,0,0,0,0,0-.06,0,0,0,0,0,0,0,0,0,0,0,0,0l0,0s0,0,0,0v0s0,0-.06,0l0,0s0,0,0,0h0s0,0,0,0,.05,0,.06,0h0s0,0,0,.05,0,0,0,0l0,0h0s0,0,0,0,0,0,0,0-.05,0-.06,0,0,0,0,0h0s0,0,0,0h0v0a.05.05,0,0,0,0-.05s0,0,0,0h0s0,0,0,0,0,0,0,0v0l0,0s0,0,0,0,0,0,0,0,0,.12,0,.18a0,0,0,0,0,0,0s0,0,0,0h0l0,0a.26.26,0,0,0,0,.17l0,0a.4.4,0,0,1,0,.15s0,0,0,.06v0c-.05.09-.12.17-.16.26h0l-.06.11h0a.06.06,0,0,1,0,.05l0,0s0,0,0,0h0a0,0,0,0,0,0,0s0,0,0,0,0,0,0,0h0s0,0,0,0,0,0,0,0,0,0,0,0a0,0,0,0,0,0,0s0,0,0,0l-.05-.05-.06.05h0s-.05,0-.06,0v0h0s0,0,0,.05,0,0,0,0,0,0,0,0l-.07.08s0,0,0,0,0,0,0,0,0,0,0,0,0,0,0,0l-.09,0,0,0c0,.05,0,.09,0,.09s0,0,0,0,0,0,.05,0,.11,0,.12,0,.1,0,.1,0a.26.26,0,0,1,.06-.08.27.27,0,0,1,.1,0s.06,0,.08,0,0,0,0,0,0,0,0,0,.06,0,.06-.06,0-.07,0-.09.05,0,.06,0,.07,0,.07,0,0,0,0,0,0-.06,0-.1a.25.25,0,0,0,.05-.11A.56.56,0,0,1,21.14,19.19Z"/><path class="cls-3" d="M21.13,17.25s0,0,0,0l.06,0a0,0,0,0,0,0,0h0a.24.24,0,0,0-.06-.08s0,0,0,0,0,0,0,0,0,0,0,0l0,0a.08.08,0,0,0-.07,0s0,0,0,0a0,0,0,0,1,0,0s0,0,0,0,0,0,.05-.07l0,0,0,0s0,0,0,0,0,0,0,0h0s0,0,0,0v0s0,0,.06,0a0,0,0,0,0,0,0s0,0,0,0A.18.18,0,0,0,21,16.7v0s0,0-.06-.05,0,0,0,0,0,0,0-.05a0,0,0,0,1,0,0h0a0,0,0,0,0,0,0h0s0,0,0,0,0,0,0,0v0l0,0h0a0,0,0,0,1,0,0l0,0h0s-.05,0-.06,0,0,0,0,0v0h0a0,0,0,0,1,0,0s0,0,0,0h0s0,0,0,0h0a0,0,0,0,1,0,0s0,0,0,0a0,0,0,0,1-.05,0s0,0,.05,0,0,0,0,0h0s0,0,0,0l-.17,0s-.08,0-.12,0l-.06,0-.07.06,0,0s0,0,0,0a0,0,0,0,0,0,0l0,0a.16.16,0,0,0,0,.1s0,0,0,0,.05,0,.07,0,.08,0,.11,0l0,0h.05l.09,0,.09.08s0,0,0,0v0s0,0,0,0a1.7,1.7,0,0,0,.15.22S21,17,21,17l0,0s0,0,0,0,0,0,0,0,0,0,0,0l.07.18"/><path class="cls-10" d="M21.13,17.25s0,0,0,0l.06,0a0,0,0,0,0,0,0h0a.24.24,0,0,0-.06-.08s0,0,0,0,0,0,0,0,0,0,0,0l0,0a.08.08,0,0,0-.07,0s0,0,0,0a0,0,0,0,1,0,0s0,0,0,0,0,0,.05-.07l0,0,0,0s0,0,0,0,0,0,0,0h0s0,0,0,0v0s0,0,.06,0a0,0,0,0,0,0,0s0,0,0,0A.18.18,0,0,0,21,16.7v0s0,0-.06-.05,0,0,0,0,0,0,0-.05a0,0,0,0,1,0,0h0a0,0,0,0,0,0,0h0s0,0,0,0,0,0,0,0v0l0,0h0a0,0,0,0,1,0,0l0,0h0s-.05,0-.06,0,0,0,0,0v0h0a0,0,0,0,1,0,0s0,0,0,0h0s0,0,0,0h0a0,0,0,0,1,0,0s0,0,0,0a0,0,0,0,1-.05,0s0,0,.05,0,0,0,0,0h0s0,0,0,0l-.17,0s-.08,0-.12,0l-.06,0-.07.06,0,0s0,0,0,0a0,0,0,0,0,0,0l0,0a.16.16,0,0,0,0,.1s0,0,0,0,.05,0,.07,0,.08,0,.11,0l0,0h.05l.09,0,.09.08s0,0,0,0v0s0,0,0,0a1.7,1.7,0,0,0,.15.22S21,17,21,17l0,0s0,0,0,0,0,0,0,0,0,0,0,0Z"/><path class="cls-1" d="M21.2,17.61s0,0,0,0,0,0,0,0,0,0,0,0,0,0,0,0,0,0,0,0,0,.05,0,.07,0,0,0-.05h0a0,0,0,0,0,0,0h0v0"/><path class="cls-1" d="M21.24,17.41v.05h0s0,0,0,0h0s0,0,0,0,0,0-.05,0v0l0,0h0s0,0,0,0,0,.06,0,.09,0,0,0,0Z"/><path class="cls-3" d="M20.28,17.2s0,.05,0,.07h.17a.61.61,0,0,1,.18.09s0,0,0,.05,0,0-.05,0,0,0-.05,0-.07,0-.1,0l-.06,0a0,0,0,0,0,0,0s-.07,0-.1,0-.08,0-.11.05a.1.1,0,0,0,0,.05.27.27,0,0,0,0,.09s0,0,.07,0,.09,0,.11,0,0,0,0,0,0,0,0,0,0,0,0-.05a.17.17,0,0,1,.06,0s0,0,0,0a.45.45,0,0,1,.12-.06s0,0,.05,0h.12s0,0,.06,0,.05,0,.09,0a.39.39,0,0,1,.1.08s0,0,0,0-.09,0-.12,0a0,0,0,0,0,0,0s0,0,.06.05,0,0,0,0,0,0,0,.07l0,0s0,0,0,.07,0,0,0,.05,0,0,0,.05a.07.07,0,0,1,0,0,0,0,0,0,0,0,0s0,0,0,0-.12,0-.09,0a.22.22,0,0,1,0,.11s0,0,0,.07l0,0a.09.09,0,0,1,0,.05s0,0,0,0a.27.27,0,0,1-.08.07l0,0a.14.14,0,0,0,0-.06,0,0,0,0,0,0,0,.47.47,0,0,0-.05-.1s0,0,0-.07h0s0,0-.06-.05,0,0,0-.05,0,0,0-.05l0,0s0,0,0,0h-.14l-.05,0s0,0,0-.06,0,0,0,0,0-.06.05-.07l0,0s0,0,0,0l.05,0s.08,0,.11,0h.06s.06,0,.08.06a.09.09,0,0,1,0,.05s0,0,0,0h0a.16.16,0,0,1,0,.1s0,0,0,.05l0,0h0s0-.05,0-.08,0-.07,0-.11,0,0,0,0,0-.05,0-.08l-.08-.07-.11,0s0,0-.06,0-.06,0-.09,0a.11.11,0,0,0-.08,0s-.05,0-.08,0-.06,0-.1,0h0s0,0,0,0a.29.29,0,0,1-.1,0,.05.05,0,0,0,0-.05l0,0v0s0,0,0-.05,0,0,0-.06,0,0,0,0,0,0,0,0l0,0s0,0,0,0,0,0,0,0h0l.05,0,0,0s0,0,.05,0,0,0,.05,0h.09l.1,0a0,0,0,0,0,0,0s0,0,0,0h-.1s0,0,0,0H20.2l-.06,0a.11.11,0,0,0-.08,0s0,0,0,0-.06.05-.08.09a0,0,0,0,0,0,0s0,0,0,0,0,0,0,0,0,.05,0,.07v.1s0,0,0,0v0l0,.05s0,0,0,0,0,.05,0,.07,0,0,0,0,0-.06-.05-.08a.22.22,0,0,0-.11-.05s0,0,0,0l0,0s0,0,0,0,0,0,0,0,0-.05,0-.08h0s0-.05,0-.07,0-.08,0-.1,0,0,0-.05a.08.08,0,0,1,0-.06s0,0,0,0v0s0,0,0,0,0,0,0,.05,0,0,0,0l0,0h0s0-.06.06-.1.05,0,.05,0a.1.1,0,0,1,.07,0l.05,0,.1,0h.08a.08.08,0,0,1,.09,0"/><path class="cls-3" d="M19.49,17.61s0,0,0,.06,0,0,0,0a.05.05,0,0,0,0,0s0,0,.05.06,0,.05,0,.09a.1.1,0,0,0,0,0l0,0s0,0,0,0,0,0,.07,0a.08.08,0,0,0,.08,0s0,0,0,0,0,0,0,0,0,0,0,0,0,.05,0,.07h0a.16.16,0,0,1-.09.05h0l-.1,0s0,0,0,0l0,0s0,0,0,0,0,0,0-.05l0,0s0,0,0-.08,0,0,0-.05,0,0,0,0,0,0,0,0h0l0,0s0,0,0,.07,0,0,0,0,0,.06,0,.09h0s0,0,0,0,0,0,0,0,0,0,0,0,0,0,0,0,0,0,.07.06.06,0,.1.06a.8.8,0,0,0,.15,0s0,0,0,0,0,0,.07,0,0,0,.07,0,.06,0,.08,0,0,0,0,0,0,0-.05,0,0,0,0,0,0,.05,0,.07,0,0,0,.07l0,0s0,0,0,0l-.06,0s0,0,0,0H19.6a.06.06,0,0,1-.07,0s0,0-.05,0l-.08,0,0,0s-.05,0,0,0v0c.06,0,.1,0,.16,0s0,0,0,0h0c0-.05-.12-.08-.16-.12a.86.86,0,0,1-.07-.1s0,0,0-.05l0-.1s0,0,0,0,0,0,0,0v0s0,0,0,0,0,0,0-.05h0l0,0s0,0,0,0,0-.05,0-.08,0,0,0-.05h0a.05.05,0,0,1,0,0s0,0,0,0,0-.06.06-.08l0,0h0"/><path class="cls-3" d="M20.38,18.16s.06,0,.08.06.07,0,.11,0,0,0,0,0a.05.05,0,0,0,0,0,1.31,1.31,0,0,0,.12.11,0,0,0,0,0,0,0s0,0,0,0,0,0,0,0,0,0,0,.06,0,0,0,0,0,0,0,.05,0,0,0,0a0,0,0,0,1,0,0s0,0,0,0a0,0,0,0,1,0,0s0,0,0,0l0,0s0,0-.05,0a.07.07,0,0,1-.06,0h0v0a.08.08,0,0,1,0-.05s0,0,0-.05l0,0s0,0,0,0,0,0,0,0-.05.07-.1.08,0,0,0,0h0a.37.37,0,0,1-.18.05s-.06,0-.09,0-.05,0-.06,0H20a0,0,0,0,1,0,0s0,0,0,0,0,0,0,0-.09,0-.14,0H19.8c-.05,0-.07,0-.12,0a.07.07,0,0,0-.05,0l0,0h0s0,0,0,0,0,0,0,0l.08,0s0,0,0,0a.15.15,0,0,0,.1,0l0,0a.3.3,0,0,0,.08,0,.21.21,0,0,1,.1,0,.24.24,0,0,0,.08-.06s0-.07,0-.1,0,0,0,0,0,0,0,0,.05,0,.08,0l.05,0s0,0,0,.05l0,0s0,0,0,0a.13.13,0,0,0,0,.06s0,0,0,0a.05.05,0,0,0,0,0s0,0,0,0l-.05,0s0,0-.05,0l0,0s-.05,0-.07,0-.08,0-.1,0,0,0,0,0,0,0,.05,0,.05,0,.06,0h.09c.05,0,.08,0,.12,0a.27.27,0,0,0,.08-.07s0,0,0,0,0,0,0-.05v0s0,0,0,0l0,0s0-.08,0-.11h0s0,0,0-.05,0-.05-.05-.09,0,0,0,0,0,0,0,0h0s0,0,0,0"/><path class="cls-3" d="M18,17.41s0,.05,0,.05h.13c.06,0,.09.05.14.07s0,0,0,0,0,0,0,0,0,0,0,0-.06,0-.08,0l-.05,0h0a.15.15,0,0,0-.07,0l-.09,0,0,0v.07s0,0,.05,0,.07,0,.09,0a.05.05,0,0,0,0,0s0,0,0,0,0,0,0,0l.05,0,0,0s.07,0,.1-.05,0,0,0,0h.09s0,0,.05,0,0,0,.07,0l.08.07h0s-.06,0-.09,0,0,0,0,0,0,0,0,0,0,0,0,0l0,.05,0,0s0,0,0,.05,0,0,0,0,0,0,0,0a.06.06,0,0,1,0,0h0s0,0,0,0-.09,0-.07,0a.15.15,0,0,1,0,.09s0,0,0,0,0,0,0,0,0,0,0,0,0,0,0,0,0,0-.06.05h0l0-.05v0a.12.12,0,0,0,0-.08s0,0,0-.05h0s0,0-.05,0,0,0,0,0l0,0,0,0s0,0,0,0h-.15s0,0,0,0,0,0,0,0,0,0,0-.05l0,0h.06s.07,0,.1,0h0s.05,0,.06.05l0,0h0s0,.05,0,.08,0,0,0,0,0,0,0,0h0s0,0,0-.06,0-.05,0-.08a0,0,0,0,1,0,0s0,0,0-.06a.12.12,0,0,0-.05-.05l-.09,0s0,0,0,0h-.14s0,0-.06,0-.05,0-.08,0h0s0,0,0,0-.05,0-.07,0l0,0s0,0,0,0,0,0,0,0,0,0,0,0,0,0,0-.05v0s0,0,0,0a0,0,0,0,0,0,0,0,0,0,0,1,0,0s0,0,0,0h.06l0,0s0,0,0,0,0,0,0,0h.07l.07,0s0,0,0,0a0,0,0,0,0,0,0h-.08s0,0,0,0h-.16a.07.07,0,0,0-.06,0s0,0,0,0,0,0-.06.07h0s0,0,0,0,0,0,0,.06v.08s0,0,0,0v0s0,0,0,.05h0s0,.05,0,.06a0,0,0,0,1,0,0s0,0,0-.06a.13.13,0,0,0-.09,0l0,0,0,0s0,0,0,0,0,0,0,0a.09.09,0,0,1,0-.06h0s0,0,0-.06,0-.05,0-.07a.06.06,0,0,0,0,0,.09.09,0,0,1,0-.05h0v0h0a.06.06,0,0,1,0,0v0h0a0,0,0,0,0,0,0,.18.18,0,0,1,.05-.07s0,0,0,0a.09.09,0,0,1,.05,0h0l.08,0h.06a.06.06,0,0,1,.07,0"/><path class="cls-3" d="M17.38,17.73s0,0,0,.05,0,0,0,0,0,0,0,0,0,0,0,0l0,.06a.1.1,0,0,0,0,0s0,0,0,0l0,0s0,0,.06,0,.05,0,.06,0l0,0s0,0,0,0,0,0,0,0,0,0,0,.06h0l-.07,0h0l-.08,0,0,0,0,0s0,0,0,0l0,0s0,0,0,0,0,0,0-.07,0,0,0,0,0,0,0,0,0,0,0,0,0,0,0,0l0,0a0,0,0,0,1,0,.05s0,0,0,0a.09.09,0,0,0,0,.07h0a0,0,0,0,0,0,0l0,0v0s0,0,0,0,0,.05.05.05a.18.18,0,0,0,.08.05l.13,0h.07s0,0,.06,0l.06,0,0,0,0,0s0,0,0,0,0,0,0,.05,0,0,0,.06l0,0s0,0,0,0,0,0-.05,0l0,0h-.2l-.07,0s0,0,0,0,0,0,0,0a0,0,0,0,1,0,0s.07,0,.12,0,0,0,0,0h0s-.09-.06-.12-.09a.35.35,0,0,1-.05-.08s0,0,0,0a.24.24,0,0,1,0-.08,0,0,0,0,1,0,0h0s0,0,0,0,0,0,0,0h0l0,0,0,0s0,0,0-.06a0,0,0,0,1,0,0s0,0,0,0a0,0,0,0,1,0,0s0,0,0,0,0,0,.05-.06,0,0,0,0h0"/><path class="cls-3" d="M18.08,18.16s0,0,.07.05l.08,0h0l0,0s.06.06.09.08a0,0,0,0,1,0,0s0,0,0,0,0,0,0,0,0,0,0,0,0,0,0,0,0,0,0,0,0,0,0,0,0,0,0,0,0,0,0,0v0h0l0,0,0,0s0,0,0,0h0v0a.08.08,0,0,1,0,0s0,0,0,0,0,0,0,0,0,0,0,0a0,0,0,0,0,0,0s0,.06-.08.07,0,0,0,0h0a.28.28,0,0,1-.13,0s-.05,0-.07,0,0,0-.05,0,0,0,0,0v0l0,0s0,0,0,0-.07,0-.11,0h0s-.06,0-.1,0l0,0,0,0h0s0,0,0,0h.1s0,0,0,0l.08,0h0l.07,0a.11.11,0,0,1,.08,0s0,0,0-.05a.08.08,0,0,0,0-.08s0,0,0,0,0,0,0,0h.06s0,0,0,0,0,0,0,0,0,0,0,0,0,0,0,0a.07.07,0,0,0,0,.05s0,0,0,0l0,0s0,0,0,0l0,0,0,0h0s0,0,0,0-.06,0-.07,0,0,0,0,0,0,0,0,0h.12a.14.14,0,0,0,.09,0s.05,0,.07-.05a0,0,0,0,0,0,0l0,0v0a0,0,0,0,0,0,0s0,0,0,0a.14.14,0,0,0,0-.09h0s0,0,0,0a.43.43,0,0,1,0-.07v0s0,0,0,0h0s0,0,0,0"/><path class="cls-3" d="M16.08,17.54s0,0,0,0,0,0,0,0h.07s.07,0,.11.05,0,0,0,0,0,0,0,0h0s0,0-.06,0l0,0s0,0,0,0l-.06,0s-.05,0-.07,0l0,0v.06s0,0,0,0,.05,0,.07,0,0,0,0,0,0,0,0,0,0,0,0,0l0,0h0l.08,0s0,0,0,0h.07s0,0,0,0,0,0,.06,0l.06,0s0,0,0,0-.05,0-.07,0a0,0,0,0,0,0,0s0,0,0,0,0,0,0,0l0,0s0,0,0,0,0,0,0,0,0,0,0,0,0,0,0,0a0,0,0,0,1,0,0h0s0,0,0,0-.07,0-.06,0a.08.08,0,0,1,0,.07.06.06,0,0,1,0,0s0,0,0,0,0,0,0,0h0a.1.1,0,0,1-.05,0s0,0,0,0a0,0,0,0,0,0,0s0,0,0,0a.09.09,0,0,0,0-.06s0,0,0-.05h0l0,0,0,0s0,0,0,0h0s0,0,0,0h-.11a0,0,0,0,1,0,0s0,0,0,0,0,0,0,0h.07s.05,0,.07,0h0s0,0,0,0l0,0h0a.07.07,0,0,1,0,.06s0,0,0,0v0h0s0,0,0-.05,0,0,0-.07,0,0,0,0,0,0,0-.05l0,0-.07,0s0,0,0,0h-.11s0,0,0,0,0,0-.06,0h0l-.06,0s0,0,0,0h0v0s0,0,0,0,0,0,0,0,0,0,0,0v0a0,0,0,0,0,0,0l0,0,0,0H16s0,0,0,0h.11l.07,0s0,0,0,0l0,0H16l-.05,0h0s0,0,0,.06a0,0,0,0,0,0,0h0s0,0,0,0,0,0,0,0v.06s0,0,0,0v0s0,0,0,0h0s0,0,0,.05,0,0,0,0,0,0,0-.05l-.07,0h0l0,0a0,0,0,0,1,0,0s0,0,0,0,0,0,0-.05h0v0s0-.05,0-.06a0,0,0,0,0,0,0s0,0,0,0h0s0,0,0,0,0,0,0,0a0,0,0,0,1,0,0s0,0,0,0,0,0,0,0h0l0-.06s0,0,0,0l0,0H16a.06.06,0,0,1,.06,0"/><path class="cls-3" d="M15.59,17.8s0,0,0,0,0,0,0,0,0,0,0,0,0,0,0,0a.09.09,0,0,1,0,.05s0,0,0,0a0,0,0,0,1,0,0s0,0,0,0,0,0,0,0a0,0,0,0,0,.05,0s0,0,0,0h0v0s0,0,0,.05h0s0,0-.06,0h0l-.06,0h0l0,0s0,0,0,0l0,0s0,0,0,0,0,0,0-.05a0,0,0,0,0,0,0v0s0,0,0,0h0a0,0,0,0,0,0,0s0,0,0,0v0s0,0,0,.05h0s0,0,0,0,0,0,0,0h0a0,0,0,0,1,0,0s0,0,0,0l.06,0,.1,0h0s0,0,0,0,0,0,0,0l0,0h0l0,0a0,0,0,0,0,0,0s0,0,0,0,0,0,0,.05h0s0,0,0,0l0,0h-.19l-.05,0h0s0,0,0,0h0s.06,0,.1,0,0,0,0,0h0l-.1-.07,0-.06s0,0,0,0,0,0,0-.06,0,0,0,0h0v0s0,0,0,0a0,0,0,0,1,0,0h0a0,0,0,0,0,0,0s0,0,0,0,0,0,0,0v0h0s0,0,0,0v0a.07.07,0,0,1,0-.05s0,0,0,0,0,0,0,0"/><path class="cls-3" d="M16.14,18.14s0,0,.05,0l.07,0h0s0,.05.07.07v0s0,0,0,0v0s0,0,0,0,0,0,0,0v0a0,0,0,0,0,0,0l0,0v0h0a0,0,0,0,1,0,0l0,0h0v0s0,0,0,0a0,0,0,0,1,0,0l0,0h0l0,0s0,0,0,.05l0,0h0a.17.17,0,0,1-.1,0s0,0-.06,0h-.06a0,0,0,0,1,0,0l0,0a0,0,0,0,0,0,0s-.06,0-.09,0h0s0,0-.07,0l0,0s0,0,0,0h.09a.06.06,0,0,0,.06,0h0s0,0,.05,0l.07,0,0,0a.09.09,0,0,0,0-.07s0,0,0,0,0,0,0,0H16l0,0s0,0,0,0l0,0s0,0,0,0v0s0,0,0,0a0,0,0,0,0,0,0l0,0h0s0,0,0,0h-.07s-.05,0-.06,0,0,0,0,0,0,0,0,0h0s0,0,.05,0l.08,0,.05-.05s0,0,0,0,0,0,0,0h0v0h0a.09.09,0,0,0,0-.07h0s0,0,0,0,0,0,0-.05,0,0,0,0,0,0,0,0h0l0,0"/><path class="cls-3" d="M14.42,17.67s0,0,0,0,0,0,0,0h0s0,0,0,0,.06,0,.09,0l0,0s0,0,0,0h0l-.05,0h0s0,0,0,0l0,0,0,0s0,0,0,0,0,0,0,0,0,0,0,0,0,0,0,0,0,0,0,0,0,0,0,0a0,0,0,0,1,0,0,0,0,0,0,1,0,0l.06,0h.08s0,0,0,0,0,0,.05,0l0,0h0l0,0s0,0,0,0l0,0h0s0,0,0,0,0,0,0,0,0,0,0,0v0h0s-.06,0-.05,0a.13.13,0,0,1,0,.06,0,0,0,0,1,0,0s0,0,0,0l0,0h0l0,0h0a0,0,0,0,1,0,0h0s0,0,0-.05l0,0h0l0,0a0,0,0,0,1,0,0s0,0,0,0h-.13v0h0s0,0,0,0h0s0,0,.06,0h0s0,0,0,0a0,0,0,0,1,0,0h0s0,0,0,.05,0,0,0,0h0s0,0,0,0,0,0,0-.05,0,0,0,0l0,0,0,0-.06,0h-.11l0,0h-.13v0s0,0,0,0,0,0,0,0a0,0,0,0,1,0,0s0,0,0,0,0,0,0,0,0,0,0,0h0a0,0,0,0,1,0,0l0,0h.07s0,0,0,0h.1s0,0,0,0h-.16l0,0h0s0,0,0,0h0s0,0,0,0,0,0,0,0v.05s0,0,0,0h0s0,0,0,0h0s0,0,0,0,0,0,0,0,0,0,0,0l-.06,0,0,0h0s0,0,0,0l0,0s0,0,0,0h0s0,0,0,0a.11.11,0,0,1,0-.05v0l0,0h0v0h0s0,0,0,0v0h0s0,0,0,0,0,0,0,0l0,0h.15"/><path class="cls-3" d="M14,17.78s0,0,0,0a0,0,0,0,1,0,0s0,0,0,0l0,0s0,0,0,0v0a0,0,0,0,1,0,0h0l0,0h0a0,0,0,0,0,0,0h0v0s0,0,0,0h0l-.05,0h0l0,0a0,0,0,0,1,0,0h0s0,0,0,0,0,0,0,0h0s0,0,0,0a0,0,0,0,0,0,0h0s0,0,0,0h0s0,0,0,0h0s0,0,0,0h0s0,0,0,0h0a0,0,0,0,0,0,0s0,0,0,0l.05,0h.12s0,0,0,0l0,0a0,0,0,0,0,0,0h0s0,0,0,0a.08.08,0,0,0,0,0,0,0,0,0,0,0,0s0,0,0,0H14l0,0h0s0,0,0,0h0s0,0,.07,0,0,0,0,0h0L14,18.11s0,0,0-.05,0,0,0,0,0,0,0,0,0,0,0,0h0s0,0,0,0,0,0,0,0h0v0h0s0,0,0,0v0h0s0,0,0,0,0,0,0,0a0,0,0,0,1,0,0s0,0,0,0a0,0,0,0,1,0,0"/><path class="cls-3" d="M14.46,18l0,0h.08l.05.05v0h0s0,0,0,0v0s0,0,0,0v0s0,0,0,0h0s0,0,0,0a0,0,0,0,1,0,0h0a0,0,0,0,1,0,0l0,0h0a0,0,0,0,1,0,0s0,0,0,0h0v0s0,0,0,0l0,0h0a.08.08,0,0,1-.08,0s0,0,0,0h-.05a0,0,0,0,1,0,0l0,0s0,0,0,0,0,0-.06,0h0s0,0-.06,0l0,0s0,0,0,0h0s0,0,0,0h0s0,0,0,0l0,0h0a0,0,0,0,0,0,0h0l0,0a.09.09,0,0,0,0-.05s0,0,0,0a0,0,0,0,1,0,0h0s0,0,0,0v0s0,0,0,0a0,0,0,0,1,0,0v0h0l0,0h0s0,0,0,0,0,0,0,0h0v0h.1l.05,0,0,0a0,0,0,0,0,0,0l0,0h0s0,0,0-.06h0s0,0,0,0,0,0,0-.05,0,0,0,0h0s0,0,0,0"/><path class="cls-3" d="M13,17.79s0,0,0,0H13s0,0,.05,0l0,0s0,0,0,0,0,0,0,0H13l0,0h0v0s0,0,0,0h0a0,0,0,0,1,0,0s0,0,0,0h0s0,0,0,0h0l0,0h.08s0,0,0,0l0,0h0s0,0,0,0h0s0,0,0,0a0,0,0,0,0,0,0,0,0,0,0,1,0,0h0s0,0,0,0h0s0,0,0,0v0h0s0,0,0,0,0,0,0,0a0,0,0,0,0,0,0h0s0,0,0,0h0a0,0,0,0,1,0,0v0a0,0,0,0,0,0,0l0,0h0l0,0s0,0,0,0h0a0,0,0,0,1,0,0H13a0,0,0,0,1,0,0v0s0,0,0,0l0,0h0s0,0,0,0h0l0,0s0,0,0,0h0a0,0,0,0,1,0,0v0h0s0,0,0,0,0,0,0,0,0,0,0,0,0,0,0,0l0,0,0,0s0,0,0,0,0,0,0,0H13s0,0,0,0h-.05v0h0v0h0a0,0,0,0,0,0,0H13s0,0,0,0h.07s0,0,0,0H12.9a0,0,0,0,1,0,0l0,0h0s0,0,0,0V18h0s0,0,0,0h0a0,0,0,0,1,0,0h0l0,0h0a0,0,0,0,0,0,0h0v0s0,0,0,0h0s0,0,0,0v0a0,0,0,0,1,0,0h0s0,0,0,0,0,0,0,0H13s0,0,0,0"/><path class="cls-3" d="M12.72,17.92v0s0,0,0,0h0a0,0,0,0,0,0,0l0,0h0s0,0,0,0h.08s0,0,0,0h0l0,0h-.05a0,0,0,0,1,0,0h0s0,0,0,0a0,0,0,0,1,0,0h0s0,0,0,0v0s0,0,0,0h0v0h0s0,0,0,0h0s0,0,0,0l0,0h.11s0,0,0,0v0a0,0,0,0,0,0,0h-.18a0,0,0,0,1,0,0h0s0,0,.05,0h0l-.06,0,0,0s0,0,0,0a0,0,0,0,0,0,0h0a0,0,0,0,0,0,0v0h0s0,0,0,0h0v0l0,0h0"/><path class="cls-3" d="M13,18.1l0,0h.05l0,0v0h0v0a0,0,0,0,1,0,0s0,0,0,0h0a0,0,0,0,1,0,0h-.06s0,0,0,0v0h0l0,0h-.15a0,0,0,0,1,0,0h0s0,0,0,0h0l0,0h.1l0,0,0,0s0,0,0,0h0l0,0v0h0v0s0,0,0,0h0a0,0,0,0,1,0,0h-.1s0,0,0,0h.06l0,0,0,0h0s0,0,0,0h0s0,0,0,0,0,0,0,0h0s0,0,0,0"/><path class="cls-1" d="M8.78,15.91s0,0,0-.05A.82.82,0,0,0,8.45,15l0,0a1.15,1.15,0,0,0,.33-.67,1.26,1.26,0,0,0-.08-.57,1.31,1.31,0,0,0-.26-.4,1.5,1.5,0,0,0-.77-.46,1.37,1.37,0,0,0-1.51.49.84.84,0,0,0,.77,1.23.93.93,0,0,0,.9-.4.52.52,0,0,0,0-.62.53.53,0,0,1-.07.61,1,1,0,0,1-.87.27,1,1,0,0,1-.51-.17c-.6-.42-.16-1.33.84-1.34a1.7,1.7,0,0,1,1.4.68,1,1,0,0,1,.18.59.89.89,0,0,1-.07.36,1.21,1.21,0,0,1-.26.39l-.06,0a1.52,1.52,0,0,0-.86-.18,1,1,0,0,0-.53.18.25.25,0,0,0-.1.21c0,.16.17.24.31.27a1.18,1.18,0,0,0,.67-.06,1.38,1.38,0,0,0,.44-.24l0,0a.94.94,0,0,1,.48.79m-.54-.83a1.19,1.19,0,0,1-.51.21,1.63,1.63,0,0,1-.66,0,.3.3,0,0,1-.15-.07.12.12,0,0,1-.06-.13A.2.2,0,0,1,7,14.93a1,1,0,0,1,.6-.07,1.69,1.69,0,0,1,.59.18s0,0,.06,0"/><path class="cls-1" d="M14.16,5.3a.75.75,0,0,1,.36.64c0,.27-.13.49-.42.49a.15.15,0,0,1-.16-.14c0-.08.05-.13.1-.13s.13,0,.13.11a.12.12,0,0,0,.13-.11c0-.11-.09-.2-.26-.2a.31.31,0,0,0-.26.33c0,.27.14.41.35.41a.14.14,0,0,1-.13.15,1.93,1.93,0,0,0,.68.58,1.62,1.62,0,0,0,.66-.56.15.15,0,0,1-.14-.14.43.43,0,0,0,.38-.44.27.27,0,0,0-.29-.3.21.21,0,0,0-.21.21c0,.07.05.11.15.11-.07-.06,0-.15.06-.15s.13,0,.13.11a.21.21,0,0,1-.23.19c-.16,0-.32-.15-.32-.42a1,1,0,0,1,.38-.74l.13.18a.61.61,0,0,0-.38.57h0a.32.32,0,0,1,.31-.22.43.43,0,0,1,.42.44,1.84,1.84,0,0,1-1.07,1.31c-.46-.21-1.06-.78-1.06-1.27A.45.45,0,0,1,14,5.82a.43.43,0,0,1,.35.19h0A.55.55,0,0,0,14,5.49Zm.09,1.36c.31-.15.4-.24.4-1.09a.16.16,0,0,1,0-.31.36.36,0,0,0-.13-.3.68.68,0,0,0,.18-.47.15.15,0,0,1,0-.08s0,0,0,.08a.79.79,0,0,0,.14.47.45.45,0,0,0-.13.31.15.15,0,0,1,.11.16.16.16,0,0,1-.11.14c0,.86.09.95.38,1.11l-.1.17a.42.42,0,0,1-.25-.32h0a.69.69,0,0,0,.13.49l-.2.18L14.51,7a.69.69,0,0,0,.13-.49h0a.5.5,0,0,1-.28.32Z"/><path class="cls-1" d="M9.61,12.68a.22.22,0,0,1-.21.21.21.21,0,0,1-.21-.21.21.21,0,0,1,.21-.21.21.21,0,0,1,.21.21"/><path class="cls-1" d="M20.13,12.65a.21.21,0,1,1-.41,0,.21.21,0,0,1,.21-.21.2.2,0,0,1,.2.21"/><path class="cls-1" d="M22.07,11.5l-.12.08.12.12a1,1,0,0,1,.12.29,1.11,1.11,0,0,0-1.11,0,.39.39,0,0,0-.09.11.9.9,0,0,1,.78.16,1.23,1.23,0,0,0-.43.19.76.76,0,0,0-.25.38c-.39-.29-.62-.36-.9-.24a.25.25,0,1,1-.4-.15.22.22,0,0,1,.27,0c.17-.26.15-.5,0-.95a.7.7,0,0,0,.42-.16,1.12,1.12,0,0,0,.28-.37.88.88,0,0,1,0,.79.27.27,0,0,0,.12-.06c.13-.1.36-.4.26-1.08a.77.77,0,0,1,.25.19.71.71,0,0,1,.1.14l.1-.1a2.17,2.17,0,0,1,1.17-.4,2.06,2.06,0,0,1-.64,1.06m-2,1.28a.15.15,0,0,0,0-.23.14.14,0,0,0-.21,0,.14.14,0,0,0,0,.21.15.15,0,0,0,.22,0m1.58-1.85a2,2,0,0,0-.21.2.72.72,0,0,0-.12-.21l-.07-.08a1,1,0,0,1-.3.93.5.5,0,0,1-.4.11.91.91,0,0,0,.17-.66h0a.65.65,0,0,1-.19.24.89.89,0,0,1-.32.12.82.82,0,0,1-.05.91h0a.81.81,0,0,1,.9.16,1,1,0,0,1,.19-.28.62.62,0,0,1,.27-.13h0a.86.86,0,0,0-.67,0A.45.45,0,0,1,21,11.9a1,1,0,0,1,1-.09l-.06-.09a1.44,1.44,0,0,0-.17-.16l.24-.15a1.93,1.93,0,0,0,.53-.83,2,2,0,0,0-.91.35"/><path class="cls-1" d="M6.62,10.44a2.17,2.17,0,0,1,1.17.4.94.94,0,0,1,.1.1L8,10.8a1,1,0,0,1,.26-.19c-.1.68.13,1,.26,1.08a.27.27,0,0,0,.12.06.85.85,0,0,1,0-.79,1.12,1.12,0,0,0,.28.37.7.7,0,0,0,.42.16c-.19.45-.21.69,0,.95a.22.22,0,0,1,.27,0,.25.25,0,1,1-.4.15c-.28-.12-.51,0-.9.24A.76.76,0,0,0,8,12.46a1.32,1.32,0,0,0-.43-.19.89.89,0,0,1,.78-.16A.39.39,0,0,0,8.25,12a1.11,1.11,0,0,0-1.11,0,.79.79,0,0,1,.12-.29l.12-.12-.12-.08a2.06,2.06,0,0,1-.64-1.06m2.89,2.3a.14.14,0,0,0,0-.21.14.14,0,0,0-.21,0,.16.16,0,0,0,0,.23.16.16,0,0,0,.23,0M6.8,10.58a1.93,1.93,0,0,0,.53.83l.24.15a1.44,1.44,0,0,0-.17.16l-.06.09a1,1,0,0,1,1,.09.45.45,0,0,1,.19.36.89.89,0,0,0-.68,0h0a.62.62,0,0,1,.27.13,1,1,0,0,1,.19.28.83.83,0,0,1,.9-.16h0a.8.8,0,0,1,0-.91.89.89,0,0,1-.32-.12.65.65,0,0,1-.19-.24h0a.91.91,0,0,0,.17.66.5.5,0,0,1-.4-.11,1,1,0,0,1-.3-.93.6.6,0,0,1-.08.08,1.21,1.21,0,0,0-.11.21,2,2,0,0,0-.21-.2,2,2,0,0,0-.91-.35"/><path class="cls-1" d="M14.3,15.6s0,0,0,.05v.07s0,0,0,0v0l0,0,0,0h-.06s0,0-.05,0l0,0s0,0,0,0,0,0,0,0a.1.1,0,0,0,.05-.06.06.06,0,0,0,0,0s0,0,0,0,0,0-.05,0H14s0,0,0,0h0l0,0s0,0,0,0h0l0,0,0,0a0,0,0,0,1,0,0l0,0,0,0,0,.05s0,0,0,0l0,0h0v0a.08.08,0,0,1,0,.05v0s0,0,0,0,0,0,0,0,0,0,0,.05,0,0,0,0,0,0,0,0,0,0,0,0,0,0,0,0,0,0,0,0h0s0,0,0,.05,0,0,0,0,0,0,0,0,0,0,0,.05a0,0,0,0,1,0,0v0a0,0,0,0,0,0,0s0,0,0,.05h0l0,0-.07.07h0l0,0s-.06.05-.09.06l0,0s0,0,0,0,0,0,0,0,0,0,0-.06,0,0,0,0v0l0,0h0s0,0,0,0l.06,0h0s0,0,0,0l0,0,0,0a0,0,0,0,0,0,0h0l0,0s0,0,0,0h-.05s0,0,0,0,0,0,0,0v0s0,0,0,0a0,0,0,0,0,0,0s0,0,0,0,0,0,0,0h0a0,0,0,0,0,0,0s0,0,0,0,0,0,0-.05a0,0,0,0,0,0,0l0,0v0l0,0h0s0,0,0,0v0s0,0,0-.05a0,0,0,0,1,0,0,.05.05,0,0,0,0,0h-.07s0,0,0,0l0,0h0l0,0,0,0s0,0,0,0a0,0,0,0,1,0,0h0s0,0,0,0v0l0-.08s0,0,0,0a0,0,0,0,0,0,0s0,0,0,0,0,0,0,0,0,0,0,.05h0v0a0,0,0,0,0,0,0v0s0,0,0,0a0,0,0,0,1,0,0h0a.08.08,0,0,1,0,.05l0,0s0,0,0,0a0,0,0,0,0,0,0v0s0,0,0,.05a0,0,0,0,0,0,0,.06.06,0,0,1,0,0s0,0,0,0,0,0,0,0l0,0s0,0,0,0,0,0,0,0l0,0,0-.05v0a.05.05,0,0,0,0,0h0s0,0,0,.05,0,0,0,0,0,0,0,.06,0,0,0,0,0,0,0,0a.3.3,0,0,0,0,.08l0,0h0s0,0,0,0,0,0,0,0,0,0,0,0,0,0,0,0,0,0,0,.05a899092960352.18,899092960352.18,0,0,0,0,.06h0v0s0,0,0,0a0,0,0,0,0,0,0h0a0,0,0,0,0,0,0l0,0a.05.05,0,0,1,0,0s0,0,0,0,0,0-.05,0H12.9s0,0,0,0l-.05,0,0,0s0,0,0,0,0,0,0,0,0,0,0,0a0,0,0,0,0,0,0,.07.07,0,0,1,0-.05h.1V17a.06.06,0,0,0,0,0s0,0,0,0h0l0,0,0,0s0,0,0,0,0,0,0,0,0-.05,0-.07,0,0,0,0,0,0,0,0v0s0,0,0,0H13s0,0,0,0l0-.05s0,0,0-.05,0,0,0,0a.43.43,0,0,1,0-.05v0s0,0,0,0a.17.17,0,0,1,0-.07s0,0,0,0,0,0,0-.05v0s0,0,0,0l0,0,.05-.07a0,0,0,0,0,0,0s0,0,.05-.05h0s0,0,0,0h0l0,0s0,0,0,0,0,0,0,0,0,0,0,0,0,0,0,0,0,0,0,0,0,0,0,0l.05-.07s0-.06.09-.07v0s0,0,0,0l0,0,0,0h0l0,0h.26s0,0,.05,0l0,0,0,0h0s0,0,.06,0h.19l0,0a.09.09,0,0,1,0,0l0,0"/><rect class="cls-3" x="19.8" y="23.95" width="2.7" height="0.15"/></g></g></svg>