<svg id="Layer_2" data-name="Layer 2" xmlns="http://www.w3.org/2000/svg" xmlns:xlink="http://www.w3.org/1999/xlink" viewBox="0 0 93.16 100.07"><defs><style>.cls-1,.cls-10,.cls-12,.cls-4,.cls-6,.cls-7,.cls-8,.cls-9{fill:none;}.cls-2{clip-path:url(#clip-path);}.cls-3{fill:#fff;}.cls-4,.cls-7{stroke:#1c1c1c;}.cls-4{stroke-width:0.12px;}.cls-5{fill:#1c1c1c;}.cls-10,.cls-12,.cls-6,.cls-8,.cls-9{stroke:#fff;}.cls-6{stroke-width:0.49px;}.cls-7,.cls-9{stroke-width:0.26px;}.cls-8{stroke-width:0.51px;}.cls-10{stroke-width:1.37px;}.cls-11{fill:#ad0f21;}.cls-12{stroke-width:0.27px;}</style><clipPath id="clip-path" transform="translate(-56.28 -2.69)"><rect class="cls-1" x="-0.22" y="2.69" width="203.07" height="138.73"/></clipPath></defs><g class="cls-2"><path class="cls-3" d="M108.17,33.75c-.55-1.57-.65-5.78,1.53-6.08,1.62,1.66-.18,4.7-1.53,6.08M104,35.22a3.83,3.83,0,0,0,4.52-.62c2.24,4,8.34,2.75,10.11-1.12,3.4-4.77-3-12.67-6.75-5.14-1.06,2.26.68,6.21,3.53,4.89-4.05.75-3.9-5.3-1.52-7.14,2.51-2.18,6,.76,5,5.15-1.11,5.15-7.32,8-10.25,3.3,6.27-7.13-3.41-10.69-.47-.7A4.29,4.29,0,0,1,104,35.22" transform="translate(-56.28 -2.69)"/><path class="cls-3" d="M90.86,33.51c-5.38-7.26,2.27-7.88.25.24l-.25-.24m.48.47-.14-.14c2.92-10-6.74-6.49-.47.7-2.93,4.73-9.14,1.85-10.25-3.3-1.07-4.39,2.44-7.33,5-5.15C87.81,27.93,88,34,83.9,33.23c7.37,1.43,2.65-11.93-2.71-6.94-5.35,6.28,5.13,15.27,9.6,8.31a3.85,3.85,0,0,0,4.53.62,4.22,4.22,0,0,1-4-1.24" transform="translate(-56.28 -2.69)"/><path class="cls-3" d="M99.7,101.26C111.91,97,126.47,79.4,125.12,68.18c.19-8.51-4.39-17.52-.52-25a22.32,22.32,0,0,1-5.82-6.7c-5.57,4.82-16.51-1.92-19.25,6.58-2.71-8.51-13.65-1.75-19.23-6.58a22.32,22.32,0,0,1-5.82,6.7c3.88,7.5-.71,16.46-.52,25C72.77,80.05,87.15,96.59,99.7,101.26" transform="translate(-56.28 -2.69)"/><path class="cls-4" d="M99.7,101.26C111.91,97,126.47,79.4,125.12,68.18c.19-8.51-4.39-17.52-.52-25a22.32,22.32,0,0,1-5.82-6.7c-5.57,4.82-16.51-1.92-19.25,6.58-2.71-8.51-13.65-1.75-19.23-6.58a22.32,22.32,0,0,1-5.82,6.7c3.88,7.5-.71,16.46-.52,25C72.77,80.05,87.15,96.59,99.7,101.26Z" transform="translate(-56.28 -2.69)"/><path class="cls-5" d="M99.7,101.26c13.07-5,26.63-21.94,25.42-33.08.19-8.51-4.39-17.52-.52-25a22.32,22.32,0,0,1-5.82-6.7c-5.57,4.82-16.51-1.92-19.25,6.58-2.71-8.51-13.65-1.75-19.23-6.58a22.32,22.32,0,0,1-5.82,6.7c3.88,7.51-.71,16.46-.52,25-1.11,12,13,28.1,25.74,33.08m-.06,1.26C56.06,80,80.9,57.31,72.82,42.82c5-3.66,6.6-7.42,7-8.48,5.11,6.06,15.27-.64,19.69,6,4.36-6.61,14.58.06,19.69-6,.4,1,2,4.84,7,8.48-6.7,16,9.06,26.9-8.88,47.05,0,0-13.66,12.62-17.74,12.65" transform="translate(-56.28 -2.69)"/><path class="cls-6" d="M99.7,101.26c13.07-5,26.63-21.94,25.42-33.08.19-8.51-4.39-17.52-.52-25a22.32,22.32,0,0,1-5.82-6.7c-5.57,4.82-16.51-1.92-19.25,6.58-2.71-8.51-13.65-1.75-19.23-6.58a22.32,22.32,0,0,1-5.82,6.7c3.88,7.51-.71,16.46-.52,25C72.85,80.17,86.92,96.28,99.7,101.26Zm-.06,1.26C56.06,80,80.9,57.31,72.82,42.82c5-3.66,6.6-7.42,7-8.48,5.11,6.06,15.27-.64,19.69,6,4.36-6.61,14.58.06,19.69-6,.4,1,2,4.84,7,8.48-6.7,16,9.06,26.9-8.88,47.05C117.38,89.87,103.72,102.49,99.64,102.52Z" transform="translate(-56.28 -2.69)"/><path class="cls-5" d="M99.44,100.2c11.81-4.71,26-20.53,24.76-32,.17-8.66-4.24-16.75-.75-24.69A23.67,23.67,0,0,1,118.59,38c-7.32,4.24-15.84-3.11-19,7.53C96.61,34.86,88,42.24,80.72,38a23.58,23.58,0,0,1-4.85,5.48c3.49,8-.92,16-.76,24.69-1.23,11.23,12.9,27.37,24.33,32" transform="translate(-56.28 -2.69)"/><path class="cls-7" d="M99.44,100.2c11.81-4.71,26-20.53,24.76-32,.17-8.66-4.24-16.75-.75-24.69A23.67,23.67,0,0,1,118.59,38c-7.32,4.24-15.84-3.11-19,7.53C96.61,34.86,88,42.24,80.72,38a23.58,23.58,0,0,1-4.85,5.48c3.49,8-.92,16-.76,24.69C73.88,79.39,88,95.53,99.44,100.2Z" transform="translate(-56.28 -2.69)"/><path class="cls-3" d="M99.26,72.31a2.84,2.84,0,0,0,0,1.23c0,.39.34.87.21,1.32-.27.24-.71-.18-.73-.49a8.36,8.36,0,0,1-.13-1.43c-.06-.44-.59-1.23-1.12-1.06.14.8-1.61-.29-1.61,1.33.22,1.63,2.36.25.66-.1-.1-.75,1.07-.64,1.26-.11.13.1.14.25.24.38a.26.26,0,0,1,0,.18c.27.14.14.59.31.79.48,2,3,1,2.91-.78.14-.69,1.09-1.45,1.59-.63,0,.42-.85.06-.66.73.58,1,1.8-.42,1-1.11a1.2,1.2,0,0,0-1.12-.34c-.2-.06,0-.26,0-.38-.52-.21-1.08.32-1.3.72,0,.09-.08.14,0,.24-.21.61,0,1.33-.32,1.87-.64.6-.65-.09-.52-.59.15-.68.53-1.59,0-2.17-.24-.63-.52.12-.66.4" transform="translate(-56.28 -2.69)"/><path class="cls-3" d="M97.19,74.83c-.31,2.44,4.32,2.56,5,.67,0,0,0-.11,0-.15,0-.42-.18-1.14-.68-1,.87,1.92-1.85,2.33-3.24,1.69-.17-.21-.53-.2-.52-.52.09-.13-.07-.26-.07-.38-.17-.33.35-.53.06-.84-.33,0-.45.27-.59.51" transform="translate(-56.28 -2.69)"/><path class="cls-5" d="M94.44,75.75c0,2,1.39-.12,2.2,0,0-.11-.08-.16-.13-.25-.57-.44-1.71-.53-2.07.22" transform="translate(-56.28 -2.69)"/><path class="cls-5" d="M102.71,75.79c.16.09.38,0,.53.11.5.21,1.33,1.35,1.7.33.2-1.17-1.72-1.25-2.23-.44" transform="translate(-56.28 -2.69)"/><path class="cls-5" d="M101.75,76.67c.09.2.48.21.53.48.1.09.07.25.19.34a.69.69,0,0,0,.92.39c.36-.35.15-.85-.2-1.14-.12,0-.19-.14-.31-.14-.14-.16-.39,0-.55-.12a1.08,1.08,0,0,0-.58.19" transform="translate(-56.28 -2.69)"/><path class="cls-5" d="M95.85,77.14a.6.6,0,0,0,.46.79c.73,0,.66-1.13,1.42-1.19a1.32,1.32,0,0,0-1.88.4" transform="translate(-56.28 -2.69)"/><path class="cls-5" d="M97.66,77.57c-.8,1.35,1.07,1.58,1.07.1.67-1-.7-.63-1.07-.1" transform="translate(-56.28 -2.69)"/><path class="cls-5" d="M100.44,77.15l0,0c.9,3.53,2.75-.22,0,0" transform="translate(-56.28 -2.69)"/><path class="cls-3" d="M92,77.85c1-1,1.93.75.28.65,0,1,1.19,1,1.91,1.07.08-.07.21,0,.29-.09a4.3,4.3,0,0,1-1-1.86c.66-.05,1.05.48,1.25,1,.21.14.28.78.6.63,0-.08,0-.17,0-.23-.88-1.92.81-1.07,1.49-.29-.15.27-.57.37-.51.77,1.07.33,2.39.72,2.63,2,.12.44-.08,1.1.26,1.4.63.13.35-1,.34-1.35.06-.12,0-.28,0-.41,0-1.19-.87-2.48-.11-3.58.13,0,.15-.22.3-.22.92.75.53,1.9.26,2.84a10.79,10.79,0,0,0-.1,2.67l.07.08a.49.49,0,0,0,.43-.15,11,11,0,0,1,.11-1.29,2.46,2.46,0,0,1,1.83-1.69c.23-.12,1,0,.84-.44,0-.29-.4-.32-.48-.54s.42-.37.64-.49.29-.12.35-.28c.29-.19.62-.29.71.14a.72.72,0,0,1-.13.38,3.39,3.39,0,0,1-.13.55c.06.09-.13.23,0,.26a2.72,2.72,0,0,0,.74-1.08c.16-.34.74-.79,1-.49-.34.49-.36,1.18-.87,1.51-.16.06-.14.32,0,.31s.24-.09.38,0c.53,0,1.32,0,1.58-.55.16-.12.23-.54,0-.64s-.45.2-.68,0c-.59-.79.91-1.23,1-.35a.44.44,0,0,0,.14.3,1.23,1.23,0,0,1-.29,1h0c-.56.61-1.41.44-2.11.53.24.39,1.1.61,1.56.89.16.07.43,0,.23.27-1.1.91-1.73-.4-2.54-.89-.41.09.58.87.22,1.21-.77.21-2.33.81-1.56-.62.6-1-.29-.78-1-.57a2.05,2.05,0,0,0-1.26,1.43c-.44,1.65,1.25.79,1.13-.27-.11-.2-.31-.56.06-.58,1.06.73,0,2.1-.86,2.43,0,.39.47.45.78.39.63,0,.59-.91,1.13-1,.69.26-.19,1.22-.64,1.27-.12.15-.38.06-.46.23a1.45,1.45,0,0,0,1.94-.69c.19-.31.19-.86.64-.92.94.24,0,1.44-.43,1.79a2.43,2.43,0,0,1-3.44-.63c-.07-.39-.47-.33-.77-.25-.19.42-.38,2,.49,1.32,1.13-.67.79.94.76,1.58-.48.39-.67-.64-1.14-.69a.4.4,0,0,0-.07.56c.87,1.84-1.75,1.59-.65-.14.22-1.4-1,.91-1.33.21,0-1.67-.28-1.86,1.42-1.43a8.15,8.15,0,0,0,.07-.84.49.49,0,0,0-.79-.53c0,.17-.19.24-.24.4a3,3,0,0,1-1,.71,3.55,3.55,0,0,1-.89.16,2.18,2.18,0,0,1-2-1.36c-.56-.77.57-1.46.75-.38.18.82,1.11,1.59,1.94,1.1C96.75,83.91,96,83.72,96,83a.43.43,0,0,1,.4-.29c.37.55,1.15,1.65,1.78.69-.27-.43-1.06-.53-1.18-1.15-.07-.08,0-.23-.12-.3-.07-.36.22-1.35.69-1a1.18,1.18,0,0,0,.87,1.77c.63-1.26-.94-2.91-2.29-2.61a.22.22,0,0,0-.07.22c.53.62.72,2-.5,1.25-.3-.22-1,.14-.91-.44a1.13,1.13,0,0,1,.19-.38c0-.15.13-.22.2-.32s.11-.12.08-.2c-.79,0-1,1.17-1.82,1.14-2.16-.33,0-.89.82-1.31.1-.08,0-.12-.11-.09-1.15-.09-2.89-.73-2.05-2.16" transform="translate(-56.28 -2.69)"/><path class="cls-3" d="M99.47,93.63l1.18-1.18-.57-.56-1.17,1.18Zm2.61-.13,1.17-1.19-.57-.56-1.17,1.18Zm-2.47-2.45,1.17-1.19-.56-.55-1.17,1.18Zm-.29,5.22,1.17-1.19-.56-.55-1.17,1.18Zm-2.46-2.45L98,92.64l-.57-.56-1.17,1.18Zm2.55-2.56c-1.32-1.44-2.82-2.84-3.88-.91-.18-1,1.38-1.89,2.84-.56l1.37-1.36L101,89.7c1.26-1.27,3.45-.63,3.36.77-.94-2.15-2.64-.36-4.11,1.2l.58.57,1.35-1.36,1.26,1.22c1.48-1.92,7.11-5.61,7.5-2.06,0,1.89-3,.74-1.58-.05.11,0,.12,0,.11.08s.09.39.12.23.25-.49.41-.3c1.68.73,0-2.74-2.7-.25.94-.47,2.18-.7,2.17-.37a3.1,3.1,0,0,0-1.31.54c.42,1.23-2.05.75-2.53,1.43l-1.54,1.4c2.21,2,4,1,3.77-.32s-2.22-1.05-1.86.13c.1.27-.08.19-.14.06a1,1,0,0,1,1-1.34c3.09.81.3,5-3,1.67l-1.39,1.4-1.2-1.21-1.18,1.17,1.21,1.22-1.58,1.59-1.89-1.88,1.39-1.41-.57-.57-1.4,1.41-1.23-1.23c-5.18,3.43-5.25-4.19-2.17-1.36-2.93-1.92-2.23,4.1,1.51.71-.8-.7-1.73-1.93-3.13-1.83-.64,0-1-.43-.89-.91-.38-.39-1.21-.44-1.37-.6a3.13,3.13,0,0,1,2.23.42c-3.13-2.62-4.11,1.19-2.81.32.26-.42.85.29.47.53-.07.07-.06.09,0,.1.57,0,.26-.41.39-.59.29-.12.59.35.42.72-3.93,2.4-2.94-7.07,4.9,1.62L97,91.2l1.25,1.24Z" transform="translate(-56.28 -2.69)"/><path class="cls-3" d="M119.11,65a1,1,0,0,0,.87.39c-.3,1.11.47,3.13,0,4.27-.15-1-.41-3.1-1.73-3.67a1.33,1.33,0,0,0,.56-.86.72.72,0,0,1-.43-1.35,1.17,1.17,0,0,0-.74-.6c.47-1.16-.2-3,.52-4.06-.09,1,0,3.19,1,3.84a1,1,0,0,0-.43.74.72.72,0,0,1,.34,1.3M121.8,62c.08.21.17.39.13.43-1.93-1.54-1.89-5.67,0-7.13-.86,1.7-1.28,4.8-.13,6.7m-.31,11c.58.52.45.63-.13.17a13.12,13.12,0,0,1-1.73-1.68c-5.1,2.25-6.34-5.77-4.06-8.3-1.89,2.77-.76,10.16,3.8,8-4.61-4.27-3.66-16.36,2-18.54-5.14,4.48-5.71,12.23-1.68,18.33,5-4.91-5.36-11.7,1.86-17.38-5.78,5.62,4.95,12.71-1.65,17.72a12.14,12.14,0,0,0,1.6,1.69m-5.88-14.7c-.2.66-.36.58-.21-.13.16-2,2.18-5,4.1-5.57a12.38,12.38,0,0,0-3.89,5.7" transform="translate(-56.28 -2.69)"/><path class="cls-3" d="M79.9,64.2a.66.66,0,0,1,.61-.52,1,1,0,0,0-.43-.74c1-.65,1.12-2.88,1-3.84.73,1,.06,2.9.52,4.06a1.16,1.16,0,0,0-.73.61.72.72,0,0,1-.43,1.34A1.33,1.33,0,0,0,81,66c-1.32.57-1.58,2.62-1.73,3.67-.47-1.14.3-3.16,0-4.27a1,1,0,0,0,.86-.39.69.69,0,0,1-.26-.78m-1.68-5.32a10,10,0,0,0-.87-3.54,4.8,4.8,0,0,1,1.47,3.54,5,5,0,0,1-1.47,3.59,9.43,9.43,0,0,0,.87-3.59m1.17,12.49c-6.6-5,4.12-12.11-1.65-17.72C85,59.36,74.58,66.09,79.6,71c4-6.1,3.46-13.85-1.68-18.33,5.65,2.18,6.59,14.28,2,18.54,4.56,2.17,5.7-5.22,3.81-8,2.28,2.53,1,10.55-4.06,8.3-2.76,2.84-2.66,2.26-.26-.18m2.89-16a12.25,12.25,0,0,0-2.5-2.76c2,.58,4.32,4,4.1,6.14a24.5,24.5,0,0,0-1.6-3.38" transform="translate(-56.28 -2.69)"/><path class="cls-5" d="M87.34,63.16,103.08,62,95.22,43,87.81,62Zm47.95,29.09H102.37V88.18c9.18-.1,10.44-4.48,6.74-11.65l-4.85-11.61L86.63,65c-2.43,7.48-12.48,23,1.65,23.2v4l-23.83.29V88.14c9.75-.09,10.47-9.49,14.42-17.61l16.81-43h6.24c2.57,5.63,20.78,52.07,23.78,55.88,2.47,3.6,5.18,4.34,9.59,4.78Z" transform="translate(-56.28 -2.69)"/><path class="cls-8" d="M87.34,63.16,103.08,62,95.22,43,87.81,62Zm47.95,29.09H102.37V88.18c9.18-.1,10.44-4.48,6.74-11.65l-4.85-11.61L86.63,65c-2.43,7.48-12.48,23,1.65,23.2v4l-23.83.29V88.14c9.75-.09,10.47-9.49,14.42-17.61l16.81-43h6.24c2.57,5.63,20.78,52.07,23.78,55.88,2.47,3.6,5.18,4.34,9.59,4.78Z" transform="translate(-56.28 -2.69)"/><path class="cls-3" d="M110.75,84.06c0,3.62-7,4.31-8.59,5.28-.74,1.94,8.32-.51,7.29-.8a33.13,33.13,0,0,0,2-4.34Z" transform="translate(-56.28 -2.69)"/><path class="cls-3" d="M82.66,80.44A2.56,2.56,0,0,0,82,82c.45,0,1.17-1.09.7-1.52m.25-.64s0-.06,0-.08c-.68-.22-1.06-1.34-.25-1.66.06,0,.16.56.33.22.28-.9,1-.25.16.14-.15.22.11.17.21.25-.08.16-.25.3-.24.54.38,1.2.89-1.73,1.79-1.14.11.17-.16.59.21.49s1.09.18.59.37c-.53-.1-.42.08-.27.43-.22.63-1,0-1.48.16s-.61.37-.19.58c.19.15.56.08.72.13-.33.53.5.21.5.38,0,.78-1.36-.14-.92.76-.83,0-.82-1-.85-1.52-.12-.06-.61.38-.41.49.44.59-.1,1.62-.58,1.94s.15.94.41.76c-.11-.31-.11-.75.4-.78s.55,1.15-.13,1.15c-1.58,0-1.38-2.32-.48-3.18-.21-.53-1.18-.11-.5.3l-.1.15c-.77-.47.13-1.23.64-.69C82.66,80.16,82.81,79.91,82.91,79.8Z" transform="translate(-56.28 -2.69)"/><path class="cls-3" d="M86.71,85.5a1.19,1.19,0,0,0,.79,1.4,2.47,2.47,0,0,0-.69-1.52s-.06,0-.1.12m0-.58c.26.2.36-.24.75-.18.56,0,.52.68.13.88l-.1-.15c.68-.41-.29-.83-.5-.3A3.72,3.72,0,0,1,87.76,87c0,2-3,1.28-1.38.19a.46.46,0,0,1,.42.67c-.07.09,0,.17.09.15,1.24-.62-1.18-1.71-.28-2.74.19-.11-.29-.55-.41-.5,0,.52,0,1.56-.86,1.53.45-.9-.87,0-.91-.76,0-.17.83.15.5-.38.25,0,.95,0,1-.43-.19-.8-2.28.43-1.8-.68.13-.29-.17-.21-.38-.19-.5-.19.26-.56.59-.37s.1-.32.2-.49c.91-.59,1.42,2.34,1.8,1.14,0-.37-.48-.52,0-.64.06-.2-.28-.27-.38-.42a.2.2,0,1,1,.32-.24c.09.08.16.46.3.48s.12-.5.35-.29a1,1,0,0,1-.38,1.62C86.5,84.72,86.68,84.87,86.71,84.92Z" transform="translate(-56.28 -2.69)"/><path class="cls-3" d="M93,74.2a1.2,1.2,0,0,0,.79,1.4,2.52,2.52,0,0,0-.69-1.53s-.07,0-.1.13m0-.59c.26.21.36-.23.75-.17.55,0,.52.68.13.87l-.1-.15c.68-.41-.3-.83-.51-.29.92.85,1.11,3.19-.48,3.17-1.26-.15-.09-2,.35-.73-.35.93.83,0,.34-.4a1.6,1.6,0,0,1-.53-2.06c-.07-.08-.32-.45-.46-.37,0,.52,0,1.54-.86,1.53.44-.91-.87,0-.91-.77,0-.17.83.15.5-.37.25,0,1,0,1-.43-.29-.8-1.66.28-1.91-.45.15-.35.26-.52-.27-.43-.5-.19.26-.56.59-.37s.09-.32.2-.48c.86-.4,1.06,1.21,1.59,1.44.65-.27-.38-.85.21-.94.06-.21-.28-.28-.38-.43a.2.2,0,1,1,.31-.24c.1.08.17.46.31.48s.12-.5.34-.29a1,1,0,0,1-.38,1.62C92.77,73.41,93,73.56,93,73.61Z" transform="translate(-56.28 -2.69)"/><path class="cls-5" d="M107.55,74.73" transform="translate(-56.28 -2.69)"/><path class="cls-5" d="M89,75.56" transform="translate(-56.28 -2.69)"/><path class="cls-3" d="M100.1,55.91a2.66,2.66,0,0,1,0,1.22c0,.4-.33.87-.2,1.32.27.25.71-.18.73-.49l0,0c.12-.5,0-.89.1-1.4s.58-1.24,1.12-1.06c-.15.79,1.61-.3,1.6,1.33-.21,1.62-2.36.25-.65-.11.1-.75-1.08-.63-1.26-.1-.14.09-.15.25-.24.37a.24.24,0,0,0,0,.19c-.27.14-.14.59-.31.79-.48,2-3,1-2.91-.78-.14-.69-1.09-1.46-1.59-.63,0,.41.84.06.66.72-.59,1-1.8-.41-1-1.11a1.25,1.25,0,0,1,1.12-.34c.2-.06,0-.25,0-.38.51-.2,1.08.32,1.3.72,0,.1.08.14,0,.25.2.61,0,1.32.31,1.87.63.6.66-.09.52-.6-.15-.67-.53-1.59,0-2.16.25-.63.51.11.66.4" transform="translate(-56.28 -2.69)"/><path class="cls-3" d="M102.17,58.42c.31,2.45-4.32,2.57-5,.68,0-.05,0-.12,0-.16,0-.42.18-1.13.68-1-.87,1.93,1.85,2.33,3.24,1.7.17-.21.52-.21.52-.53-.09-.13.07-.25.07-.37.16-.34-.35-.54-.06-.84.33,0,.45.27.59.5" transform="translate(-56.28 -2.69)"/><path class="cls-3" d="M104.91,59.34c0,2-1.38-.12-2.19,0,0-.12.08-.16.13-.26.57-.43,1.71-.52,2.06.22" transform="translate(-56.28 -2.69)"/><path class="cls-3" d="M96.65,59.39c-.16.09-.38,0-.53.1-.5.22-1.34,1.36-1.7.33-.2-1.16,1.72-1.24,2.23-.43" transform="translate(-56.28 -2.69)"/><path class="cls-3" d="M97.6,60.26c-.08.21-.46.21-.53.48-.09.09-.06.26-.18.34a.7.7,0,0,1-.92.4c-.36-.36-.15-.85.2-1.14.12,0,.19-.14.31-.15s.39,0,.55-.11a1,1,0,0,1,.57.18" transform="translate(-56.28 -2.69)"/><path class="cls-3" d="M103.51,60.73a.61.61,0,0,1-.46.8c-.73,0-.66-1.14-1.42-1.19a1.32,1.32,0,0,1,1.88.39" transform="translate(-56.28 -2.69)"/><path class="cls-3" d="M101.7,61.16c.79,1.36-1.07,1.58-1.08.11-.65-1,.71-.63,1.08-.11" transform="translate(-56.28 -2.69)"/><path class="cls-3" d="M98.92,60.74l0,0c-.91,3.53-2.75-.22,0,0" transform="translate(-56.28 -2.69)"/><path class="cls-3" d="M107.4,61.44c-1-1-1.93.75-.28.66,0,.95-1.19,1-1.91,1.06-.08-.07-.21,0-.29-.08a4.36,4.36,0,0,0,1-1.86c-.66,0-1.05.47-1.25,1-.21.15-.29.79-.6.63,0-.07,0-.16,0-.22.87-1.92-.82-1.08-1.5-.29.16.26.58.36.52.77-1.08.32-2.41.74-2.63,2a8.43,8.43,0,0,0-.08,1.24c0,.06-.14.09-.18.16-.63.13-.35-1-.34-1.36-.06-.12,0-.28,0-.41,0-1.18.87-2.48.11-3.57-.13,0-.15-.22-.3-.22-.93.75-.53,1.9-.26,2.84a11.19,11.19,0,0,1,.11,2.66l-.08.08a.45.45,0,0,1-.43-.14,11,11,0,0,0-.11-1.29,2.45,2.45,0,0,0-1.83-1.7c-.23-.12-1,0-.84-.43,0-.29.4-.33.48-.55s-.42-.37-.64-.48-.29-.13-.35-.28c-.29-.2-.62-.29-.71.14a.69.69,0,0,0,.13.37,3.16,3.16,0,0,0,.13.55c-.06.1.13.23,0,.26a2.18,2.18,0,0,1-.62-.82c0-.1-.11-.16-.12-.26-.16-.34-.74-.79-1-.49.34.49.36,1.19.87,1.52a.16.16,0,0,1,0,.31c-.14.1-.24-.1-.38,0-.53,0-1.32,0-1.58-.55-.16-.13-.24-.54,0-.65s.45.2.68,0c.59-.79-.9-1.23-1-.36a.45.45,0,0,1-.14.3A1.25,1.25,0,0,0,92,63.09h0c.55.61,1.4.45,2.11.54-.24.38-1.1.6-1.57.89-.16.06-.43,0-.22.27,1.1.91,1.72-.41,2.54-.89.42.08-.59.86-.22,1.2.79.22,2.33.81,1.56-.62-.6-1,.29-.77,1-.56a2.05,2.05,0,0,1,1.26,1.43c.44,1.64-1.25.78-1.13-.27.11-.2.31-.57-.06-.58-1.06.73-.06,2.1.86,2.42,0,.39-.47.45-.78.39-.63,0-.59-.91-1.13-1-.69.26.18,1.22.64,1.28.12.15.38.06.46.22a1.44,1.44,0,0,1-1.94-.69c-.19-.3-.19-.86-.64-.91-.94.23,0,1.44.43,1.79a2.42,2.42,0,0,0,3.44-.64c.07-.39.47-.32.77-.25.19.42.38,2-.49,1.32-1.13-.66-.79.94-.76,1.59.48.38.67-.65,1.14-.69a.4.4,0,0,1,.07.56c-.87,1.84,1.75,1.59.64-.14-.2-1.4,1,.91,1.34.21,0-1.67.28-1.87-1.42-1.44a7.93,7.93,0,0,1-.07-.84c-.14-.51.36-.81.79-.53,0,.18.19.24.24.4a2.87,2.87,0,0,0,1,.71,2.79,2.79,0,0,0,.89.16,2.15,2.15,0,0,0,2-1.36c.55-.76-.57-1.45-.75-.37-.18.81-1.11,1.58-1.94,1.1.45-.34,1.23-.52,1.22-1.26a.44.44,0,0,0-.4-.3c-.37.55-1.15,1.65-1.78.7.26-.44,1.07-.54,1.18-1.15.07-.08.05-.23.12-.3.06-.37-.22-1.35-.69-1a1.18,1.18,0,0,1-.87,1.77c-.63-1.25.93-2.9,2.29-2.61a.24.24,0,0,1,.07.23c-.53.61-.72,2,.5,1.25.3-.22,1,.13.91-.45-.07-.12-.08-.26-.19-.37s-.13-.22-.2-.33-.11-.12-.08-.2c.79,0,1,1.17,1.82,1.15,2.16-.34-.06-.89-.82-1.31-.1-.09,0-.12.11-.09,1.15-.09,2.89-.73,2.05-2.17" transform="translate(-56.28 -2.69)"/><path class="cls-3" d="M113.72,79.37c-4.43,14.28-13.91,7.77-8,6.46.52.14.7.36.53.45-2.53-.23-.63,2.92,1,1.68-1.9.18-1-2.55,0-.55,1.78-.84-1.09-2.8-2.31-2.29a9.84,9.84,0,0,0,2.59-1.82c4.3-.64,6.23-9.37,2.6-11.76a10.13,10.13,0,0,0-1.58-2.74c.88,1,4.31.41,3-1.11-1.73,1.4-1.41-1.46.23-.49-1-1.83-4,.22-1.65,1.08.12.15-.13.28-.66.19-5.08-3.68,7.53-5.89,4.19,10.9m-1.11-3.47a1.18,1.18,0,0,0-.24.86c.2-.12.55-.24.69-.13.83.6-.47.71-.48,1.16,1.3,1.65,1.73-2.93,0-1.89m.62-.55c.9.19.64-.86.58-2,.09.82-.8,1.35-.58,2M113,73.52a.17.17,0,0,0-.31.1c0,.2.38.15.24.43s-.53,0-.68-.2a11.93,11.93,0,0,1,.2,1.73c.37-.56,1-1.4.55-2.06m.44-2.3a.85.85,0,0,1-1.65.15c-.11-.75,1.58-.57.26-1.38-.62-.31-2.08-.33-2,.44.24.31.65-.52,1,.17a.47.47,0,0,1-.46.62,4.6,4.6,0,0,1,1.44,2,.89.89,0,0,1,1.77-.17,10.52,10.52,0,0,0-.38-1.88m-1.8-1.91c.67.12.65.3,1,.36.63-.38-.67-.71-1-.36m.58,9a1,1,0,0,1,.31-.1.9.9,0,0,1-.24-.21c0,.09,0,.22-.07.31m.59,2.09c.67-.43.75-2.54-.37-1.75-.25.41.63.6.3,1.06s-.58.24-.83-.11c-.7.12,0,1.86.9.8m-1,.89c-.16.55.15,1.28-.19,1.92.66-.87,1.15-2.52.19-1.92m-.41.46a3.85,3.85,0,0,0-.11-1.17,11.14,11.14,0,0,1-.91,1.48c.62-.29,1,.2.3.4.14.7.85-.32.72-.71m.09,1.66a.89.89,0,0,1-1.53-.9,4.65,4.65,0,0,1-2.18,1.25.47.47,0,0,1,.17.75c-.6.49-.63-.43-1-.27-.42.66.91,1.26,1.61,1.24,1.53-.18-.08-.72.35-1.36s1.74.06,1.43.83a11.17,11.17,0,0,0,1.13-1.54m-2.87,3c.23.09.64-.22.33-.37s-.38.08-1-.09a1,1,0,0,0,.7.46" transform="translate(-56.28 -2.69)"/><path class="cls-3" d="M86,78.32c-2.7-15.5,9.27-13.95,4.4-10.08-.53.1-.79,0-.67-.18C92.06,67.2,89,65.14,88,67c1.64-1,2,1.88.23.49-1.26,1.51,2.17,2.08,3,1.11a10,10,0,0,0-1.58,2.74c-3.63,2.39-1.7,11.12,2.6,11.76a9.84,9.84,0,0,0,2.59,1.82c-1.22-.52-4.09,1.45-2.31,2.29,1-2,1.89.72,0,.55,1.66,1.24,3.56-1.91,1-1.69-.16-.08,0-.3.53-.44,6,1.33-4,8.06-8.23-7.29m.26-2.19c-.41.68.4,2.62,1.08,1.44,0-.48-.83-.27-.72-.84.09-.4.43-.46.8-.25.59-.4-.77-1.69-1.16-.35m.5-1.19c-.09-.58-.68-1.1-.65-1.83-.22,1.06,0,2.77.65,1.83m.17-.6a3.93,3.93,0,0,0,.59,1,13.16,13.16,0,0,1,.2-1.72c-.44.52-1,.26-.43-.24-.43-.57-.64.65-.36,1m-.77-1.47a.89.89,0,0,1,1.76.17,4.57,4.57,0,0,1,1.45-2,.47.47,0,0,1-.47-.62c.34-.69.75.13,1-.17.1-.77-1.36-.75-2-.44-1.31.81.37.62.26,1.38A.85.85,0,0,1,86.48,71a9.86,9.86,0,0,0-.37,1.87M87.45,69c-.25,0-.49.47-.14.48s.31-.24,1-.36a1.05,1.05,0,0,0-.83-.12m.21,9s0-.11,0-.15a.76.76,0,0,1-.24.21,1.07,1.07,0,0,1,.31.09s0-.1,0-.15m.59,2.22a1.16,1.16,0,0,0-.14-.87c-.13.18-.4.44-.57.4-1-.19.13-.84-.06-1.26-1.87-1-.33,3.4.77,1.73m-.33.76c-.89.21-.22,1.06.33,2.08-.43-.7.15-1.57-.33-2.08m1,1.55c.15.06.32-.06.25-.22s-.41,0-.4-.29.49-.21.7-.11a11.14,11.14,0,0,1-.91-1.48c-.1.66-.36,1.7.36,2.1m.57,2.27c-.3-.77.87-1.54,1.44-.84.42.64-1.19,1.19.35,1.37.69,0,2-.58,1.6-1.24-.36-.17-.38.75-1,.27a.47.47,0,0,1,.17-.75,4.63,4.63,0,0,1-2.18-1.26.89.89,0,0,1-1.53.91,11.17,11.17,0,0,0,1.13,1.54m2.44,1c-.65.17-.71,0-1,.09-.41.6.91.36,1-.09" transform="translate(-56.28 -2.69)"/><path class="cls-5" d="M87.09,65.92l17.08,1.19L95.31,45.27C94.14,48.18,87.89,63.28,87.09,65.92ZM67.64,89.37c8.71-2,9.7-10.62,13.25-18.84l16.36-42,3.25-.11,19.17,47.07c3.07,7.31,3.86,12.41,11.63,13.57,0,.52.08,2.61.07,3.12H101.66v-4c8.82-.12,9.14-5,6.09-11.65L103.6,65.9l-16.26-.23c-2.15,7.09-11.23,22,1.61,22.5l0,4H64.64" transform="translate(-56.28 -2.69)"/><path class="cls-9" d="M87.09,65.92l17.08,1.19L95.31,45.27C94.14,48.18,87.89,63.28,87.09,65.92ZM67.64,89.37c8.71-2,9.7-10.62,13.25-18.84l16.36-42,3.25-.11,19.17,47.07c3.07,7.31,3.86,12.41,11.63,13.57,0,.52.08,2.61.07,3.12H101.66v-4c8.82-.12,9.14-5,6.09-11.65L103.6,65.9l-16.26-.23c-2.15,7.09-11.23,22,1.61,22.5l0,4H64.64" transform="translate(-56.28 -2.69)"/><path class="cls-3" d="M104.47,63.93,95,40.47,86,63.93Zm28.44,26.72H103.16V89.6c8.76,0,10-6.58,6.38-13.13l-4.78-11.76-18.9-.44C83.45,72.16,73.09,88.06,87,89.6v1.05H66.75V89.6C75.9,88.42,77.26,79.72,81,71.53l16.57-42.7h2.58l19.7,47.59c3.3,7.69,4.63,12.8,13.09,13.18Z" transform="translate(-56.28 -2.69)"/><path class="cls-10" d="M104.47,63.93,95,40.47,86,63.93Zm28.44,26.72H103.16V89.6c8.76,0,10-6.58,6.38-13.13l-4.78-11.76-18.9-.44C83.45,72.16,73.09,88.06,87,89.6v1.05H66.75V89.6C75.9,88.42,77.26,79.72,81,71.53l16.57-42.7h2.58l19.7,47.59c3.3,7.69,4.63,12.8,13.09,13.18Z" transform="translate(-56.28 -2.69)"/><path class="cls-3" d="M88.85,17.4c1.81.11,3.42,1.34,4.87,2.44-4.18,3.16-10.9-1.31-4.87-2.44m10.83-.17A35.81,35.81,0,0,0,104,19.91c-1.65,1.32-3.26,2.64-4.27,3.51h0c-1-.87-2.62-2.19-4.27-3.51a36.64,36.64,0,0,0,4.27-2.68m6.18,2.42c8.9-7,9.25,5-.23.19ZM88.06,21c2,.82,4.4.22,6.33-.63l4.47,3.71c-1.78,1.65-6.64,4.32-8.06,3.23-1.84-.65-2.19-2.63-.52-3.15.68-.15,2.38-.31,1.84-1.39-8.37,4.38,2.41,7.23,7.56,2,5.17,5.26,15.92,2.39,7.56-2-.54,1.08,1.15,1.24,1.84,1.39,1.67.52,1.32,2.5-.52,3.15-1.41,1.09-6.28-1.58-8.07-3.23L105,20.39c11,4.88,9.81-9-.25-1.08a31.94,31.94,0,0,1-5-4,32.41,32.41,0,0,1-5,4c-4.3-4.45-11.54-1.9-6.59,1.71" transform="translate(-56.28 -2.69)"/><path class="cls-3" d="M115.13,41.78c.05,0,.66-.13.79,0s.61.55.73.34-.21-.17-.41-.17c-.75-.42.3-.83,1-.42a1.08,1.08,0,0,1,.64-.1.78.78,0,0,1-.08.66c.17.24.69.83.11,1a1.72,1.72,0,0,1,.15.67.86.86,0,0,1-.38.05,1.59,1.59,0,0,1,.17.65.88.88,0,0,1-.39,0,2.81,2.81,0,0,1,0,.59c-.54.11-.67-.3-.23.59-.07.19-.87-.34-.86-.41a.69.69,0,0,0-.19.45s-.61-.07-.5-.59a.87.87,0,0,1-.82-.19s.16-.06.12-.18-.68.05-.71-.49a1.55,1.55,0,0,1,.66-.08.82.82,0,0,1-.24-.38,2.49,2.49,0,0,0,1.13-.32c.14,0,.9.12,1-.19-.09-.18-.09.07-.35.1s-.86,0-1.13,0c0,.12-.61-.45-.15-.47.21.14,1.15-.18.42-.51-.07-.07-.62.1-.64-.13s-.08-.47.09-.5" transform="translate(-56.28 -2.69)"/><path class="cls-3" d="M115.75,42.57c.2.21-.37.31-.45.24s-1.17.39-1.37.13c0,0-.53-.29-.05-1,0,0,.16-.18.26,0-.15.84,1.33.43,1.61.65" transform="translate(-56.28 -2.69)"/><path class="cls-3" d="M114.28,44.75c-.14.4-.41,1.3-.89.32a.8.8,0,0,1-.27.44.71.71,0,0,1-.15-.94c0-.25-.42.33-.43.23a.6.6,0,0,1,0-.77s0-.09-.07-.1-.56.09-.65-.22c0,0,.08-.14.41-.2.07,0,.06-.12,0-.1s-.78.07-.82-.28.29-.59.6-.41c-.74-.38.41-1.3.51-.34.2.2,0-.49.2-.51,1.07-.14.22.84.39,1.4s1.25,1.48,1.24,1.48" transform="translate(-56.28 -2.69)"/><path class="cls-3" d="M111.19,42.78c.17.2.07.58-.44.58-.19,0,.36-.66.44-.58" transform="translate(-56.28 -2.69)"/><path class="cls-3" d="M112,41.87c-.38.27-.26.26-.7-.14-.24-.2,1-.16.7.14" transform="translate(-56.28 -2.69)"/><path class="cls-3" d="M112.82,41.77c.36.17.65-.14.08-.49-.07,0-.19.41-.08.49" transform="translate(-56.28 -2.69)"/><path class="cls-3" d="M116.72,52.35c0-.4.21-1.24.6-.33,0,0,.33-.68,0-.92.12-.1,1.05-.28,1-.63,0,0-.7.17-.58-.07,0,0,.07-.09.47-.14s.42-.49.42-.49-.41.12-.53,0c0-.28.74-.13.78-.68-.78-.31-2.23.95-1.45-.76.66,1,3.86.34,2.27-2.15-.66-.66.79-1.56.5-.38,1.68-.25-.4-2.58-1-.64-.44-1.15,2.65-.88,1.68-2.62.07.52-1,1.05-1.23,1.23-.11-.38,1.81-.89.65-2,.29.55-.84,1.29-1.17,1.6-.17-.17,1.52-1.28.48-1.69,0,1.07-2.22,1.31-.93,2.74a.75.75,0,0,0,0,.85c-.14-.19-1.42-.07-.7.65a.55.55,0,0,1,.83-.1c-.17-.13-1.14.07-.53.67,0,0,.17-.33.72-.18-.2-.11-1.08.48-.31.91.27-.8,1.2.23.63.71-1.21,1.53-2.63-1.88-2.49-2.19a1,1,0,0,1-.51-.35,1,1,0,0,0-.12.42s-.63,0-.74-.57a1.12,1.12,0,0,1-.84-.35l.11-.09c-.51-.22-.52.13-.68.65.22,0-1.64,1.11-1.88.29a.35.35,0,0,0-.28-.35c-.43,0-.59.52-.24.64.19.08,0,.15,0,.13-.4-.39-1,.4-.39.68.06.06.55-.2.57-.12s0,.12-.29.15-.2.57.24.67c.57-.08.28-.46.66-.61.25,0,.12.19.1.4,0,0,.37.1.56-.59,0,0,.13-.2.36.11a.48.48,0,0,0,.73-.06c0,.1-.52-.4-.18-.34,0,0,.43.45.82.18,0,0-.46-.45-.14-.42.11,0,2.36.42,1.89,1.58A3.27,3.27,0,0,0,116,50c-.07.55,1.15-.31,1.26,0-.09.08-.27,1.19-1.17.91-.33-.36-1,.55-.28.56.25.17-.9,0-.53.58.48.81.89-.51.85,0-.51.2.23.94.62.32" transform="translate(-56.28 -2.69)"/><path class="cls-3" d="M113,48.29c.38-.13.33.4.35.43-.12.43,1.57.43,1.65.42-.73-1.63-.16-3.14,1.54-1.36,0,0-.27.45-.31.53-1.22-.94-.17,2-1.35,2,0,.06.22-.55,0-.39a.65.65,0,0,1-.65.39c0,.07.29-.63,0-.46,0,0-.25.54-.73.4.06.08.37-.56,0-.4-.13,0-.44.67-.66.55-.52-.15-.42-.73,0-.74.18-.13-.2-.15-.24-.07-.75.28-.41-1.22.26-.5.29-.14-.82-.4.17-.77" transform="translate(-56.28 -2.69)"/><path class="cls-3" d="M112.73,48.26c-.29.3-.34.11-.69,0-.14,0,.72-.44.69,0" transform="translate(-56.28 -2.69)"/><path class="cls-3" d="M112,49.14c0,.42,0,.28-.6.38-.08,0,.3-.66.6-.38" transform="translate(-56.28 -2.69)"/><path class="cls-3" d="M112.28,50.06c.24.34.11.32-.19.59,0,.08-.17-.76.19-.59" transform="translate(-56.28 -2.69)"/><path class="cls-3" d="M115.39,51c0,.4-.19.29-.56.41-.11.06.29-.79.56-.41" transform="translate(-56.28 -2.69)"/><path class="cls-3" d="M115.13,52.11c.29.31.14.25-.23.67a.56.56,0,0,1,.13-.7s.06,0,.1,0" transform="translate(-56.28 -2.69)"/><path class="cls-3" d="M116,52.6c.4.12.29.19.22.58,0,.1-.61-.48-.22-.58" transform="translate(-56.28 -2.69)"/><path class="cls-3" d="M111.64,45.39c-.19.36-.29.19-.67.16-.13,0,.59-.61.67-.16" transform="translate(-56.28 -2.69)"/><path class="cls-3" d="M111,46.5c.13.41,0,.29-.49.51,0,0-.07-.38.42-.57,0,0,.06,0,.07.06" transform="translate(-56.28 -2.69)"/><path class="cls-3" d="M111.36,47.37c.27.28.15.34-.11.61,0,.08-.27-.7.11-.61" transform="translate(-56.28 -2.69)"/><path class="cls-3" d="M83.35,41.81s-.66-.13-.78,0-.61.55-.73.34.21-.17.41-.17c.75-.41-.3-.84-1-.43a1.16,1.16,0,0,0-.63-.1.78.78,0,0,0,.07.67c-.17.24-.69.83-.1,1a1.54,1.54,0,0,0-.15.67,1,1,0,0,0,.37.05,1.57,1.57,0,0,0-.17.64.94.94,0,0,0,.4,0,2.34,2.34,0,0,0,0,.6c.54.11.66-.3.23.59.07.18.87-.35.86-.41a.69.69,0,0,1,.19.45s.61-.08.5-.6a.83.83,0,0,0,.81-.18s-.16-.06-.11-.19.67.06.71-.48a1.55,1.55,0,0,0-.66-.08.76.76,0,0,0,.23-.38,2.53,2.53,0,0,1-1.13-.32c-.14,0-.9.12-1-.19.09-.18.09.07.35.1s.86,0,1.12,0c0,.12.62-.45.15-.47,0,0-.45.06-.58-.05s.11-.58.51-.47.41-.52.2-.62" transform="translate(-56.28 -2.69)"/><path class="cls-3" d="M82.74,42.59c-.2.22.36.32.44.24s1.18.4,1.37.13c0,0,.54-.28,0-1,0,0-.16-.17-.26,0,.15.85-1.33.44-1.6.65" transform="translate(-56.28 -2.69)"/><path class="cls-3" d="M84.2,44.78c.14.4.42,1.3.89.32a.78.78,0,0,0,.28.44.73.73,0,0,0,.14-.95c0-.24.44.34.43.23a.58.58,0,0,0,0-.76s0-.1.07-.1.56.09.66-.22a.65.65,0,0,0-.41-.21c-.07,0-.07-.11,0-.09s.78.07.81-.28-.29-.59-.6-.41c.75-.38-.41-1.3-.51-.34-.2.19,0-.49-.19-.51-1.07-.14-.22.84-.39,1.4s-1.25,1.48-1.25,1.48" transform="translate(-56.28 -2.69)"/><path class="cls-3" d="M87.29,42.81c-.16.2-.06.58.44.58.19,0-.35-.66-.44-.58" transform="translate(-56.28 -2.69)"/><path class="cls-3" d="M86.53,41.9c.39.26.27.25.7-.14.24-.2-1-.16-.7.14" transform="translate(-56.28 -2.69)"/><path class="cls-3" d="M85.67,41.8c-.36.17-.66-.14-.09-.49.08,0,.19.41.09.49" transform="translate(-56.28 -2.69)"/><path class="cls-3" d="M81.77,52.38c0-.4-.21-1.24-.6-.34,0,0-.34-.67,0-.91-.13-.1-1-.28-1-.63-.06,0,.7.16.57-.07,0,0-.07-.09-.47-.14s-.42-.49-.42-.49.41.12.54,0c0-.28-.74-.13-.78-.68.77-.31,2.22,1,1.45-.76-.66,1-3.86.34-2.27-2.15.65-.66-.79-1.56-.5-.38-1.69-.25.39-2.58,1-.64.45-1.15-2.65-.88-1.68-2.62-.07.52,1,1,1.24,1.23.11-.38-1.81-.9-.65-2-.29.55.84,1.28,1.16,1.6.18-.17-1.52-1.28-.48-1.69,0,1.07,2.22,1.31.93,2.74a.75.75,0,0,1,0,.85c.15-.19,1.42-.08.7.65a.54.54,0,0,0-.82-.1c.17-.13,1.13.07.53.66,0,0-.17-.32-.73-.17.2-.12,1.08.48.31.91-.27-.8-1.19.23-.63.71,1.21,1.53,2.63-1.88,2.5-2.19a1,1,0,0,0,.5-.35.8.8,0,0,1,.12.41s.64,0,.74-.56a1.11,1.11,0,0,0,.84-.35c-.24-.17,0,0,.28-.21a4,4,0,0,1,.3.77c-.23,0,1.64,1.11,1.88.28a.33.33,0,0,1,.27-.34c.43,0,.6.52.25.64-.19.08,0,.15,0,.13.4-.39,1,.4.39.68,0,.06-.54-.2-.57-.12s.05.12.3.15c.37.18.2.57-.24.66-.58-.07-.29-.45-.67-.61-.25,0-.12.2-.1.4,0,0-.37.11-.56-.58,0,0-.13-.21-.36.1a.46.46,0,0,1-.72-.05c0,.1.52-.41.17-.34,0,0-.42.45-.82.18.9-.83-1.36-.3-1.76.64-.24.85.78.89.7,2.7,0,0,0,.25-.3.16.13.13-1-.43-.95-.17.08.08.27,1.19,1.16.91.33-.37,1,.55.29.56-.25.17.89,0,.53.57-.47.81-.89-.49-.86,0,.51.2-.23.94-.61.32" transform="translate(-56.28 -2.69)"/><path class="cls-3" d="M85.51,48.32c-.39-.13-.34.4-.36.43.12.43-1.56.43-1.64.42.73-1.63.15-3.14-1.55-1.36l.32.52c1.21-.94.16,2.06,1.35,2,0,.06-.23-.54,0-.38a.64.64,0,0,0,.65.38c0,.08-.29-.62,0-.45,0,0,.24.54.73.39-.06.09-.37-.55,0-.4.13,0,.45.68.66.56.52-.15.43-.73,0-.74-.18-.13.21-.15.25-.07.74.28.41-1.22-.26-.5-.3-.14.82-.4-.17-.77" transform="translate(-56.28 -2.69)"/><path class="cls-3" d="M85.76,48.29c.28.3.33.11.69,0,.12,0-.72-.44-.69,0" transform="translate(-56.28 -2.69)"/><path class="cls-3" d="M86.46,49.17c0,.42.05.28.59.38.08,0-.3-.66-.59-.38" transform="translate(-56.28 -2.69)"/><path class="cls-3" d="M86.2,50.08c-.23.34-.1.33.2.59,0,.08.17-.74-.2-.59" transform="translate(-56.28 -2.69)"/><path class="cls-3" d="M83.09,51c0,.4.2.29.56.41.12.07-.29-.8-.56-.41" transform="translate(-56.28 -2.69)"/><path class="cls-3" d="M83.35,52.14c-.28.31-.13.25.23.67a.54.54,0,0,0-.13-.7s0,0-.1,0" transform="translate(-56.28 -2.69)"/><path class="cls-3" d="M82.5,52.63c-.39.12-.29.19-.21.58-.06.09.6-.48.21-.58" transform="translate(-56.28 -2.69)"/><path class="cls-3" d="M86.84,45.42c.2.36.29.19.67.16.13,0-.58-.61-.67-.16" transform="translate(-56.28 -2.69)"/><path class="cls-3" d="M87.53,46.53c-.13.41,0,.29.5.51a.56.56,0,0,0-.42-.57.06.06,0,0,0-.08.06" transform="translate(-56.28 -2.69)"/><path class="cls-3" d="M87.12,47.4c0,.07-.29.26-.12.36l.23.25c0,.08.28-.7-.11-.61" transform="translate(-56.28 -2.69)"/><path class="cls-11" d="M104.12,63.93,94.61,40.47l-9,23.46Zm28.44,26.72H102.81V89.6c16.19-.71,4-16.51,1.68-24.67L85.3,64.81C82.83,72.63,73,88.12,86.69,89.6v1.05H66.4V89.6c9.15-1.17,10.52-9.88,14.22-18.07l16.57-42.7h2.58l19.71,47.59c3.3,7.69,4.63,12.8,13.08,13.18Z" transform="translate(-56.28 -2.69)"/><path class="cls-3" d="M64.58,64a15,15,0,0,1-2.48-.68c0,.25-.06.37-.06.56.44.06,1.92.18,2.54.18Zm.07.74h-.07v-.06c-.62,0-2.1.19-2.54.19,0,.18.06.37.06.62.31-.13,2.05-.69,2.48-.81Zm2.54-3.65c0,.47-.64.59-.93.43.18,1.63,2.36.64,2.16-.8.25-1.2-2.29-3.14-3-1a2.87,2.87,0,0,1-.62-.68A4.47,4.47,0,0,0,63,60.9a6,6,0,0,0,3,1.67c-1.38-1,.54-3.68,1.18-1.48m-1.62,6.32a1.49,1.49,0,0,1,.5-1.18L66,66.17a5.55,5.55,0,0,0-3,1.73,4.8,4.8,0,0,0,1.8,1.86,2,2,0,0,1,.62-.68c.68,2.14,3.22.21,3-1,.2-1.41-2-2.47-2.1-.81.28-.29.83,0,.87.44,0,1.26-1.85.69-1.62-.31M62,61.27c-3.07-2.46-.64-3.7.56-.93,1.91-3.15,5.82-3.41,6.51.31-.48,4.11-4.76,2.46-6.51,1.06a2.62,2.62,0,0,0-.31.74A13.8,13.8,0,0,0,67.87,64c1.84-1.7,1.6,2.59,0,.74a13.8,13.8,0,0,0-5.58,1.55c.06.25.25.62.31.81,1.75-1.39,6.05-3.1,6.51,1.05-.71,3.68-4.59,3.49-6.51.31-1.27,2.87-3.6,1.41-.5-1-.12-.25-.3-.68-.37-.87A26,26,0,0,1,59.26,68c-1.44-.8-.82-1.73,2.29-2.36a4,4,0,0,1-.13-.74c-1.3-.13-4.75,1.47-5.14-.56.39-2.06,3.84-.36,5.14-.56a3.47,3.47,0,0,1,.13-.68c-3.12-.71-3.73-1.61-2.29-2.35a28.06,28.06,0,0,1,2.47,1.42c.07-.18.25-.68.31-.93" transform="translate(-56.28 -2.69)"/><path class="cls-3" d="M71.65,64.22a.72.72,0,0,0-.56-.64v.64Zm-.93,0v-.64a.65.65,0,0,0-.63.64Zm.37.22v.64a.6.6,0,0,0,.56-.64Zm-1,0a.61.61,0,0,0,.63.64v-.64Zm1-5.29a1.89,1.89,0,0,0,.34,1.26v.08c-.55.55-.27,2.15-.34,2.87a.91.91,0,0,1,.79.86l.15-.08c.34-.7.29,1.23,0,.38h-.15a.9.9,0,0,1-.79.78c.07.75-.21,2.26.34,2.87v.08c-.32.4-.7,2.54.07,2.27,0-.37.15-2.09.23-2.65-.39-.31-.16-.94.22-1.15.69-1.56-.29,3.22-.07,4.1.45.48-.26,1.2-.3.15,0-.27-.31-.23-.49-.23v5.93c.94-.17.86,1,0,.79-.09,2,.24,3.9.56,4.1v.11A2.19,2.19,0,0,0,70.94,83h-.07a1.81,1.81,0,0,0-.71-1.31v-.11c.4-.2.54-2.06.49-4.1-1,.14-.83-1,.07-.79V70.74c-.18,0-.49,0-.48.23,0,.6-.49.76-.45.26.47-1.33-.66-4.42-.15-4.92.09.38.65.68.67,1.19-.47.61,0,2.45-.07,3,.92.27.41-1.87.15-2.27v-.08c.48-.68.3-2.1.33-2.87a.9.9,0,0,1-.78-.78h-.23c-.31.9-.45-1.15.08-.38l.15.08c0-.3.3-.86.78-.86,0-.75.15-2.24-.33-2.87.18-.55.83-2.57-.15-2.35.07.58-.41,2.41.07,3,0,.51-.58.81-.67,1.19-.51-.5.62-3.59.15-4.92,0-.5.44-.34.45.26,0,.27.3.23.48.22V52c-.9.2-1-.93-.07-.79.08-2.05-.2-3.9-.56-4.1V47a1.88,1.88,0,0,0,.71-1.31h.07A2.14,2.14,0,0,0,71.58,47v.11c-.32.18-.56,2.08-.49,4.1.86-.17.93,1,0,.79v5.92c.68.22.37-.8.79-.78.23.06.15.6,0,.71-.22.88.76,5.66.07,4.1-.37-.21-.61-.83-.22-1.15-.08-.56-.23-2.28-.23-2.65C70.86,57.94,71.16,58.83,71.09,59.15Z" transform="translate(-56.28 -2.69)"/><path class="cls-3" d="M129.25,50.93c8.35-3.46,7.08,4.12-.3.18l.3-.18m-.57.35.16-.1c9,5.27,7.85-5-.56-.63-3.88-4,.41-9.31,5.68-9.14,4.52,0,6.52,4.14,3.8,6-2.37,1.87-8.27.55-6.56-3.2-2,2.44,1.44,5.09,3.89,4.61,8.21-1.8,2.1-9.94-3.36-7.79-4.18.77-6.9,6.39-3.53,9.53a3.83,3.83,0,0,0-1.69,4.24,4.21,4.21,0,0,1,2.17-3.56" transform="translate(-56.28 -2.69)"/><path class="cls-3" d="M98.7,36a.59.59,0,0,0-1.1.44A.59.59,0,0,0,98.7,36" transform="translate(-56.28 -2.69)"/><path class="cls-3" d="M100.69,38.12c-.4.2-2-.48-1.71-1,1,.51,1.83-1.68.42-1.42-.62.28.24.87-.17,1-.19.17-.6,0-.9,0a1,1,0,0,1-.57.54c-.19.09-.24,0-.23-.17-.87-1.58-1.51,1.24.15.73,1.41-1.33.54,1.17,0,1.43-.74.46.56,1.13.81.37.5-.48.12-1.86.39-2,.45.62,1.91,2,2.3.76.07-.39-.2-.42-.45-.38" transform="translate(-56.28 -2.69)"/><path class="cls-3" d="M99.55,41.84c1.07,0,.82.5.77,1.23.42.91,1.61-.25.69-.68-1.19-.24,1-1.81-.47-1.62,1-.72-.65-.65-.83-1,0-.51.3-1.44-.61-1.21-.83.47,0,.93.37,1.3.12.39-1.15,1.5.09,1.31-.48.19-.34.65,0,.68" transform="translate(-56.28 -2.69)"/><path class="cls-3" d="M101.66,42.22a4.09,4.09,0,0,0-.31,2c-.48-.57-1.91-2.08-2.38-.8-.07.38.19.41.45.37a1.91,1.91,0,0,1,1.63.62c.51.62-.13.13-.62.39-.79.27-.57,1.69.27,1.37.63-.28-.23-.87.18-1,.18-.16.61,0,.9-.05a1,1,0,0,1,.57-.54c.18-.09.24,0,.23.18.06.73,1.24.47.88-.31a.82.82,0,0,0-1-.43c-1.41,1.32-.55-1.16,0-1.43.77-.46-.59-1.15-.8-.37" transform="translate(-56.28 -2.69)"/><path class="cls-3" d="M102.51,45.52a.59.59,0,0,0-1.1.44.59.59,0,0,0,1.1-.44" transform="translate(-56.28 -2.69)"/><path class="cls-3" d="M104.49,47.69c-.39.19-2-.48-1.7-1,1,.52,1.82-1.68.42-1.41-.62.28.23.86-.17,1-.19.16-.61,0-.91,0a1,1,0,0,1-.56.53c-.19.1-.24,0-.24-.17-.87-1.57-1.5,1.24.15.74,1.4-1.32.56,1.15,0,1.43-.75.46.55,1.13.8.37.51-.48.12-1.87.4-2,.44.61,1.9,2,2.3.75.07-.39-.2-.41-.46-.37" transform="translate(-56.28 -2.69)"/><path class="cls-3" d="M103.36,51.41c1.07,0,.82.5.77,1.23.42.91,1.6-.26.68-.68-1.18-.24,1-1.81-.46-1.63,1.05-.71-.65-.65-.83-1,0-.5.3-1.43-.62-1.2-.82.46,0,.92.38,1.3.12.38-1.16,1.5.09,1.3-.49.2-.34.65,0,.69" transform="translate(-56.28 -2.69)"/><path class="cls-3" d="M105.47,51.79a4,4,0,0,0-.31,2c-.49-.57-1.92-2.09-2.39-.81-.07.39.2.41.46.37a1.9,1.9,0,0,1,1.63.63c.51.61-.13.13-.63.39-.78.26-.57,1.69.28,1.37.62-.29-.23-.87.17-1a1,1,0,0,1,.78,0c.27-.14.44-.57.69-.58s.24,0,.24.17c0,.73,1.23.47.88-.31s-1.4-.5-1.58,0c-.55-.14.16-1.73.58-1.87.76-.45-.59-1.14-.8-.36" transform="translate(-56.28 -2.69)"/><path class="cls-3" d="M106.31,55.09a.59.59,0,0,0-1.1.44.59.59,0,0,0,1.1-.44" transform="translate(-56.28 -2.69)"/><path class="cls-3" d="M108.3,57.25c-.39.2-2-.48-1.7-1,1,.51,1.82-1.69.41-1.42-.62.28.24.87-.17,1-.19.16-.6,0-.9,0a1,1,0,0,1-.57.53c-.18.09-.24,0-.23-.17-.87-1.57-1.5,1.24.15.74,1.4-1.32.56,1.15,0,1.42-.75.46.55,1.13.8.37.5-.48.12-1.87.39-1.95.45.61,1.91,2,2.3.75.07-.39-.19-.42-.45-.38" transform="translate(-56.28 -2.69)"/><path class="cls-3" d="M107.17,61c1.07,0,.81.49.77,1.22.42.91,1.6-.25.68-.68-1.18-.24,1-1.81-.47-1.62,1-.72-.65-.65-.82-1,0-.51.3-1.43-.62-1.21-.82.47,0,.93.37,1.3.12.39-1.15,1.51.1,1.31-.49.19-.35.65,0,.69" transform="translate(-56.28 -2.69)"/><path class="cls-3" d="M109.27,61.35a4.09,4.09,0,0,0-.3,2c-.49-.56-1.92-2.08-2.39-.8-.07.38.2.41.45.37.4-.19,2,.48,1.71,1-1-.51-1.83,1.69-.42,1.42.62-.28-.24-.87.17-1,.19-.16.61,0,.9,0a1,1,0,0,1,.57-.54c.19-.09.24,0,.23.18.06.73,1.24.47.88-.31-.21-.7-1.39-.51-1.57,0-.55-.14.16-1.74.58-1.87.76-.46-.6-1.15-.81-.37" transform="translate(-56.28 -2.69)"/><path class="cls-3" d="M110.12,64.65a.59.59,0,0,0-1.1.44.59.59,0,0,0,1.1-.44" transform="translate(-56.28 -2.69)"/><path class="cls-3" d="M112.1,66.82c-.39.19-2-.48-1.7-1,1,.51,1.83-1.69.42-1.42-.62.28.24.86-.17,1-.19.16-.61,0-.9,0a1,1,0,0,1-.57.53c-.19.1-.24,0-.24-.17-.86-1.57-1.5,1.25.16.74,1.4-1.32.55,1.15,0,1.43-.76.46.54,1.13.79.37.51-.48.13-1.87.4-2,.44.62,1.9,2,2.3.75.07-.38-.2-.41-.46-.37" transform="translate(-56.28 -2.69)"/><path class="cls-3" d="M111,70.54c1.07,0,.82.5.77,1.23.42.91,1.61-.25.69-.68-1.19-.24,1-1.81-.47-1.63,1.05-.71-.65-.64-.83-1,0-.5.3-1.43-.62-1.2-.81.46,0,.93.38,1.3.12.38-1.15,1.5.1,1.3-.49.19-.35.66,0,.69" transform="translate(-56.28 -2.69)"/><path class="cls-3" d="M113.08,70.92a4.06,4.06,0,0,0-.31,2c-.48-.57-1.91-2.09-2.39-.81-.07.39.2.41.46.37a1.9,1.9,0,0,1,1.63.63c.51.61-.13.13-.62.39-.79.27-.57,1.69.27,1.37.63-.28-.23-.87.17-1,.19-.16.62,0,.91,0a1,1,0,0,1,.57-.53c.18-.1.24,0,.23.17.06.74,1.23.47.88-.31s-1.4-.5-1.58,0c-.55-.14.16-1.73.58-1.87.76-.46-.59-1.14-.8-.36" transform="translate(-56.28 -2.69)"/><path class="cls-3" d="M113.93,74.22a.6.6,0,0,0-1.11.44.6.6,0,0,0,1.11-.44" transform="translate(-56.28 -2.69)"/><path class="cls-3" d="M115.91,76.39c-.39.19-2-.48-1.7-1,1,.51,1.82-1.68.42-1.42-.62.28.23.87-.17,1-.19.16-.61,0-.91,0a1.06,1.06,0,0,1-.56.53c-.19.1-.24,0-.24-.17-.86-1.57-1.5,1.24.15.74,1.4-1.32.56,1.15,0,1.43-.75.46.55,1.12.8.36.51-.48.13-1.85.39-2,.45.62,1.91,2,2.31.76.06-.39-.2-.41-.46-.37" transform="translate(-56.28 -2.69)"/><path class="cls-3" d="M114.78,80.11c1.07,0,.82.49.77,1.22.42.92,1.6-.25.68-.67-1.18-.25,1-1.81-.47-1.63,1-.71-.64-.65-.82-1,0-.51.3-1.43-.62-1.21-.82.47,0,.93.38,1.3.12.39-1.16,1.51.09,1.31-.49.19-.34.65,0,.69" transform="translate(-56.28 -2.69)"/><path class="cls-3" d="M116.89,80.48a3.9,3.9,0,0,0-.31,2c-.49-.57-1.91-2.09-2.39-.81-.07.38.2.41.46.37a1.92,1.92,0,0,1,1.63.62c.51.62-.13.14-.63.39-.78.27-.57,1.69.28,1.37.62-.28-.23-.86.17-1,.19-.16.61,0,.9-.05a1,1,0,0,1,.57-.54c.19-.09.24,0,.24.18,0,.73,1.23.47.88-.31s-1.4-.51-1.58,0c-.55-.14.16-1.74.58-1.87.76-.46-.6-1.15-.8-.37" transform="translate(-56.28 -2.69)"/><path class="cls-3" d="M117.73,83.79a.59.59,0,0,0-1.1.43.59.59,0,0,0,1.1-.43" transform="translate(-56.28 -2.69)"/><path class="cls-3" d="M119.72,86c-.4.19-2-.48-1.71-1,1,.51,1.83-1.69.42-1.42-.62.28.24.87-.17,1-.19.17-.61,0-.9,0a1,1,0,0,1-.57.54c-.19.09-.24,0-.23-.18-.86-1.57-1.51,1.25.15.74,1.4-1.32.56,1.15,0,1.43-.75.46.55,1.13.8.37.5-.48.12-1.86.39-2,.45.62,1.91,2,2.3.75.07-.38-.2-.41-.45-.37" transform="translate(-56.28 -2.69)"/><path class="cls-3" d="M119.59,87.91c-1.07,0-.82-.5-.77-1.23a.53.53,0,0,0-1,.39c.13.33.55.27.67.61s-1.15,1.5.1,1.3c.36-.11,2-.68,1-1.07" transform="translate(-56.28 -2.69)"/><path class="cls-3" d="M127.93,59.54c-26.12,2-46.6,3.5-54.57,5.14,8.44,1.73,28.92,3.19,54.57,5.14-.59,1.23-2,2.6-3.27,1.7-3-.39,3.81,6.4,5.38-5.56,2.69.15,6.22.82,9.5,0,.73-.16,1.45-.34,1.73.11,1.27,2.28,5.94,2.07,6.87-.38.27-.83,1.16-.27,1.3-1-.15-.7-1-.14-1.3-1-.93-2.45-5.6-2.66-6.87-.38-.28.45-1,.27-1.73.11-3.28-.86-6.8-.2-9.5,0-1.58-12-8.37-5.15-5.38-5.54,1.23-.91,2.68.46,3.27,1.69" transform="translate(-56.28 -2.69)"/><path class="cls-5" d="M146.49,64.61a.18.18,0,0,1-.07,0c-.1,0-.23,0-.31,0,0,.08-.17,0-.2.1-.19,0-.34.07-.51.09.07.15-.28,0-.2.21a.14.14,0,0,0,.13-.05c.18.11-.05.12-.07.2s.4.13.19.26a.69.69,0,0,0,.19.1l.07,0c.11.07.13.19.25.26V66a3,3,0,0,0-.46.3c-.09,0-.19,0-.25,0a1.65,1.65,0,0,1-.45-.11c.12,0,0-.17.13-.2-.09,0-.19,0-.25-.06l.13-.1c0-.18.12-.33.13-.51-.12,0,0,.12-.13.1.08.25-.19.34-.26.51s-.19.13-.32.15,0,.08-.07.1-.21-.1-.25-.2h-.13l-.19-.15v-.1c.33-.2.71-.32,1-.55-.28-.06-.74.36-.89,0h-.13c-.39-.18-.39-.72.07-.52,0-.06.05-.15-.06-.2.19-.12.47.26.7.26l-.19-.15c0-.08.17,0,.2-.1a1.48,1.48,0,0,1-.32-.21c.09,0,.06-.1.07-.15l.12-.1a.11.11,0,0,1-.12-.06.49.49,0,0,1,.13-.2c.13,0,.16-.2.32-.15s.09.16.19.21V64l.06,0c0,.08.17,0,.19.1l-.06,0,.06.06c0,.1.06.21-.07.3a.58.58,0,0,1,.06.36c.07-.08.15-.15.13-.26l-.12-.1v-.15a.89.89,0,0,1,.26-.25c.09,0,.06.09.06.15s.11-.08.19,0l.13-.1c.09,0,.19,0,.26-.05A.14.14,0,0,1,146,64c.14,0,.26-.1.38.06v.1c-.09.09-.22,0-.32,0s-.1.1-.13.15l-.07-.05-.06.05c0,.11.11.11.19.1l.13-.1h.45l.12.1-.06,0c-.06,0-.14,0-.13,0" transform="translate(-56.28 -2.69)"/><path class="cls-5" d="M146.09,65.73l.12.1h.13a.46.46,0,0,0,.13-.21.29.29,0,0,1-.12-.25.12.12,0,0,0,.12.05c.11-.08.25-.06.2-.25a2.66,2.66,0,0,1-.31-.26,1.51,1.51,0,0,1-.52-.06l-.19.15s.08.06.06.1,0-.11-.12-.1-.22,0-.26.1a1.56,1.56,0,0,1,.76.52v.1" transform="translate(-56.28 -2.69)"/><path class="cls-5" d="M145.43,62.86c0,.19.3.07.45.11s.16,0,.18.1h.32v.1a.14.14,0,0,0,.13,0c.1-.12.3,0,.38.11s.06.18.13.25.06-.09.06-.15a.11.11,0,0,0,.13,0,2.48,2.48,0,0,0-1.39-.83c0-.08-.17,0-.19-.1A3.58,3.58,0,0,0,142,63.7a4.23,4.23,0,0,0-.13.51c-.1,0,0,.13-.14.15.08.15,0,.32.13.46s-.11.22-.26.3a3.09,3.09,0,0,0,.43,1,1.52,1.52,0,0,1,.31.31.14.14,0,0,1,.13,0c.15.11-.17,0-.07.1l.26.21c0-.07.12,0,.19,0l.06,0a.18.18,0,0,0,.07,0l.06,0c.11,0,.05-.13.07-.2l-.07,0-.06,0c-.28-.2-.42-.48-.69-.67,0-.11-.11-.2-.06-.31-.1-.05-.11-.15-.19-.21s.05-.15-.06-.2c.13-.13,0,.13.13.05s0-.13.13-.15-.1-.24-.12-.36.06-.1.06-.15,0-.38,0-.57c.09,0,.06-.09.06-.15.39-.29.8-.55,1.17-.86.37,0,.65-.32,1-.34.06,0,.15,0,.19,0l.06,0c.11.1.26,0,.38,0s.17,0,.19.11l-.06.05c.08.1.21,0,.32,0" transform="translate(-56.28 -2.69)"/><path class="cls-5" d="M145.94,67.16h-.2s0,.08-.06.1a3.4,3.4,0,0,0-.9.09c0-.07-.12,0-.19,0s-.12,0-.19,0a1.38,1.38,0,0,0-.7-.11l-.13-.1a1.34,1.34,0,0,1-.7-.27c0-.05,0-.07.07-.1s.19,0,.25.06.19,0,.26,0c.09.12.29,0,.38.1s.15,0,.19,0l.07.06.06,0c0,.08.17,0,.19.1a5.67,5.67,0,0,1,.58,0,1.93,1.93,0,0,1,.64-.14c0-.09.09-.1.13-.15h.13c.07-.08.2-.11.26-.2s.15,0,.19,0c.08-.08.23-.07.32-.15l.06,0c.11,0,.21-.08.32,0s-.07-.13-.06-.2.09-.12.19-.1a.81.81,0,0,0,0-.16c.1,0,.12-.14.19-.2s0-.07,0-.1.12-.05.19-.05,0-.08-.06-.1c.12-.14,0-.33.13-.46.05.08.18.09.25.15a1.5,1.5,0,0,1-.13.62l-.07-.06s0,.08-.06.11a.13.13,0,0,0-.13-.06c.12,0,0,.18-.07.16l.13.1c-.06.24-.36.34-.46.56A6.28,6.28,0,0,1,145.94,67.16Z" transform="translate(-56.28 -2.69)"/><path class="cls-3" d="M141,65.12c-.09,0-.06.1-.06.15s.08.06.06.1-.08,0-.06.1l.19.16.12-.1c0-.06,0-.12.07-.15s0-.17-.06-.26,0-.13.07-.2l-.07,0s.09-.06.07-.11-.08-.05-.06-.1l.06,0c0-.07-.12,0-.19,0l-.13.1c0,.1.06.22-.07.3a.25.25,0,0,0,.06.16" transform="translate(-56.28 -2.69)"/><path class="cls-5" d="M140.53,65.37l.13-.1c-.1-.12-.21-.14-.32,0l-.06-.05c.1,0,0-.13.13-.15l-.13-.1a2.28,2.28,0,0,0-.64,0l-.13-.1c-.08,0-.19,0-.25,0a.12.12,0,0,0,.12,0l-.06,0-.06,0a.14.14,0,0,1-.13,0c0-.14-.17-.1-.26-.11s0-.08-.06-.1c-.25-.06-.19.18-.2.36a.1.1,0,0,0-.12,0s.08.06.06.11,0-.16-.13-.16,0,.17-.13.21c0-.11.07-.22-.06-.31-.15.14,0,.31-.07.46s.17,0,.26,0a1.86,1.86,0,0,0,.7-.3c.09,0,.28,0,.26-.1s.33.06.32-.1l.07.06.06,0a.55.55,0,0,0,.32.1.14.14,0,0,0-.13.05l.06,0a.55.55,0,0,1-.26.1c-.12-.15-.23,0-.19.15l.19.16.2-.15h.19a.87.87,0,0,1,.32-.2" transform="translate(-56.28 -2.69)"/><path class="cls-3" d="M140,64.7a1,1,0,0,0,.25.26l.06,0c0,.08.17,0,.19.1l.13-.1c-.09,0,0-.1-.06-.15a.12.12,0,0,0-.13-.06.31.31,0,0,0,0-.1.11.11,0,0,0-.19,0c-.1,0,0-.14-.13-.16a.11.11,0,0,1-.13,0c-.08-.11-.31,0-.26.1s.2,0,.26.11" transform="translate(-56.28 -2.69)"/><path class="cls-5" d="M137.14,65.59c.12,0,0,.12.12.1l.07,0c.07.07.18.17.25.06s.11.08.19,0,.18-.09.26-.15,0-.12.07-.15l-.07-.06a.18.18,0,0,0,.07,0c-.18-.15.06-.36-.12-.51,0,.07-.12,0-.19,0s.07.12-.07.1l-.06,0,.06-.05c0-.07-.12,0-.19,0l-.06,0c.21.16-.16.16-.26.15s0-.08-.06-.1-.07.14-.14.2,0-.08-.06-.11a.1.1,0,0,1-.13,0c0-.06,0-.13,0-.2-.19-.19-.21.14-.2.25-.13-.44-.39-.24-.7,0a.13.13,0,0,0,.13,0c0,.06,0,.12.06.15s.17,0,.25,0a.52.52,0,0,0,.32.11l.19.16a.34.34,0,0,1,.26,0" transform="translate(-56.28 -2.69)"/><path class="cls-5" d="M135.59,66s.07-.06.13,0,0,.08.07.11.25,0,.38,0,.26,0,.38.11l.13-.1a.59.59,0,0,0-.57-.27c-.2-.11-.43-.19-.64-.31,0,.07-.12,0-.19,0s0,.24-.07.36a.14.14,0,0,0,.13.05l-.06,0c.08.1.21,0,.31,0" transform="translate(-56.28 -2.69)"/><path class="cls-5" d="M135.75,64.35c-.07.11-.25,0-.32.1l-.06-.06c-.11,0,0,.14-.13.16a.12.12,0,0,0,.12,0c-.05.19.09.18.19.26s.14-.11.26-.21a.14.14,0,0,0-.13-.05s0-.07.07-.1.11-.08.19,0l.13-.1c-.12,0,0-.17-.13-.21s-.2.1-.19.21" transform="translate(-56.28 -2.69)"/><path class="cls-5" d="M134,65.35l.13-.1c.09,0,.27,0,.25-.1s.15,0,.19-.05L134.4,65c-.1,0-.14,0-.13.1s-.24,0-.32,0,0,.1,0,.15-.22,0-.19.1a.14.14,0,0,1-.13,0,.13.13,0,0,1-.13,0c.06-.16-.17-.22-.25-.11s.08.06.06.11a.11.11,0,0,1-.12-.06c-.11,0-.06.14-.07.21s.17,0,.25,0a.11.11,0,0,1,.19,0l.46-.2" transform="translate(-56.28 -2.69)"/><path class="cls-3" d="M129,64.63h.12l.19-.15v-.1a.13.13,0,0,0-.13,0l-.12.1h-.19l-.12.1C128.72,64.66,128.94,64.63,129,64.63Z" transform="translate(-56.28 -2.69)"/><path class="cls-3" d="M129.44,64.93c0,.09.1.1.13.15s.19,0,.25,0v-.2l.13-.1s0-.07-.07-.1c-.14.16-.53-.09-.56.15a.29.29,0,0,1,.12.15" transform="translate(-56.28 -2.69)"/><path class="cls-3" d="M129.51,64.13a.14.14,0,0,0-.13.05c.16.11.34,0,.5,0l.07,0c-.14-.05,0-.2-.13-.25s-.17.17-.31.2" transform="translate(-56.28 -2.69)"/><path class="cls-3" d="M129.44,63.83a.09.09,0,0,0-.06.1l.06,0c0-.08.17,0,.19-.1s-.11-.06-.19-.05" transform="translate(-56.28 -2.69)"/><path class="cls-5" d="M128.84,69.74c.11,0,.06-.17,0-.25.3-.17.66-.92.36-1.2.11-.25.46-.6.37-1l.13-.1c-.07-.19.08-.47.17-.72s0-.58.18-.89c-.1-.11-.12-.18-.31-.15l-.13-.1c-.06,0-.14,0-.19.05l.13.1c.11,0,.2.08.31.1,0,.14-.25,0-.31.1a.11.11,0,0,0,.13,0s.08,0,.06.1l-.06.05s.08,0,.06.1-.19,0-.25,0,.12,0,.19,0,.17.06.18.15-.14,0-.18,0,0,.11.12.17-.08.13-.06.23c-.14,0-.16.11-.25.15.12.05.05.18-.07.15s-.3,0-.24.1.24.05.31.16-.15,0-.19-.06,0,.19-.12.25.07.06.06.11l-.19.15s.1,0,.15,0,.09-.06.11,0-.07.1-.07.15-.34,0-.23-.22a.12.12,0,0,0,.13,0c.06-.12,0-.15-.15-.14v-.15a.32.32,0,0,0,.12-.2c-.1,0,0-.13-.06-.2s.09,0,.13-.05c-.15-.07,0-.28-.19-.25v-.15l-.13-.1s0-.12-.06-.15,0,.14-.06.2c.14.26,0,.54.12.8,0,0-.08.06-.06.1s.06.1.06.15l-.06.06c.1.2-.16.57-.06.85l-.13.1a1.87,1.87,0,0,1-.12.65c-.12.08-.08.22-.19.3-.06.5-.57.88-.75,1.35-.24,0-.25.38-.38.55l.06,0-.06,0a.15.15,0,0,1,.06.2c-.2.21.15,0,.25,0l.07,0-.07,0-.06,0c-.12,0,0,.18.06.15s-.09,0-.12,0a.11.11,0,0,1-.13,0c0-.07,0-.11-.12-.1s-.08-.06-.08-.11,0,0,0,0,.07,0,.08-.1a1,1,0,0,0-.24-.22l-.25.2h-.12c-.08.06-.2.07-.26.15v.1c-.19-.05-.2.13-.31.2s0-.11-.06-.15a.11.11,0,0,1-.13,0c-.07.14-.24.22-.31.35s.08.05.06.1-.06.1-.06.15-.15,0-.19,0-.06.1-.06.15a1.49,1.49,0,0,1-.57-.3c-.06.35.16.37.13.57a2.51,2.51,0,0,0,1.24.15c0-.17.58-.56.72-.44.25-.26.39-.12.54-.29,0-.11.53-.27.47-.46s-.13-.32-.07-.38c.29,0,.37-.32.62-.27.07.16.11-.35.21-.48a1.7,1.7,0,0,0,.3-1" transform="translate(-56.28 -2.69)"/><path class="cls-12" d="M128.84,69.74c.11,0,.06-.17,0-.25.3-.17.66-.92.36-1.2.11-.25.46-.6.37-1l.13-.1c-.07-.19.08-.47.17-.72s0-.58.18-.89c-.1-.11-.12-.18-.31-.15l-.13-.1c-.06,0-.14,0-.19.05l.13.1c.11,0,.2.08.31.1,0,.14-.25,0-.31.1a.11.11,0,0,0,.13,0s.08,0,.06.1l-.06.05s.08,0,.06.1-.19,0-.25,0,.12,0,.19,0,.17.06.18.15-.14,0-.18,0,0,.11.12.17-.08.13-.06.23c-.14,0-.16.11-.25.15.12.05.05.18-.07.15s-.3,0-.24.1.24.05.31.16-.15,0-.19-.06,0,.19-.12.25.07.06.06.11l-.19.15s.1,0,.15,0,.09-.06.11,0-.07.1-.07.15-.34,0-.23-.22a.12.12,0,0,0,.13,0c.06-.12,0-.15-.15-.14v-.15a.32.32,0,0,0,.12-.2c-.1,0,0-.13-.06-.2s.09,0,.13-.05c-.15-.07,0-.28-.19-.25v-.15l-.13-.1s0-.12-.06-.15,0,.14-.06.2c.14.26,0,.54.12.8,0,0-.08.06-.06.1s.06.1.06.15l-.06.06c.1.2-.16.57-.06.85l-.13.1a1.87,1.87,0,0,1-.12.65c-.12.08-.08.22-.19.3-.06.5-.57.88-.75,1.35-.24,0-.25.38-.38.55l.06,0-.06,0a.15.15,0,0,1,.06.2c-.2.21.15,0,.25,0l.07,0-.07,0-.06,0c-.12,0,0,.18.06.15s-.09,0-.12,0a.11.11,0,0,1-.13,0c0-.07,0-.11-.12-.1s-.08-.06-.08-.11,0,0,0,0,.07,0,.08-.1a1,1,0,0,0-.24-.22l-.25.2h-.12c-.08.06-.2.07-.26.15v.1c-.19-.05-.2.13-.31.2s0-.11-.06-.15a.11.11,0,0,1-.13,0c-.07.14-.24.22-.31.35s.08.05.06.1-.06.1-.06.15-.15,0-.19,0-.06.1-.06.15a1.49,1.49,0,0,1-.57-.3c-.06.35.16.37.13.57a2.51,2.51,0,0,0,1.24.15c0-.17.58-.56.72-.44.25-.26.39-.12.54-.29,0-.11.53-.27.47-.46s-.13-.32-.07-.38c.29,0,.37-.32.62-.27.07.16.11-.35.21-.48A1.7,1.7,0,0,0,128.84,69.74Z" transform="translate(-56.28 -2.69)"/><path class="cls-5" d="M128.82,60.92c0,.1.14.08.12.15s.36.17.32,0c.06,0,.09,0,.12-.05s-.16-.23-.25-.35,0-.12.06-.15a.09.09,0,0,1-.06-.1.11.11,0,0,0,.13,0,.37.37,0,0,0-.13-.2.81.81,0,0,0-.31,0,.11.11,0,0,1-.13,0s0-.07.07-.1-.12,0-.19-.05.2-.18.25-.3l-.13-.1.13-.1a.14.14,0,0,0-.13,0c.09,0,.06-.09.07-.15l-.07-.05c0,.07-.12.05-.18.05v-.15c.13,0,.16-.11.25-.15s-.12,0-.19,0,0-.08.06-.1a.71.71,0,0,0-.25-.35v-.15c-.13-.06-.21-.38-.38-.2,0-.07.11-.12.07-.2s-.08-.05-.07-.1-.06-.07-.12,0,0-.08-.06-.1a.14.14,0,0,1-.13,0s0-.08-.06-.1.08,0,.06-.1l-.06-.05-.13.1.07,0c-.09,0-.06-.1-.07-.15l-.18-.15c0,.07-.12,0-.19.05s-.21,0-.25-.1c0,.08-.17,0-.19.1v-.1a.12.12,0,0,0,.12-.05s0-.08.07-.1A.12.12,0,0,0,127,57c0-.07-.12,0-.19,0s0,0,.07-.05-.27.05-.19.05,0,0,0,0-.07,0-.08.07c-.25,0-.22-.23,0-.1,0-.08.17,0,.19-.1s-.06-.07-.12,0a1.77,1.77,0,0,0-1.38-.25.69.69,0,0,1-.25.1,2.27,2.27,0,0,0-.32.3l.13.1s.08-.05.06-.1,0,.07.06.1l.13-.1a.88.88,0,0,0,.06.45c-.21.15.15.16.25.15s.34,0,.5-.05c0,.05,0,.07.07.1h.25a4,4,0,0,1,.81.55c.16,0,.22.05.19.2a.13.13,0,0,0,.13,0,11,11,0,0,0,.68,1c0,.18.16.32.13.5l.13.1c0,.07,0,.15.06.2s.08-.05.06-.1a.1.1,0,0,0,.13,0,6,6,0,0,0,.31.8" transform="translate(-56.28 -2.69)"/><path class="cls-12" d="M128.82,60.92c0,.1.14.08.12.15s.36.17.32,0c.06,0,.09,0,.12-.05s-.16-.23-.25-.35,0-.12.06-.15a.09.09,0,0,1-.06-.1.11.11,0,0,0,.13,0,.37.37,0,0,0-.13-.2.81.81,0,0,0-.31,0,.11.11,0,0,1-.13,0s0-.07.07-.1-.12,0-.19-.05.2-.18.25-.3l-.13-.1.13-.1a.14.14,0,0,0-.13,0c.09,0,.06-.09.07-.15l-.07-.05c0,.07-.12.05-.18.05v-.15c.13,0,.16-.11.25-.15s-.12,0-.19,0,0-.08.06-.1a.71.71,0,0,0-.25-.35v-.15c-.13-.06-.21-.38-.38-.2,0-.07.11-.12.07-.2s-.08-.05-.07-.1-.06-.07-.12,0,0-.08-.06-.1a.14.14,0,0,1-.13,0s0-.08-.06-.1.08,0,.06-.1l-.06-.05-.13.1.07,0c-.09,0-.06-.1-.07-.15l-.18-.15c0,.07-.12,0-.19.05s-.21,0-.25-.1c0,.08-.17,0-.19.1v-.1a.12.12,0,0,0,.12-.05s0-.08.07-.1A.12.12,0,0,0,127,57c0-.07-.12,0-.19,0s0,0,.07-.05-.27.05-.19.05,0,0,0,0-.07,0-.08.07c-.25,0-.22-.23,0-.1,0-.08.17,0,.19-.1s-.06-.07-.12,0a1.77,1.77,0,0,0-1.38-.25.69.69,0,0,1-.25.1,2.27,2.27,0,0,0-.32.3l.13.1s.08-.05.06-.1,0,.07.06.1l.13-.1a.88.88,0,0,0,.06.45c-.21.15.15.16.25.15s.34,0,.5-.05c0,.05,0,.07.07.1h.25a4,4,0,0,1,.81.55c.16,0,.22.05.19.2a.13.13,0,0,0,.13,0,11,11,0,0,0,.68,1c0,.18.16.32.13.5l.13.1c0,.07,0,.15.06.2s.08-.05.06-.1a.1.1,0,0,0,.13,0A6,6,0,0,0,128.82,60.92Z" transform="translate(-56.28 -2.69)"/><path class="cls-3" d="M129.13,62.58c0-.11-.15-.14-.19,0s-.17-.28-.18.1c.3.08.09.21.25.4.1-.05.11-.14.18-.2l-.06,0c.09,0,.08-.11,0-.15l-.06,0,.06-.1" transform="translate(-56.28 -2.69)"/><path class="cls-3" d="M129.32,61.67v.21c0,.08.22,0,.19-.05a.18.18,0,0,0-.07,0c.11-.06.05-.14.07-.21s-.17,0-.25,0a.61.61,0,0,0-.13-.15l.06,0c0-.08-.16,0-.18-.11-.14.13,0,.27-.07.41S129.21,61.66,129.32,61.67Z" transform="translate(-56.28 -2.69)"/><path class="cls-5" d="M125,60.7c0,.11-.09.26.06.32s.35,0,.5,0,1.71.55,1,.81c-.09,0-.14,0-.22,0a2.39,2.39,0,0,0-.85.37c-.47.18-1.32.35-1.1,1.06a.54.54,0,0,0,.93-.11c0-.05,0-.15.06-.18s0-.15.06-.23a1.49,1.49,0,0,1,.45-.32,1.57,1.57,0,0,1,.78-.28,3,3,0,0,1,1.24.18,1.67,1.67,0,0,1,.46.38c.09.26-.38,0-.49.15s.22.2.31.32.09.13.18.12.2.16.22.29.07.09.13.1c.11.24.28.51.19.77a.42.42,0,0,1,0,.25,0,0,0,0,0,0,0c0,.06,0,.1,0,.16-.84-.06-.09.53-.4,1a.84.84,0,0,1-.2.37s0,.08-.05.08-.35.4-.5.23a1.17,1.17,0,0,0-.1-.26,1.38,1.38,0,0,0-.27-.59c-.21-.41-.68-.59-.77-1a.9.9,0,0,1-.19-.15c-.08,0-.09-.09-.16-.11a2.44,2.44,0,0,0-.54,0s-.07.07-.12.06-.12.1-.2.1,0-.16,0-.26,0-.07,0-.09c0-.24.25-.32.4-.43s.11,0,.16,0a1.22,1.22,0,0,1,1.33.29.39.39,0,0,1,.17.21s.07,0,.07.06l0,0c0,.15.12.28.09.44s0,.45.26.36c.13-.25,0-.58,0-.84a1.48,1.48,0,0,0-1.09-1,1,1,0,0,0-.69,0,.51.51,0,0,0-.37.07c-.16,0-.21.15-.36.18s-.29.07-.43.1-.12,0-.13,0c-.31,0-.63,0-.79-.38a1.16,1.16,0,0,1-.18-.9c0-.06,0-.1,0-.16s0-.19.16-.23.14-.11.19-.19.21-.16.34-.15.15,0,.19-.09.14,0,.2,0,.14-.09.22,0,1.32.32.84-.15c-.11,0-.2,0-.31,0a2.45,2.45,0,0,0-1.26,0c-.41,0-.62.39-.85.68,0,0-.07,0-.07.07a2.52,2.52,0,0,0-.15,1s0,.05,0,.09a3,3,0,0,0,.24.54c0,.1.07.24,0,.32s0,.13-.12.14c-.17-.44-.53-.52-.89-.72a.72.72,0,0,1-.24-.18c0-.06,0,0,0-.08s-.1-.17-.2-.21-.17-.2-.15-.34a1.44,1.44,0,0,1,.38-1.37.26.26,0,0,1,0-.12c.16-.13.3,0,.27.17s0,.1,0,.14.14.14.21.06c.06-.27.32-.45.5-.62a.5.5,0,0,1,.31-.17c0-.07.17,0,.24-.1a1,1,0,0,0,.42-.1c.25.07.6-.12.78.13" transform="translate(-56.28 -2.69)"/><path class="cls-5" d="M121.35,62.59c0,.07.11.13.08.24.14.12,0,.34.23.42.15.35.51.69.57,1.06a.33.33,0,0,1,.12.17c.22.19.65.26.8-.07.09-.12.24-.06.22.1s0,.23-.05.36h0c-.16.21-.44.22-.65.28s-.3-.09-.45-.11-.12,0-.16-.1-.12-.1-.2-.1-.16-.09-.16-.19-.11-.17-.2-.23a.75.75,0,0,0-.07-.12c0-.14-.13-.25,0-.39s0-.16,0-.22-.06-.62-.26-.27c.06.14-.1.28,0,.4-.06.14,0,.29,0,.44s0,.08.13.24,0,.08,0,.13.06.1.09.15.16.24.31.3a1.66,1.66,0,0,0,1.17.37,2.27,2.27,0,0,0,.44,0,.79.79,0,0,1,.67,0,.23.23,0,0,1-.08.11.4.4,0,0,0-.31.25c-.22.12-.21.41-.29.62s-.21.16-.3.27-.2.06-.3.12a2,2,0,0,1-1.18.08c-.08,0-.14-.06-.21,0-.21-.17-.62-.23-.72-.47.08-.3.49.13.73,0,0,0,.07-.06,0-.1a0,0,0,0,1,0,0c-.37-.32-.82-.5-1-1-.12-.06,0-.18-.11-.26s-.09-.3-.12-.45,0-.07,0-.11,0-.1,0-.16c.28-.88.22,0,.56-.31,0-.12.08-.24,0-.35a2.25,2.25,0,0,1,0-.22s0-.05,0-.07c.08-.26.14-.58.41-.72,0-.12.16-.15.25-.08" transform="translate(-56.28 -2.69)"/><path class="cls-5" d="M125.4,65.09c.06.15.26.17.39.26s.32.12.5.11.17.08.27.1a6.77,6.77,0,0,1,.55.51,1.78,1.78,0,0,1,.09.33c.06,0,0,.14,0,.18a1,1,0,0,0,0,.24c0,.13,0,.3-.05.42s0,.21-.09.27c0,.25-.93,1.23-.91.66,0-.19.15-.3.18-.47-.28-.49-.5.33-.82.36a1.72,1.72,0,0,1-1.18.45c-.13.14-.28-.06-.42.06s-.22,0-.29,0c-.83-.07.84-.65-.76-.42-.06,0-.13,0-.17,0-.24.09-.34-.18-.56-.19a.27.27,0,0,0-.21-.14c-.08,0-.1-.1-.15-.16v0h0c-.2-.28.39-.12.53-.2a1.14,1.14,0,0,0,.63-.26c.53-.31,1.86-.51,1.38-1.36,0-.06-.17-.08-.13-.17s.22,0,.32,0,.14.16.24.22.08.14.1.22,0,.14.09.2a4.28,4.28,0,0,1,0,.46c0,.07-.07.11,0,.19s-.1.11-.12.18-.22.22-.38.21-.3.1-.43.2-.21,0-.3,0-.35-.06-.44.08.16.24.28.21.2,0,.27,0a1.61,1.61,0,0,0,1.55-.88c0-.07.08-.16,0-.23.18-.14.12-.42,0-.63a2.61,2.61,0,0,0-.28-.66s0-.07,0-.12,0-.14.12-.16v0c.09,0,.07.1.12.13" transform="translate(-56.28 -2.69)"/><path class="cls-5" d="M114.61,61.67c0,.09-.08.21,0,.25s.27,0,.39,0,1.34.43.81.63c-.08,0-.11,0-.18,0a2.29,2.29,0,0,0-.66.29c-.36.14-1,.28-.86.83a.42.42,0,0,0,.73-.08s0-.12,0-.15,0-.11,0-.17a1.09,1.09,0,0,1,.35-.25,1.16,1.16,0,0,1,.61-.22,2.36,2.36,0,0,1,1,.14,1.43,1.43,0,0,1,.36.29c.07.21-.3,0-.38.12s.17.16.24.26.07.09.14.09.16.12.17.22.06.07.1.08c.08.18.22.39.15.6a.3.3,0,0,1,0,.19s0,0,0,0,0,.08,0,.13c-.64,0-.08.44-.32.8a.59.59,0,0,1-.15.28s0,.07,0,.07-.27.31-.39.18a.6.6,0,0,0-.08-.2,1.05,1.05,0,0,0-.21-.47c-.16-.31-.53-.46-.6-.82l-.15-.11c-.14-.13-.34-.1-.54-.09,0,0-.06.06-.1.05a.3.3,0,0,1-.15.07s0-.12,0-.19,0-.06,0-.08c0-.18.19-.24.31-.33.38-.07.9-.15,1.16.22a.68.68,0,0,1,.24.59c.13.74.34,0,.18-.38a1.16,1.16,0,0,0-.85-.79.83.83,0,0,0-.54,0,.41.41,0,0,0-.29.06c-.13,0-.16.11-.28.14s-.22.05-.34.07-.09,0-.1,0c-.24,0-.49,0-.61-.29a.87.87,0,0,1-.14-.71s0-.07,0-.12,0-.14.13-.18.11-.08.15-.15.16-.12.27-.12.11,0,.14-.06.12,0,.16,0,.11-.07.17,0,1,.25.66-.12a1,1,0,0,1-.24,0,1.85,1.85,0,0,0-1,0,.42.42,0,0,0-.28.12,1.61,1.61,0,0,0-.38.4s0,0,0,.06a1.83,1.83,0,0,0-.12.79s0,.05,0,.08a2,2,0,0,0,.18.42c0,.13,0,.29-.13.36-.14-.35-.42-.41-.7-.56a.44.44,0,0,1-.18-.15s0,0,0-.06-.07-.13-.15-.16-.14-.16-.12-.26a1.13,1.13,0,0,1,.3-1.08s0-.06,0-.09.23,0,.21.13,0,.08,0,.11.11.11.17.05c0-.21.24-.35.38-.49a.46.46,0,0,1,.24-.12c0-.06.14,0,.19-.08a.73.73,0,0,0,.33-.08c.2,0,.47-.09.61.1" transform="translate(-56.28 -2.69)"/><path class="cls-5" d="M111.8,63.14c0,.06.08.11.07.19s0,.27.17.33c.12.26.4.53.45.83.05,0,.07.08.09.12.17.17.53.2.63,0s.18,0,.17.07,0,.19,0,.28h0c-.12.16-.35.17-.51.22s-.23-.07-.35-.08-.09,0-.13-.09-.09-.07-.15-.07-.12-.07-.13-.15-.08-.13-.15-.18,0-.06,0-.09-.11-.2,0-.3,0-.13,0-.18,0-.48-.21-.21c0,.11-.07.22,0,.31s0,.23,0,.34a.39.39,0,0,0,.1.19s0,.06,0,.1,0,.08.07.12.13.19.24.23a1.34,1.34,0,0,0,.92.3,2.14,2.14,0,0,0,.34,0,.59.59,0,0,1,.52,0c-.06.13-.27.11-.3.27s-.16.32-.23.48-.17.13-.23.22a1.7,1.7,0,0,1-.24.09,1.5,1.5,0,0,1-.92.06c-.06,0-.11,0-.16,0a2.8,2.8,0,0,0-.3-.15c0-.11-.28-.08-.27-.22s.57.23.6-.07c0,0,0,0,0,0-.29-.25-.64-.39-.79-.76-.1,0,0-.14-.09-.2s-.07-.24-.09-.35,0,0,0-.09,0,0,0,0,0-.07,0-.08c.21-.67.16,0,.43-.24,0-.1.07-.19,0-.27a.85.85,0,0,1,0-.17.11.11,0,0,1,0-.06c.06-.2.11-.45.32-.56,0-.1.12-.12.19-.07" transform="translate(-56.28 -2.69)"/><path class="cls-5" d="M115,65.1c0,.12.2.13.3.2s.25.09.4.09l.21.07a5.33,5.33,0,0,1,.42.4.77.77,0,0,1,.07.26s0,.1,0,.14a.73.73,0,0,0,0,.18c0,.1,0,.24,0,.33s0,.17-.07.21c-.1.26-.36.63-.69.65a.08.08,0,0,1,0-.13c0-.15.11-.23.13-.37-.21-.39-.39.26-.64.28a1.29,1.29,0,0,1-.91.35c-.11.11-.23-.05-.33,0s-.17,0-.23,0c-.67-.06.7-.5-.59-.33,0,0-.11,0-.14,0s-.26-.15-.43-.15a.19.19,0,0,0-.17-.11,1.27,1.27,0,0,1-.11-.13v0h0c-.15-.22.28-.1.42-.16.47-.22,2-.55,1.57-1.26,0,0-.14-.06-.11-.13s.17,0,.25,0,.11.12.19.17a3.31,3.31,0,0,0,.15.33c0,.11,0,.23,0,.36s0,.08,0,.15-.08.08-.09.13-.17.18-.3.18-.13,0-.17.09a.34.34,0,0,0-.16,0c-.08,0-.17,0-.24,0s-.27,0-.34.06,0,.11,0,.13.12.08.18,0,.16,0,.21,0a1.27,1.27,0,0,0,1.21-.69s.07-.13,0-.18c.14-.1.09-.32,0-.48s0,0,0,0a2.89,2.89,0,0,0-.21-.49s0,0,0-.08,0-.12.09-.13h0c.07,0,0,.07.09.1" transform="translate(-56.28 -2.69)"/><path class="cls-5" d="M105.89,62.27c0,.07-.06.16,0,.19s.21,0,.3,0,1.06.34.64.5c-.06,0-.08,0-.14,0a1.62,1.62,0,0,0-.52.23c-.29.11-.81.22-.67.65a.33.33,0,0,0,.57-.06s0-.1,0-.12,0-.09,0-.14a.91.91,0,0,1,.28-.19,1.39,1.39,0,0,1,1.24-.07,1.27,1.27,0,0,1,.28.24c0,.16-.23,0-.3.09s.13.12.19.2,0,.07.11.07.12.1.14.18,0,.06.08.06c.06.15.17.3.11.47a.25.25,0,0,1,0,.15s0,0,0,0,0,.06,0,.1c-.47-.06-.07.35-.24.62a.59.59,0,0,1-.13.23s0,.05,0,.05-.21.25-.31.14a.31.31,0,0,0-.06-.16.89.89,0,0,0-.16-.36c-.11-.23-.41-.36-.48-.65l-.11-.08s0-.06-.1-.07a1.22,1.22,0,0,0-.33,0s0,0-.07,0a.2.2,0,0,1-.12.06s0-.1,0-.15,0,0,0-.06.15-.19.24-.26.07,0,.1,0a1,1,0,0,1,.61,0c.06.06.18.08.21.17s.09.12.15.16l0,0a.6.6,0,0,1,0,.26c.1.58.27,0,.14-.29a.87.87,0,0,0-.67-.62.55.55,0,0,0-.42,0,.36.36,0,0,0-.23.05c-.1,0-.13.09-.22.11s-.17,0-.26.06-.07,0-.08,0c-.17,0-.39,0-.48-.22a.67.67,0,0,1-.11-.56s0-.06,0-.09,0-.12.11-.14.09-.07.11-.12.13-.1.21-.1.09,0,.12,0,.09,0,.12,0,.09-.06.14,0,.8.2.51-.09l-.19,0a1.44,1.44,0,0,0-.77,0c-.25,0-.38.24-.52.41a.07.07,0,0,0,0,.05,1.48,1.48,0,0,0-.09.62s0,0,0,.06a1.64,1.64,0,0,0,.14.33c0,.1,0,.23-.1.28-.1-.26-.32-.32-.55-.44a.53.53,0,0,1-.15-.11s0,0,0,0,0-.1-.12-.13-.1-.12-.09-.2a.92.92,0,0,1,.23-.85.1.1,0,0,1,0-.07c.09-.08.18,0,.16.11s0,0,0,.08a.08.08,0,0,0,.13,0c0-.17.2-.28.3-.38a.32.32,0,0,1,.19-.1s.11,0,.15-.07a.48.48,0,0,0,.26-.06c.15,0,.37-.07.48.08" transform="translate(-56.28 -2.69)"/><path class="cls-5" d="M103.68,63.43a.23.23,0,0,1,0,.15c.09.07,0,.21.14.25.09.21.31.42.35.65a.3.3,0,0,1,.07.1c.14.13.42.16.49,0s.15,0,.14.06,0,.14,0,.21h0c-.1.13-.27.14-.4.18s-.18-.06-.28-.07-.07,0-.1-.06-.07-.06-.12-.06-.09-.06-.1-.12-.06-.1-.12-.14,0,0,0-.08-.08-.15,0-.23,0-.1,0-.14,0-.38-.16-.17c0,.09-.06.18,0,.25a.62.62,0,0,0,0,.27.44.44,0,0,0,.08.15s0,0,0,.07,0,.07.06.1.1.15.19.18a1,1,0,0,0,.72.23,1.32,1.32,0,0,0,.27,0,.46.46,0,0,1,.41,0,.1.1,0,0,1,0,.06.31.31,0,0,0-.19.16c-.14.07-.13.24-.18.38s-.13.1-.18.17-.13,0-.18.07a1.21,1.21,0,0,1-.73,0c-.05,0-.08,0-.13,0s-.38-.14-.44-.29.3.08.45,0,0,0,0-.06,0,0,0,0c-.23-.2-.5-.31-.62-.6-.08,0,0-.11-.07-.16s-.06-.18-.08-.27,0,0,0-.07,0-.06,0-.1c.15-.51.14,0,.35-.19,0-.07,0-.14,0-.21l0-.13a.08.08,0,0,1,0,0c0-.16.08-.35.25-.44,0-.08.09-.09.15,0" transform="translate(-56.28 -2.69)"/><path class="cls-5" d="M106.16,65c0,.1.16.11.24.16s.2.07.31.07l.17.06c.13.09.21.22.33.32a1.17,1.17,0,0,1,.06.2s0,.08,0,.11a.45.45,0,0,0,0,.14c0,.09,0,.2,0,.26s0,.13-.05.17c-.08.2-.28.49-.54.51,0,0,0-.07,0-.11s.09-.18.11-.28c-.17-.31-.31.19-.51.21a1,1,0,0,1-.72.28c-.08.08-.17,0-.26,0s-.13,0-.17,0c-.51,0,.49-.42-.47-.26,0,0-.08,0-.11,0s-.2-.11-.34-.12-.17-.08-.22-.18v0h0c-.12-.16.22-.07.32-.12a.7.7,0,0,0,.39-.16c.33-.19,1.15-.32.85-.83,0,0-.11,0-.08-.11s.13,0,.19,0,.09.1.15.14,0,.08.06.13,0,.09.06.12,0,.18,0,.28,0,.07,0,.12-.06.07-.07.11-.13.13-.23.13-.19.06-.27.12-.13,0-.18,0-.22,0-.27.05.09.14.17.13.12,0,.16,0a1,1,0,0,0,1-.54s.05-.1,0-.14.07-.26,0-.38a3.37,3.37,0,0,0-.17-.42s0,0,0-.07,0-.08.08-.09h0s0,0,.07.07" transform="translate(-56.28 -2.69)"/><path class="cls-5" d="M98.35,62.87c0,.05,0,.12,0,.14s.17,0,.24,0,.81.26.49.38c0,0-.07,0-.11,0a1.18,1.18,0,0,0-.4.17c-.17.07-.42.12-.52.29a.5.5,0,0,0,0,.21.25.25,0,0,0,.44,0s0-.08,0-.09a.45.45,0,0,1,0-.11.49.49,0,0,1,.21-.15.66.66,0,0,1,.37-.13,1.43,1.43,0,0,1,.59.08c.67.44-.39.06.13.4,0,0,0,.06.08.06s.1.08.11.14,0,0,.06,0,.13.23.09.37a.2.2,0,0,1,0,.11l0,0s0,0,0,.08c-.37,0-.06.27-.19.49a.5.5,0,0,1-.1.17s0,0,0,0-.17.19-.24.1a.61.61,0,0,0,0-.12.65.65,0,0,0-.13-.28c-.08-.18-.32-.28-.36-.5L99,64.7s0,0-.08-.06a2.08,2.08,0,0,0-.25,0,0,0,0,0,1-.06,0,.13.13,0,0,1-.09,0s0-.08,0-.12,0,0,0,0,.12-.14.19-.2.05,0,.08,0a.69.69,0,0,1,.47,0c0,.05.13.07.15.13a.16.16,0,0,1,.08.1s0,0,0,0v0a.65.65,0,0,1,0,.2c.08.45.2,0,.11-.23a.69.69,0,0,0-.52-.47.47.47,0,0,0-.33,0,.24.24,0,0,0-.17,0c-.08,0-.1.07-.17.08s-.14,0-.21,0-.34,0-.43-.2a.55.55,0,0,1-.08-.43s0-.05,0-.08,0-.08.08-.1.07-.06.09-.09.09-.08.16-.08.07,0,.09,0,.07,0,.09,0,.07,0,.11,0h.19c.09.07.41.07.21-.07l-.15,0h-.07a1.06,1.06,0,0,0-.53,0,.27.27,0,0,0-.17.08.88.88,0,0,0-.23.24.79.79,0,0,0-.1.52s0,0,0,0a1.56,1.56,0,0,0,.11.26s0,.11,0,.15,0,.06-.06.06c-.08-.19-.24-.24-.42-.33a.33.33,0,0,1-.11-.09s0,0,0,0,0-.08-.09-.1a.25.25,0,0,1-.08-.16.79.79,0,0,1,.21-.7c.07-.07.14,0,.13.08s0,0,0,.06.07.07.11,0,.15-.21.23-.29a.28.28,0,0,1,.15-.08s.08,0,.11,0a.45.45,0,0,0,.2,0c.12,0,.29-.06.37.06" transform="translate(-56.28 -2.69)"/><path class="cls-5" d="M96.65,63.33s0,.07,0,.12,0,.16.11.2a3,3,0,0,1,.27.5.14.14,0,0,1,.05.08s.09.08.16.07a.18.18,0,0,0,.22-.1c0-.06.11,0,.11,0s0,.1,0,.16h0c-.07.1-.21.11-.31.13s-.14,0-.21,0-.06,0-.08,0,0,0-.09,0-.07,0-.07-.1-.06-.07-.1-.1-.09-.17,0-.24,0-.08,0-.11,0-.29-.12-.13-.05.13,0,.19a.38.38,0,0,0,0,.21.23.23,0,0,0,.06.12s0,0,0,0,0,0,0,.08.08.11.15.14a.87.87,0,0,0,.55.18.78.78,0,0,0,.21,0,.36.36,0,0,1,.32,0c0,.07-.17.07-.19.16s-.09.19-.14.3-.1.07-.14.13a.58.58,0,0,1-.14,0,.88.88,0,0,1-.56,0s-.06,0-.09,0l-.19-.1c0-.06-.17,0-.16-.13s.35.14.37,0h0c-.18-.16-.39-.24-.48-.46-.06,0,0-.09,0-.13a1.66,1.66,0,0,1-.06-.21s0,0,0-.05,0,0,0-.08,0-.14.07-.18.11.15.19,0,0-.11,0-.17a.38.38,0,0,1,0-.1s0,0,0,0a.51.51,0,0,1,.19-.35.08.08,0,0,1,.12,0" transform="translate(-56.28 -2.69)"/><path class="cls-5" d="M98.56,64.52c0,.07.13.08.19.12a2,2,0,0,0,.23.06.65.65,0,0,1,.13,0,3.08,3.08,0,0,1,.26.24,1,1,0,0,1,0,.16s0,.07,0,.08a1,1,0,0,0,0,.12c0,.06,0,.15,0,.19s0,.11,0,.13-.21.38-.41.4A0,0,0,0,1,99,66c0-.09.07-.14.09-.23-.14-.23-.24.16-.39.17a.81.81,0,0,1-.56.22c-.06.06-.13,0-.2,0s-.1,0-.13,0c-.21,0-.07-.13,0-.2-.11-.08-.23,0-.34,0s-.07,0-.09,0-.16-.09-.26-.09-.14-.07-.17-.15h0c-.1-.13.17-.06.25-.1a.55.55,0,0,0,.3-.12c.25-.15.88-.24.65-.64,0,0-.08,0-.06-.09a.22.22,0,0,1,.26.1,1.86,1.86,0,0,0,.1.2c0,.06,0,.13,0,.22s0,.05,0,.09a.56.56,0,0,0,0,.08c-.06,0-.1.1-.18.1s-.08,0-.11.06a.38.38,0,0,0-.1,0s-.1,0-.14,0-.16,0-.21,0,.08.12.14.1.09,0,.12,0a.76.76,0,0,0,.74-.41s0-.08,0-.11.06-.2,0-.3,0,0,0,0a1.85,1.85,0,0,0-.13-.29s0,0,0-.06,0-.07.06-.07h0s0,0,0,.06" transform="translate(-56.28 -2.69)"/><path class="cls-5" d="M91.81,63.38s0,.09,0,.1.11,0,.16,0,.57.19.34.26c0,0,0,0-.07,0a.7.7,0,0,0-.28.12c-.15,0-.43.11-.36.34a.17.17,0,0,0,.3,0s0,0,0-.06,0,0,0-.07a.37.37,0,0,1,.15-.11.48.48,0,0,1,.25-.09.91.91,0,0,1,.41.06l.15.12c0,.09-.13,0-.17,0s.08.06.11.11,0,0,0,0,.07.05.08.09,0,0,0,0a.33.33,0,0,1,.06.25s0,.06,0,.09h0s0,0,0,.05c-.25,0,0,.19-.13.34a.55.55,0,0,1-.08.15s-.11.13-.16.07a.2.2,0,0,0,0-.08.4.4,0,0,0-.09-.2c-.06-.13-.22-.19-.25-.34l-.06,0c-.06-.06-.14,0-.23,0s0,0,0,0a.09.09,0,0,1-.06,0s0,0,0-.08,0,0,0,0,.07-.1.13-.14,0,0,0,0a.38.38,0,0,1,.43.09.11.11,0,0,1,.06.07s0,.12.05.18c0,.3.15,0,.07-.16a.5.5,0,0,0-.36-.33.28.28,0,0,0-.22,0s-.1,0-.12,0-.08,0-.12.06-.1,0-.15,0a0,0,0,0,1,0,0c-.23,0-.36-.23-.31-.41,0,0,0,0,0,0s0-.07,0-.08.05,0,.06-.06a.22.22,0,0,1,.11,0s.05,0,.07,0,0,0,.06,0a.7.7,0,0,1,.21,0c.06.05.27.05.14,0H92a.74.74,0,0,0-.36,0,.22.22,0,0,0-.12,0,.65.65,0,0,0-.16.17.54.54,0,0,0-.07.36s0,0,0,0a.75.75,0,0,0,.08.18s0,.08,0,.1,0,0,0,0-.16-.17-.29-.23l-.08-.07s0,0,0,0,0-.06-.06-.07a.13.13,0,0,1,0-.11.47.47,0,0,1,.12-.45.05.05,0,0,1,0,0s.1,0,.09.06,0,0,0,0a0,0,0,0,0,.07,0c0-.09.11-.15.16-.2a.27.27,0,0,1,.1-.06s.06,0,.08,0a.32.32,0,0,0,.14,0c.08,0,.2,0,.26,0" transform="translate(-56.28 -2.69)"/><path class="cls-5" d="M90.63,64a.15.15,0,0,1,0,.08s0,.11.07.14.17.22.19.34,0,0,0,.06.22.08.26,0,0,.09,0,.14h0a.39.39,0,0,1-.22.09s-.1,0-.15,0,0,0,0,0,0,0-.06,0-.06,0-.06-.06,0-.06-.06-.08a.05.05,0,0,1,0,0s0-.08,0-.12,0-.06,0-.08,0-.2-.08-.09,0,.1,0,.14,0,.09,0,.14a.15.15,0,0,0,0,.08s0,0,0,0,0,0,0,0,.06.08.11.1a.56.56,0,0,0,.38.12.33.33,0,0,0,.14,0c.08,0,.15,0,.22,0s-.11,0-.12.12-.07.13-.1.2-.07,0-.1.09l-.1,0a.76.76,0,0,1-.45,0c-.07-.06-.21-.09-.24-.16a0,0,0,0,1,0,0c.09,0,.14.06.23,0s0,0,0,0h0c-.12-.1-.27-.16-.33-.32s0,0,0-.08,0-.1,0-.15,0,0,0,0,0,0,0-.06c.08-.26.07,0,.19-.1s0-.08,0-.11a.24.24,0,0,1,0-.08c0-.08,0-.2.14-.25s0-.05.08,0" transform="translate(-56.28 -2.69)"/><path class="cls-5" d="M92,64.82c0,.05.08.05.12.09s.11,0,.17,0l.09,0c.07,0,.11.12.18.17a.43.43,0,0,1,0,.11s0,0,0,.06,0,0,0,.08,0,.1,0,.13,0,.07,0,.09-.29.4-.3.22,0-.1.06-.15-.17.1-.27.11a.57.57,0,0,1-.39.15s-.09,0-.13,0-.08,0-.1,0c-.27,0,.28-.21-.25-.14,0,0,0,0-.05,0s-.11-.06-.19-.06-.09,0-.11-.1h0c-.06-.09.11,0,.17-.07a.42.42,0,0,0,.21-.08c.17-.11.61-.17.45-.45,0,0-.05,0,0-.06s.07,0,.1,0,0,.05.08.07a.15.15,0,0,1,0,.07s0,.05,0,.07a.59.59,0,0,0,0,.14s0,0,0,.07,0,0,0,.06-.08.07-.13.07,0,0-.07,0l-.07,0s-.07,0-.1,0-.11,0-.14,0,0,.08.09.08h.09a.54.54,0,0,0,.51-.29,0,0,0,0,1,0,0v0c.06,0,0-.14,0-.21a.93.93,0,0,0-.09-.22s0,0,0,0,0,0,0-.06h0s0,0,0,0" transform="translate(-56.28 -2.69)"/><path class="cls-3" d="M70.33,51.11c-1.39.91-5.46,2-6.28,0,1.21-2,4.61-1,6.28,0m2.44,3.73a3.84,3.84,0,0,0-1.69-4.24c5.67-6-5.6-14-10.39-7.3-3.55,6.41,10.55,7.75,7.39,1,1.7,3.75-4.2,5.07-6.56,3.2-2.72-1.9-.73-6,3.8-6,5.27-.18,9.56,5.15,5.68,9.14-8.43-4.36-9.56,5.9-.57.63a4.29,4.29,0,0,1,2.34,3.66" transform="translate(-56.28 -2.69)"/><path class="cls-3" d="M97.58,12.92c1.42-.71,1.84-1.12,1.84-5a.74.74,0,0,1,0-1.42,1.62,1.62,0,0,0-.6-1.35,3.91,3.91,0,0,0,.89-2.49c.09.76.24,2.15.71,2.49a2,2,0,0,0-.59,1.41.73.73,0,0,1,0,1.36c0,3.9.41,4.32,1.71,5l-.47.77A1.89,1.89,0,0,1,100,12.33h-.06a3,3,0,0,0,.59,2.18l-.89.83-.83-.83a3,3,0,0,0,.6-2.18H99.3a2.32,2.32,0,0,1-1.24,1.42Zm-.41-6.21c1.82.67,2.58,5.14-.24,5.14-1.59,0-.22-2.24.3-.71,1.09-.16.54-1.51-.59-1.42-1.74.06-1.41,3.68.41,3.38a.61.61,0,0,1-.59.65,9,9,0,0,0,3.07,2.65,7.72,7.72,0,0,0,3-2.54.69.69,0,0,1-.65-.65c2-.17,2.39-3.41.41-3.37-1.06.08-1.34,1.51-.29,1.48-.57-.81,1-1,.88-.18a1,1,0,0,1-1.06.83c-2.42-.25-1.28-4.36.29-5.26l.59.83a2.73,2.73,0,0,0-1.71,2.6h.06c3.62-3.84,5.29,4.07-1.54,6.92C93.35,14.57,93.75,6.5,98.17,10h.06A2.46,2.46,0,0,0,96.64,7.6Z" transform="translate(-56.28 -2.69)"/><path class="cls-3" d="M76.52,40.2a.94.94,0,0,1-1.88,0,.94.94,0,0,1,1.88,0" transform="translate(-56.28 -2.69)"/><path class="cls-3" d="M124.29,40.06a1,1,0,0,1-1.89,0,.95.95,0,0,1,1.89,0" transform="translate(-56.28 -2.69)"/><path class="cls-3" d="M131,32.27c-.33.26-.62.59-.93.89a3.42,3.42,0,0,0-.88-1.29c.51,1.66-.86,5.2-3.15,4.7a4.14,4.14,0,0,0,.75-3h0a2.79,2.79,0,0,1-2.29,1.63c.82,2,.51,3.37-.21,4.15l.07.09c.91-.54,2.3-.55,4.09.71a2.76,2.76,0,0,1,2.09-1.87v0a4.16,4.16,0,0,0-3.08.07c0-2.35,3.78-2.9,5.29-2a3.66,3.66,0,0,0-1.06-1.14,7.27,7.27,0,0,0,3.51-4.44A9.13,9.13,0,0,0,131,32.27m-7.13,8.37c.73-.53-.18-1.73-.9-1.12s.21,1.71.9,1.12m9.19-5.79a4,4,0,0,1-.56.35,3.12,3.12,0,0,1,1.09,1.86c-3.34-1.11-4.51-.55-5.43.55a4,4,0,0,1,3.54.76c-1.74.52-2.22.62-3.08,2.56-1.79-1.31-2.83-1.62-4.11-1.1a1.12,1.12,0,0,1-2,.94c-.75-.88.38-2.33,1.4-1.67.77-1.16.7-2.24-.18-4.28,2.08-.4,2.28-.85,3.18-2.43a4,4,0,0,1,0,3.62c1.28-.65,2.09-1.67,1.74-5.17a3.06,3.06,0,0,1,1.58,1.48c1-1,2-1.84,5.75-2.26a9.4,9.4,0,0,1-2.89,4.79" transform="translate(-56.28 -2.69)"/><path class="cls-3" d="M63.77,30.69a7.34,7.34,0,0,0,3.51,4.44,3.66,3.66,0,0,0-1.06,1.14c1.51-.86,5.27-.31,5.29,2a4.14,4.14,0,0,0-3.07-.07v0a2.76,2.76,0,0,1,2.09,1.87c1.79-1.25,3.18-1.24,4.09-.71a.73.73,0,0,1,.08-.09c-.73-.78-1-2.13-.22-4.15a2.77,2.77,0,0,1-2.28-1.62h-.06a4.14,4.14,0,0,0,.75,3c-2.3.5-3.66-3-3.15-4.7a3.66,3.66,0,0,0-.88,1.29c-1.27-1.25-2.1-2-5.09-2.47m12.3,9.81c.6-.68-.57-1.62-1.09-.87a.7.7,0,1,0,1.09.87M63,30.06c3.74.42,4.74,1.28,5.76,2.26a3,3,0,0,1,1.57-1.48c-.35,3.5.46,4.52,1.74,5.17a3.92,3.92,0,0,1,0-3.62c.89,1.58,1.09,2,3.17,2.43-.88,2-1,3.13-.18,4.28,1-.66,2.15.79,1.4,1.67a1.12,1.12,0,0,1-2-.94c-1.28-.52-2.32-.21-4.11,1.1-.86-1.94-1.34-2-3.08-2.56a4,4,0,0,1,3.54-.76c-.91-1.1-2.1-1.66-5.43-.54a3.12,3.12,0,0,1,1.09-1.87c-1.17-.77-2.24-1.56-3.45-5.14" transform="translate(-56.28 -2.69)"/><path class="cls-3" d="M97.84,53.45c0,.13.17.23.14.38a.29.29,0,0,1,0,.3.44.44,0,0,0-.08.15c-.08,0-.14.14-.19.21h0s-.08,0-.1.06-.26,0-.4-.07a.13.13,0,0,1-.06-.1s0-.08,0-.11c0-.23.55-.37.26-.66,0-.13-.25-.26-.38-.25s-.18,0-.26,0-.11,0-.16,0-.17,0-.21.1l0,0s-.09,0-.13,0a.21.21,0,0,1-.15.07s0,0,0,.05-.13.1-.2.13l-.19.18,0,.05c0,.06-.1.08-.13.14s0,.09-.09.11-.25.26-.28.43c0,0-.1.11-.09.14s0,.06,0,.1a.63.63,0,0,1-.12.23c0,.27-.18.55-.08.82.06,0,0,.09,0,.13a.2.2,0,0,0,.1.15.24.24,0,0,0,.21.09c.19,0,.38-.12.27.19,0,0,0,.05,0,.06s0,.1,0,.15,0,.19-.09.26,0,.06,0,.09,0,.07,0,.1-.11.13-.11.21a2.92,2.92,0,0,1-.54.57c0,.07-.13.09-.17.16s-.25.23-.41.26-.11,0-.15.09-.17,0-.22-.1a1.27,1.27,0,0,0,0-.28.1.1,0,0,0,0-.09c0-.19.14-.25.3-.29a2,2,0,0,0,.52-.27c.06,0,.14-.09.17-.17a1.86,1.86,0,0,0,.27-.29s0-.09-.06-.11h-.06a.1.1,0,0,0-.09,0c-.16,0-.29.18-.44.2a1.48,1.48,0,0,1-.42.07c0-.07-.13-.1,0-.2s0-.07,0-.11,0-.07,0-.1.09-.25.1-.38,0,0,0,0a.23.23,0,0,0,0-.14c.08-.11,0-.23.12-.35s0-.05,0-.07,0-.09.08-.13.08-.15.08-.21,0-.06,0-.08.05-.07.05-.13a.42.42,0,0,0,.06-.08c0-.11.45-.65.21-.55,0,0,0,0-.08,0s0,0,0,0-.17.09-.17.16-.1.18-.14.21a.33.33,0,0,1-.12.17c0,.07-.07.13-.12.18s-.1.44-.26.37-.12-.36-.16-.5-.28-.16-.17,0c-.06.06,0,.13,0,.21l0,0v.12c-.06.1.06.18,0,.28a.32.32,0,0,1,0,.17s0,.11,0,.16a.34.34,0,0,1,.08.23s0,.1-.09.14-.06.11-.06.18,0,.18-.08.25-.06.14-.06.23,0,.1,0,.13a1.06,1.06,0,0,1-.1.37.14.14,0,0,1-.09-.05,1,1,0,0,0-.18-.28c-.17-.27-.33-.55-.48-.83-.07,0-.09,0-.1.07a.5.5,0,0,0,0,.21,2.7,2.7,0,0,0,.51,1.2c.33.2.21.5.18.8a.92.92,0,0,0-.09.28s0,0,0,0a2.08,2.08,0,0,1-.15.48.13.13,0,0,0,0,.1c-.06.07-.07.15-.14.21s-.16.23-.24.34-.14.11-.22.15-.2.06-.29.11-.13,0-.2,0-.07,0-.1,0a.47.47,0,0,1-.21-.11c-.06,0-.09-.06-.13-.09s0-.08,0-.13a.45.45,0,0,1,.2-.68.62.62,0,0,1,.19-.07c.33,0,.07.34.23.51s.49,0,.58-.19a2.64,2.64,0,0,0,.07-.3c.08-.11,0-.3.08-.39a2.7,2.7,0,0,0,0-.28.32.32,0,0,0-.27-.2c0-.05-.11,0-.13-.07s0,0-.09,0-.06,0-.07-.05a1.11,1.11,0,0,1-.38-.37c0-.07-.05-.12-.06-.2s0-.11-.06-.13a2.76,2.76,0,0,1,0-.86c.06,0,0-.13.06-.18s.12-.22.13-.34a3.19,3.19,0,0,1,.36-.57c.12,0,.14-.23.25-.27s0,0,0,0,.1-.08.13-.15.16,0,.17.12.14.09.21,0a1.44,1.44,0,0,1,.13-.4,2.22,2.22,0,0,1,.62-.67,1.25,1.25,0,0,1,.23-.23s.08-.06.12-.08a1.69,1.69,0,0,1,.47-.27c.5-.27,1.15,0,1.56-.5.06,0,.07-.06.13-.07s0,0,.07,0,.27-.18.44-.18c0,0,0,0,.07,0a.7.7,0,0,1,.35,0,.53.53,0,0,1,.28,0c.06,0,.09,0,.14,0s.15,0,.21.1.25.2.37.31" transform="translate(-56.28 -2.69)"/></g><rect class="cls-5" x="66.48" y="88.64" width="12.27" height="0.7"/></svg>